<svg width="196" height="200" viewBox="0 0 196 200" fill="none" xmlns="http://www.w3.org/2000/svg">
<path d="M194.482 40.4027L85.7341 21.3449L57.9565 179.85L166.705 198.908L194.482 40.4027Z" fill="white"/>
<path d="M166.69 200C166.629 200 166.568 200 166.498 199.983L57.7522 180.919C57.4639 180.867 57.2106 180.709 57.0446 180.474C56.8786 180.238 56.8087 179.941 56.8611 179.661L84.6525 21.1515C84.7573 20.5574 85.3252 20.1643 85.9193 20.2604L194.665 39.3238C194.953 39.3762 195.206 39.5335 195.372 39.7694C195.538 40.0052 195.608 40.3023 195.556 40.5819L167.764 199.083C167.668 199.616 167.214 199.983 166.69 199.983V200ZM59.2025 178.953L165.79 197.641L193.197 41.2895L86.6095 22.6018L59.2025 178.953Z" fill="#0D0D0D"/>
<path d="M186.587 47.4243L90.7555 30.6301L82.9164 75.3616L178.748 92.1558L186.587 47.4243Z" fill="#F2F2F2"/>
<path d="M178.746 93.2553C178.685 93.2553 178.624 93.2553 178.554 93.2378L82.7216 76.4372C82.1275 76.3323 81.7344 75.7645 81.8305 75.1704L89.676 30.4386C89.7284 30.1503 89.8857 29.8969 90.1216 29.7309C90.3575 29.5649 90.6545 29.5038 90.9341 29.5474L186.767 46.3481C187.361 46.4529 187.754 47.0208 187.658 47.6149L179.812 92.3467C179.76 92.635 179.603 92.8883 179.367 93.0543C179.183 93.1854 178.965 93.2553 178.738 93.2553H178.746ZM84.1806 74.4714L177.855 90.8964L185.316 48.3226L91.6418 31.8976L84.1806 74.4714Z" fill="#0D0D0D"/>
<path d="M177.831 97.4411L81.9999 80.6469L74.1608 125.378L169.992 142.173L177.831 97.4411Z" fill="#F2F2F2"/>
<path d="M169.975 143.273C169.914 143.273 169.853 143.273 169.783 143.255L73.95 126.455C73.3559 126.35 72.9628 125.782 73.0589 125.188L80.9044 80.4561C80.9568 80.1678 81.1141 79.9144 81.35 79.7484C81.5859 79.5824 81.8829 79.5125 82.1625 79.565L177.995 96.3656C178.589 96.4704 178.982 97.0383 178.886 97.6324L171.041 142.364C170.988 142.652 170.831 142.906 170.595 143.072C170.412 143.203 170.193 143.273 169.966 143.273H169.975ZM75.409 124.498L169.084 140.923L176.545 98.3488L82.8702 81.9239L75.409 124.498Z" fill="#0D0D0D"/>
<path d="M169.277 146.253L73.4458 129.459L66.4196 169.552L162.251 186.346L169.277 146.253Z" fill="#F2F2F2"/>
<path d="M162.234 187.445C162.173 187.445 162.112 187.445 162.042 187.428L66.2093 170.627C65.921 170.575 65.6676 170.418 65.5016 170.182C65.3356 169.946 65.2657 169.649 65.3181 169.369L72.3512 129.277C72.456 128.683 73.0239 128.289 73.618 128.385L169.451 145.186C170.045 145.291 170.438 145.859 170.342 146.453L163.317 186.546C163.265 186.834 163.108 187.087 162.872 187.253C162.688 187.384 162.47 187.454 162.243 187.454L162.234 187.445ZM67.6683 168.662L161.343 185.087L167.992 147.143L74.3169 130.718L67.6683 168.662Z" fill="#0D0D0D"/>
<mask id="mask0_1661_1279" style="mask-type:luminance" maskUnits="userSpaceOnUse" x="128" y="37" width="59" height="56">
<path d="M128.624 37.9609L186.583 47.4314L178.746 92.1632L134.748 84.4487L128.624 37.9609Z" fill="white"/>
</mask>
<g mask="url(#mask0_1661_1279)">
<path d="M189.973 79.0757L175.295 65.3416L169.468 86.1698L167.275 65.7085L150.055 80.8842L161.186 61.4975L139.143 65.228L159.351 54.3334L140.908 45.1861L162.47 46.9334L154.677 28.4117L169.354 42.1457L175.182 21.3088L177.366 41.7788L194.595 26.5944L183.455 45.9811L205.498 42.2506L185.299 53.1539L203.733 62.3012L182.18 60.5452L189.973 79.0757Z" fill="#0D0D0D"/>
</g>
<path d="M7.82196 30.1677L19.0748 89.9179C19.0748 89.9179 13.5794 102.193 19.3893 108.326C19.3893 108.326 15.3442 122.549 25.2079 128.962L12.8892 140.285C12.8892 140.285 1.46166 139.498 1.90723 142.556C2.3528 145.614 10.6352 156.212 19.0748 150.734L22.2549 150.612L29.8122 146.925L37.6839 188.703L146.639 170.522L128.196 72.6542C128.196 72.6542 161.081 59.9074 156.04 32.8499C150.999 5.7924 128.598 -0.297063 110.163 1.59006C91.729 3.47718 83.7437 17.8927 83.7437 17.8927L7.82196 30.1677Z" fill="white"/>
<path d="M74.2994 77.7651C74.2994 77.7651 73.0938 105.216 69.4331 109.689C69.4331 109.689 83.3506 114.512 86.6618 109.689C89.973 104.866 94.8918 89.9877 80.817 75.4412L74.2907 77.7651H74.2994Z" fill="#F2C778"/>
<path d="M21.2241 44.6269L24.081 65.5513C24.081 65.5513 28.7377 64.0311 34.1806 69.2469C34.1806 69.2469 55.5767 58.6144 68.2274 66.2415L64.226 37.9609L21.2241 44.6269Z" fill="#F2F2F2"/>
<path d="M69.5293 37.9609L73.5919 64.2932C73.5919 64.2932 81.9965 61.6722 83.5691 66.6172C85.1417 71.5621 80.8258 74.1045 80.8258 74.1045L83.9186 78.4554L89.414 76.6032L92.7863 65.5688C92.7863 65.5688 76.7283 61.314 77.2613 36.3271L69.538 37.9783L69.5293 37.9609Z" fill="#F2F2F2"/>
<path d="M88.2432 84.7894L117.1 80.456L122.639 114.284L99.8542 119.395C99.8542 119.395 92.6639 109.951 87.553 110.117C82.442 110.283 86.6706 109.68 86.6706 109.68C86.6706 109.68 98.1244 104.028 88.2519 84.7807L88.2432 84.7894Z" fill="#F2F2F2"/>
<path d="M113.92 159.086L103.952 125.59L126.204 122.016" fill="#F2F2F2"/>
<path d="M37.5182 67.6394C37.5182 67.6394 25.4528 76.6556 29.8124 88.852C29.8124 88.852 48.7273 93.2466 64.0252 85.5059C64.0252 85.5059 64.0252 75.2403 64.995 73.4929C65.9648 71.7456 69.4507 67.6394 69.4507 67.6394C69.4507 67.6394 59.2288 58.1076 37.5094 67.6394H37.5182Z" fill="#F2C778"/>
<path d="M19.9835 111.55L23.7315 103.966C23.7315 103.966 21.425 88.5811 28.0999 83.2605L28.8512 77.7651L25.6274 76.3148C25.6274 76.3148 11.5701 95.5792 19.9747 111.559L19.9835 111.55Z" fill="#F2C778"/>
<path d="M12.8979 140.285C12.8979 140.285 17.0653 151.38 20.5513 151.005L38.6013 142.556C38.6013 142.556 43.2579 161.34 47.6699 163.393C47.6699 163.393 73.4955 162.555 76.1952 156.727L77.261 154.7C77.261 154.7 88.5051 156.998 92.4541 152.245C92.559 152.114 92.6638 151.983 92.7599 151.843C96.3944 146.566 106.337 145.239 106.45 135.008C106.564 124.777 95.6692 112.441 88.2605 111.559L83.5864 112.135C83.5864 112.135 82.3021 122.654 65.1607 130.683C48.0194 138.712 25.2254 129.976 25.2254 129.976L12.9067 140.285H12.8979Z" fill="#F1E85B"/>
<path d="M44.1753 135.453C36.2948 135.453 29.1045 133.741 24.6051 130.421C20.6561 127.503 18.3409 123.851 17.7206 119.561C16.6809 112.389 20.726 105.688 22.1152 103.626C21.1104 99.6855 21.3376 95.0201 22.7529 90.3897C23.9848 86.3708 25.968 82.8761 27.794 81.487C28.4667 80.9715 29.4278 81.1113 29.9345 81.7753C30.4412 82.448 30.3102 83.4091 29.6374 83.9158C27.2261 85.7505 22.8578 95.5268 25.2429 103.468C25.3827 103.932 25.2953 104.438 24.9983 104.831C24.9458 104.901 19.7038 111.969 20.7435 119.133C21.2502 122.584 23.1548 125.546 26.4136 127.957C33.6214 133.278 48.762 133.942 61.6137 129.495C67.9303 127.311 78.9822 121.964 82.0837 110.72C82.3109 109.907 83.1496 109.427 83.9621 109.654C84.7746 109.881 85.2551 110.72 85.028 111.532C82.4507 120.872 74.4915 128.281 62.6097 132.387C56.6512 134.449 50.2036 135.453 44.1665 135.453H44.1753Z" fill="#0D0D0D"/>
<path d="M21.6696 152.254C17.7119 152.254 12.9854 145.169 11.8846 142.88C11.5264 142.146 10.443 139.9 12.1554 138.939C12.732 138.599 15.5103 136.048 17.7469 134.003C20.4028 131.574 23.1549 129.058 24.5877 127.966C25.2604 127.451 26.2214 127.59 26.7282 128.254C27.2349 128.927 27.1038 129.888 26.4399 130.395C25.1119 131.4 22.2987 133.977 19.8175 136.257C17.0392 138.8 15.388 140.294 14.4182 141.062C15.0734 142.705 17.8517 146.846 20.3679 148.593C21.1629 149.144 21.5997 149.205 21.6871 149.187C24.8498 147.868 36.8278 141.272 36.9501 141.202C37.6927 140.792 38.6188 141.062 39.0294 141.805C39.44 142.548 39.1692 143.474 38.4266 143.884C37.9286 144.155 26.1778 150.629 22.8578 152.018C22.4734 152.175 22.0803 152.254 21.6784 152.254H21.6696Z" fill="#0D0D0D"/>
<path d="M106.433 137.341C105.9 137.341 105.376 137.061 105.096 136.554C104.852 136.117 104.843 135.611 105.035 135.183C104.756 132.492 97.8011 116.023 86.9589 111.532C86.1813 111.209 85.8057 110.318 86.1289 109.532C86.4522 108.754 87.3521 108.378 88.1296 108.702C100.143 113.682 107.866 131.155 108.093 135.139C108.163 136.336 107.63 136.886 107.176 137.14C106.94 137.271 106.686 137.332 106.433 137.332V137.341Z" fill="#0D0D0D"/>
<path d="M48.0805 164.564C47.6961 164.564 47.3204 164.424 47.0234 164.136C46.9447 164.057 46.8399 163.979 46.7089 163.874C45.0052 162.485 40.4709 158.78 37.0985 142.871C36.9238 142.041 37.448 141.228 38.278 141.054C39.0992 140.879 39.9117 141.403 40.0865 142.233C43.2404 157.094 47.303 160.414 48.6397 161.506C48.8406 161.672 49.0066 161.812 49.1289 161.934C49.7405 162.52 49.758 163.489 49.1726 164.092C48.8756 164.407 48.4737 164.564 48.0718 164.564H48.0805Z" fill="#0D0D0D"/>
<path d="M82.7566 156.815C79.7338 156.815 76.9031 156.22 75.2693 155.399C74.7451 155.137 74.4131 154.587 74.4306 154.001C74.6053 146.112 75.1295 128.595 75.1295 128.42C75.1557 127.573 75.8547 126.874 76.7021 126.935C77.5496 126.961 78.2136 127.66 78.1874 128.508C78.1874 128.674 77.7068 144.741 77.5059 153.014C80.7559 154.115 87.3347 154.246 90.4711 151.581C93.5814 143.954 93.7736 126.629 93.6163 124.62C93.4503 123.965 93.7386 123.257 94.3502 122.908C94.9268 122.593 95.6432 122.672 96.1238 123.108C96.648 123.58 96.7441 123.668 96.6916 127.59C96.6742 129.014 96.6043 131.933 96.3684 135.436C95.984 140.984 95.1103 148.558 93.1446 153.093C93.0659 153.285 92.9436 153.451 92.7951 153.599C90.3139 155.95 86.3824 156.806 82.7479 156.806L82.7566 156.815Z" fill="#0D0D0D"/>
<path d="M34.9407 91.4118C32.7304 91.4118 30.9219 91.2895 29.7424 91.0449C29.2182 90.94 28.8163 90.5207 28.7202 89.9965C28.6416 89.5771 28.528 89.1228 28.4057 88.6248C27.5495 85.1564 26.108 79.3639 32.3722 70.2429C32.7828 69.6488 33.5953 69.4915 34.1981 69.9021C34.7922 70.3128 34.9495 71.1253 34.5389 71.7281C28.9386 79.8794 30.153 84.7632 30.9568 87.9958C31.0092 88.2055 31.0617 88.4151 31.1053 88.6161C37.1686 89.3937 54.3449 87.7512 62.6185 84.6496C62.8457 83.2081 62.7933 81.9587 62.7496 80.6482C62.6185 77.337 62.4875 73.9123 67.2402 68.3907C67.712 67.8403 68.542 67.7791 69.0924 68.2509C69.6428 68.7227 69.704 69.5527 69.2322 70.1031C65.1522 74.8471 65.2483 77.3632 65.3706 80.5521C65.4317 82.0898 65.5016 83.8284 65.0648 85.8902C64.9774 86.3183 64.6804 86.6678 64.2785 86.8338C57.1668 89.7431 43.2406 91.4206 34.9495 91.4206L34.9407 91.4118Z" fill="#0D0D0D"/>
<path d="M33.4642 72.5144C33.1933 72.5144 32.9137 72.4445 32.6691 72.2873C31.9527 71.8504 31.7256 70.9069 32.1624 70.1817C33.8486 67.4209 37.5791 65.3678 43.2318 64.0835C52.3703 62.0042 65.1696 62.4323 69.0661 64.9572C69.7738 65.4115 69.9747 66.3638 69.5204 67.0715C69.0574 67.7791 68.1138 67.9801 67.4061 67.5258C64.7851 65.8309 53.2178 64.9485 43.9132 67.0715C39.2216 68.1373 35.9803 69.8148 34.7747 71.7893C34.4863 72.2611 33.9796 72.5232 33.4729 72.5232L33.4642 72.5144Z" fill="#0D0D0D"/>
<path d="M20.4728 111.436C20.0622 111.436 19.6516 111.244 19.3982 110.877C15.3269 105.05 15.1959 97.047 19.0225 87.7337C21.8445 80.858 25.7673 75.7295 25.9333 75.5111C26.3701 74.9345 27.2001 74.8297 27.768 75.2752C28.3446 75.7121 28.4494 76.542 28.0039 77.1099C27.8553 77.3109 12.9069 97.0121 21.5387 109.374C21.9493 109.969 21.8095 110.781 21.2155 111.2C20.9883 111.358 20.7262 111.436 20.4641 111.436H20.4728Z" fill="#0D0D0D"/>
<path d="M12.767 153.722C8.83549 153.722 5.3845 151.625 1.93351 147.309C0.579326 145.614 0.256069 144.103 0.955003 142.801C2.6936 139.586 10.5129 140.058 12.8631 140.285C13.5795 140.355 14.1124 140.992 14.0425 141.709C13.9727 142.425 13.3436 142.967 12.6185 142.888C8.68696 142.521 3.87305 142.906 3.26149 144.042C3.15665 144.243 3.27896 144.793 3.97789 145.667C8.49476 151.319 12.566 152.411 18.507 149.546C19.1535 149.231 19.9398 149.502 20.2543 150.157C20.5688 150.812 20.298 151.59 19.6428 151.905C17.1528 153.11 14.8813 153.722 12.7583 153.722H12.767Z" fill="#0D0D0D"/>
<path d="M91.9998 166.984C89.6322 166.984 86.6005 165.796 83.2631 163.507C82.9224 163.638 82.6166 163.918 82.171 164.337C81.1751 165.289 79.6723 166.722 76.7805 165.446C72.2112 163.428 75.6972 154.989 76.1078 154.036C76.3961 153.372 77.1649 153.067 77.8289 153.355C78.4929 153.643 78.7987 154.412 78.5191 155.076C77.2698 157.994 76.3349 162.389 77.8464 163.053C79.1394 163.621 79.4976 163.28 80.3713 162.441C81.0615 161.786 82.0138 160.877 83.5165 160.807C83.8048 160.799 84.1018 160.877 84.3377 161.052C89.1429 164.477 92.5065 164.905 93.6074 163.856C94.813 162.712 94.3674 158.973 90.6544 153.198C90.2612 152.586 90.4359 151.782 91.0475 151.389C91.6591 150.996 92.4628 151.171 92.856 151.782C97.0147 158.247 97.9407 163.341 95.4071 165.752C94.5422 166.574 93.3802 166.984 91.9998 166.984Z" fill="#0D0D0D"/>
<path d="M79.5589 112.869C73.6092 112.869 68.0527 110.589 67.7294 110.449C67.2839 110.266 66.9781 109.855 66.9344 109.374C66.8907 108.894 67.1004 108.431 67.4936 108.16C72.7356 104.526 73.3384 85.5058 73.1287 78.4815C73.1112 77.7564 73.6791 77.1535 74.4043 77.1361C75.1207 77.1099 75.7322 77.6865 75.7497 78.4029C75.8283 80.9103 76.2564 101.407 70.6388 108.702C73.95 109.759 80.8956 111.436 85.8056 108.955C86.4521 108.632 87.2384 108.885 87.5617 109.532C87.885 110.178 87.6316 110.964 86.9851 111.288C84.6873 112.45 82.0925 112.86 79.5676 112.86L79.5589 112.869Z" fill="#0D0D0D"/>
<path d="M86.3911 111.655C86.1027 111.655 85.8057 111.576 85.5523 111.401C84.8447 110.938 84.6525 109.986 85.1155 109.287C96.4994 92.0496 80.8957 77.5118 80.0482 76.7604C79.6027 76.4896 79.2969 76.0003 79.2969 75.4412C79.2969 74.5937 79.9783 73.9123 80.8258 73.9123C82.3547 73.9123 86.6269 79.163 88.8111 83.2343C92.332 89.7693 94.9879 99.8864 87.6666 110.973C87.3696 111.419 86.889 111.663 86.3911 111.663V111.655Z" fill="#0D0D0D"/>
<path d="M29.1569 79.0757C28.9385 79.0757 28.7201 79.0232 28.5104 78.9009C24.3081 76.5158 21.5385 72.9338 21.4512 69.7798C21.4162 68.4519 21.8356 66.5647 24.046 65.1407C28.3619 62.3624 32.8176 66.7133 34.5649 69.4042C34.9581 70.007 34.7921 70.8195 34.1805 71.2214C33.5777 71.6145 32.7652 71.4485 32.372 70.837C32.3371 70.7846 28.6677 65.2804 25.4613 67.351C24.5003 67.9713 24.046 68.7489 24.0722 69.7187C24.1333 71.9116 26.4922 74.751 29.8034 76.6381C30.4325 76.9963 30.6509 77.7914 30.2927 78.4204C30.0481 78.8485 29.6112 79.0844 29.1482 79.0844L29.1569 79.0757Z" fill="#0D0D0D"/>
<path d="M73.985 78.5166C73.8103 78.5166 73.653 78.5078 73.4958 78.4903C72.7794 78.403 72.2639 77.7565 72.3513 77.0401C72.4386 76.3237 73.0852 75.7995 73.8103 75.8956C75.3567 76.0703 79.6813 74.2967 81.2976 71.4835C82.2412 69.841 82.0577 68.1985 80.7472 66.4599C80.1007 65.6038 79.3057 65.1494 78.301 65.0533C75.2082 64.765 70.9796 67.9889 69.608 69.2469C69.075 69.7362 68.245 69.7013 67.7558 69.1683C67.2665 68.6354 67.3015 67.8054 67.8257 67.3161C68.0616 67.0977 73.6443 61.9868 78.5281 62.4411C80.2842 62.5983 81.7345 63.4196 82.8353 64.8786C84.7661 67.4385 85.0195 70.2429 83.5604 72.7853C81.5423 76.3062 76.6847 78.5166 73.985 78.5166Z" fill="#0D0D0D"/>
<path d="M46.6391 133.549C46.4032 133.549 46.1586 133.453 45.9926 133.261C45.6693 132.902 45.6956 132.352 46.0538 132.029C46.4032 131.705 47.373 130.605 47.1895 129.81C47.0672 129.285 46.3421 128.814 45.1539 128.482C42.2271 127.669 40.1652 128.482 39.2042 129.504C38.6538 130.089 38.4441 130.762 38.6363 131.286C38.8023 131.74 38.5577 132.238 38.1034 132.404C37.6491 132.562 37.1511 132.326 36.9851 131.871C36.5745 130.709 36.9239 129.381 37.9199 128.307C39.2304 126.9 41.9388 125.764 45.6169 126.787C47.504 127.311 48.6049 128.193 48.8932 129.399C49.3475 131.33 47.4516 133.112 47.2332 133.313C47.0672 133.461 46.8575 133.54 46.6479 133.54L46.6391 133.549Z" fill="#0D0D0D"/>
<path d="M46.2984 124.017C45.9926 124.017 45.6868 123.851 45.5296 123.563C45.2937 123.143 45.4509 122.611 45.879 122.375C46.2285 122.182 46.744 121.746 46.7877 121.431C46.7877 121.396 46.8051 121.283 46.6042 121.073C46.1237 120.575 45.4859 120.645 45.1452 120.723C44.4899 120.889 44.0007 121.326 43.9133 121.658C43.7822 122.121 43.293 122.392 42.8299 122.261C42.3669 122.13 42.0961 121.649 42.2271 121.178C42.5067 120.19 43.5114 119.326 44.7258 119.028C45.9315 118.731 47.076 119.028 47.871 119.867C48.5263 120.557 48.5874 121.248 48.5175 121.702C48.3166 122.995 46.8838 123.816 46.7178 123.904C46.5867 123.973 46.4382 124.008 46.2984 124.008V124.017Z" fill="#0D0D0D"/>
<path d="M32.6867 124.017C32.5906 124.017 32.4945 124 32.3984 123.965C31.7518 123.746 29.6201 122.908 29.2881 121.51C29.1483 120.933 29.323 120.348 29.7861 119.867C30.5811 119.037 31.7256 118.731 32.9313 119.028C34.1457 119.326 35.1417 120.19 35.43 121.178C35.561 121.641 35.2902 122.121 34.8272 122.261C34.3641 122.392 33.8836 122.121 33.7438 121.658C33.6477 121.326 33.1584 120.889 32.5119 120.723C32.1712 120.645 31.5247 120.575 31.0529 121.073C31.0005 121.125 30.9918 121.16 30.9918 121.16C31.0791 121.387 32.0664 121.99 32.9837 122.313C33.438 122.471 33.6826 122.969 33.5254 123.423C33.4031 123.781 33.0623 124.008 32.7041 124.008L32.6867 124.017Z" fill="#0D0D0D"/>
<path d="M37.6841 90.477C37.3784 90.477 37.0813 90.311 36.9153 90.0227C36.758 89.7431 33.1935 83.1644 36.9415 77.9311C37.2211 77.538 37.7715 77.4506 38.1647 77.7302C38.5578 78.0098 38.6452 78.5602 38.3656 78.9533C35.2641 83.278 38.418 89.1228 38.4442 89.184C38.6801 89.6033 38.5229 90.1363 38.1035 90.3722C37.9724 90.4421 37.8239 90.477 37.6841 90.477Z" fill="#0D0D0D"/>
<path d="M53.8294 89.1316C53.3751 89.1316 52.9907 88.7821 52.9557 88.3278L52.1432 77.8351C52.1083 77.3545 52.4665 76.9352 52.947 76.9002C53.4188 76.8653 53.8469 77.2235 53.8818 77.704L54.6943 88.1968C54.7293 88.6773 54.3711 89.0966 53.8906 89.1316C53.8643 89.1316 53.8469 89.1316 53.8207 89.1316H53.8294Z" fill="#0D0D0D"/>
<path d="M31.5246 106.727C28.5367 106.727 26.0991 104.814 26.0991 102.464C26.0991 100.114 28.5367 98.2002 31.5246 98.2002C34.5125 98.2002 36.9501 100.114 36.9501 102.464C36.9501 104.814 34.5125 106.727 31.5246 106.727ZM31.5246 99.9476C29.5326 99.9476 27.8465 101.101 27.8465 102.464C27.8465 103.827 29.5326 104.98 31.5246 104.98C33.5166 104.98 35.2027 103.827 35.2027 102.464C35.2027 101.101 33.5166 99.9476 31.5246 99.9476Z" fill="#0D0D0D"/>
<path d="M57.2454 105.102C56.1097 105.102 55.0263 104.866 54.109 104.412C52.7373 103.731 51.8724 102.656 51.6802 101.372C51.287 98.8031 53.6809 96.3743 57.1318 95.8413C60.5828 95.3084 63.597 96.9072 63.9989 99.4758C64.1998 100.76 63.7018 102.044 62.5923 103.11C61.5701 104.089 60.1373 104.761 58.5472 105.006C58.1104 105.076 57.6823 105.102 57.2542 105.102H57.2454ZM58.3987 97.4925C58.0667 97.4925 57.7347 97.5188 57.3939 97.5712C54.9914 97.9381 53.1654 99.5631 53.4013 101.11C53.5061 101.817 54.0391 102.429 54.8778 102.848C55.8213 103.32 57.027 103.468 58.2676 103.276C59.5082 103.084 60.609 102.577 61.3691 101.843C62.0506 101.188 62.3651 100.446 62.2603 99.7379C62.0593 98.4099 60.3819 97.4925 58.3899 97.4925H58.3987Z" fill="#0D0D0D"/>
<path d="M32.8526 102.368C33.5861 102.368 34.1806 101.773 34.1806 101.04C34.1806 100.306 33.5861 99.7117 32.8526 99.7117C32.1192 99.7117 31.5247 100.306 31.5247 101.04C31.5247 101.773 32.1192 102.368 32.8526 102.368Z" fill="#0D0D0D"/>
<path d="M59.1588 99.9126C59.8922 99.9126 60.4868 99.3181 60.4868 98.5847C60.4868 97.8512 59.8922 97.2567 59.1588 97.2567C58.4254 97.2567 57.8308 97.8512 57.8308 98.5847C57.8308 99.3181 58.4254 99.9126 59.1588 99.9126Z" fill="#0D0D0D"/>
<path d="M51.9685 165.35C48.6923 165.35 47.574 164.704 46.9886 164.101C46.3945 163.498 46.412 162.528 47.0148 161.943C47.6089 161.366 48.5612 161.366 49.1466 161.943C51.8113 163.708 72.788 159.593 74.7188 156.911C75.2168 156.229 76.1691 156.072 76.8506 156.561C77.532 157.059 77.6893 158.012 77.2001 158.693C74.9023 161.882 61.2032 164.739 54.5109 165.246C53.5411 165.315 52.7024 165.35 51.9773 165.35H51.9685Z" fill="#0D0D0D"/>
<path d="M50.8675 171.693C50.221 171.693 49.6269 171.283 49.4173 170.645L47.1981 163.874C46.936 163.07 47.3729 162.205 48.1766 161.943C48.9804 161.681 49.8453 162.118 50.1074 162.922L52.3266 169.692C52.5887 170.496 52.1518 171.361 51.3481 171.623C51.1908 171.676 51.0335 171.702 50.8675 171.702V171.693Z" fill="#0D0D0D"/>
<path d="M113.746 158.71C112.994 158.71 112.339 158.151 112.234 157.383C111.605 152.682 109.176 139.691 105.507 136.091C104.904 135.497 104.895 134.527 105.489 133.933C106.083 133.33 107.053 133.322 107.656 133.916C112.732 138.896 115.021 155.146 115.266 156.981C115.379 157.819 114.785 158.588 113.955 158.702C113.885 158.71 113.815 158.719 113.754 158.719L113.746 158.71Z" fill="#0D0D0D"/>
<path d="M92.4542 154.316C91.764 154.316 91.1349 154.054 90.6544 153.565C90.0603 152.962 90.0778 151.992 90.6806 151.407C91.2048 150.9 91.9998 150.839 92.5852 151.223C94.8742 150.419 101.226 140.853 103.349 137.655C104.144 136.458 104.764 135.523 105.192 134.929C105.69 134.248 106.643 134.091 107.324 134.58C108.005 135.078 108.163 136.03 107.673 136.712C107.28 137.253 106.643 138.223 105.9 139.341C99.6008 148.838 95.6343 154.036 92.7075 154.307C92.6201 154.307 92.5328 154.316 92.4454 154.316H92.4542Z" fill="#0D0D0D"/>
<path d="M50.6493 171.947C50.1425 171.947 49.6882 171.588 49.5834 171.073C49.4611 170.479 49.8367 169.902 50.4308 169.78L84.4689 162.747C85.063 162.625 85.6396 163 85.762 163.594C85.8843 164.188 85.5086 164.765 84.9145 164.887L50.8764 171.92C50.7978 171.938 50.7279 171.947 50.658 171.947H50.6493Z" fill="#0D0D0D"/>
<path d="M95.5033 162.686C94.9965 162.686 94.5422 162.327 94.4374 161.812C94.3151 161.218 94.6907 160.641 95.2848 160.519L131.053 153.128L125.156 122.322L103.637 126.769C103.052 126.9 102.466 126.516 102.344 125.922C102.222 125.328 102.597 124.751 103.192 124.629L125.793 119.955C126.082 119.893 126.379 119.955 126.623 120.112C126.868 120.278 127.034 120.531 127.086 120.811L133.394 153.766C133.508 154.351 133.123 154.919 132.547 155.041L95.7217 162.651C95.643 162.668 95.5731 162.677 95.5033 162.677V162.686Z" fill="#0D0D0D"/>
<path d="M99.0941 120.26C98.5873 120.26 98.133 119.902 98.0282 119.387C97.9059 118.793 98.2816 118.216 98.8756 118.094L122.211 113.262L116.279 81.1812L88.1033 85.9164C87.5092 86.0125 86.9413 85.6194 86.8452 85.0166C86.7491 84.4225 87.1423 83.8546 87.7451 83.7585L116.987 78.8397C117.581 78.7436 118.131 79.128 118.245 79.7134L124.57 113.9C124.675 114.485 124.299 115.045 123.714 115.167L99.33 120.217C99.2513 120.234 99.1814 120.243 99.1115 120.243L99.0941 120.26Z" fill="#0D0D0D"/>
<path d="M37.6839 189.796C37.1685 189.796 36.7142 189.429 36.6093 188.904L28.7376 147.126C28.624 146.532 29.0171 145.964 29.6112 145.85C30.2053 145.745 30.7732 146.13 30.8868 146.724L38.5576 187.454L145.39 169.858L127.121 72.8552C127.008 72.2611 127.401 71.6932 127.995 71.5796C128.589 71.466 129.157 71.8592 129.271 72.4533L147.749 170.549C147.801 170.837 147.74 171.134 147.574 171.379C147.408 171.623 147.146 171.781 146.857 171.833L37.8674 189.787C37.8062 189.796 37.7451 189.804 37.6927 189.804L37.6839 189.796Z" fill="#0D0D0D"/>
<path d="M19.075 91.0187C18.5595 91.0187 18.1052 90.6518 18.0004 90.1276L6.75629 30.3775C6.70387 30.0891 6.76503 29.7921 6.93102 29.5475C7.09702 29.3028 7.35912 29.1456 7.64743 29.0932L83.0187 16.6783C83.6128 16.5735 84.172 16.9841 84.2768 17.5782C84.3817 18.1723 83.971 18.7315 83.3769 18.8363L9.10646 31.0677L20.1496 89.7257C20.2632 90.3198 19.87 90.8877 19.2759 91.0013C19.2061 91.01 19.1362 91.0187 19.075 91.0187Z" fill="#0D0D0D"/>
<path d="M88.2782 80.4036C88.0772 80.4036 87.8675 80.3425 87.6841 80.2289C87.256 79.9581 87.0812 79.4251 87.2472 78.9533C88.9596 74.0171 90.7157 68.4606 90.9953 66.8268C81.4286 59.7589 76.1604 49.4234 76.1604 37.6726C76.1604 16.8967 94.324 0 116.646 0C138.968 0 157.132 16.8967 157.132 37.6726C157.132 58.4484 138.968 75.3451 116.646 75.3451C109.325 75.3451 103.768 74.122 98.2555 71.2738C96.2111 73.2745 89.8595 79.3203 89.0383 80.1066C88.8286 80.3075 88.5577 80.4036 88.2869 80.4036H88.2782ZM116.646 2.18417C95.5296 2.18417 78.3446 18.1024 78.3446 37.6726C78.3446 48.8817 83.4468 58.7192 92.7077 65.3678C93.3717 65.8483 93.8347 66.1803 90.7507 75.4499C93.8522 72.4882 96.9712 69.4915 97.2507 69.1945C97.5915 68.8275 98.1419 68.7314 98.5787 68.9673C104.065 71.9465 109.307 73.1609 116.655 73.1609C137.771 73.1609 154.956 57.2427 154.956 37.6726C154.956 18.1024 137.771 2.18417 116.646 2.18417Z" fill="#0D0D0D"/>
<path d="M24.2469 67.7005C23.714 67.7005 23.2509 67.3161 23.1723 66.7744L19.8174 45.0026C19.7213 44.4085 20.1319 43.8494 20.726 43.7533L64.2434 37.0435C64.5317 36.9998 64.82 37.0697 65.0559 37.2445C65.2918 37.4192 65.4491 37.6726 65.4928 37.9609L69.7213 65.3853C69.8174 65.9794 69.4068 66.5385 68.8127 66.6346C68.2099 66.722 67.6595 66.3201 67.5634 65.726L63.5008 39.3849L22.1414 45.7627L25.3303 66.4512C25.4264 67.0453 25.0157 67.6044 24.4217 67.7005C24.3692 67.7005 24.3081 67.7093 24.2557 67.7093L24.2469 67.7005Z" fill="#0D0D0D"/>
<path d="M73.679 65.9706C73.1461 65.9706 72.683 65.5862 72.6044 65.0446L68.3584 37.524C68.3147 37.2357 68.3846 36.9474 68.5593 36.7115C68.734 36.4756 68.9874 36.3184 69.2757 36.2747L77.095 35.069C77.6979 34.9817 78.2483 35.3835 78.3444 35.9776C78.4318 36.5717 78.0299 37.1309 77.4358 37.227L70.6998 38.2666L74.7798 64.7038C74.8759 65.2979 74.4653 65.8571 73.8712 65.9532C73.8188 65.9532 73.7576 65.9619 73.7052 65.9619L73.679 65.9706Z" fill="#0D0D0D"/>
<path d="M83.569 79.198C83.0361 79.198 82.5731 78.8136 82.4944 78.2719C82.3983 77.6778 82.8089 77.1186 83.403 77.0225L108.303 73.1871C108.897 73.0998 109.456 73.5017 109.552 74.0958C109.648 74.6898 109.237 75.249 108.643 75.3451L83.7438 79.1805C83.6914 79.1805 83.6302 79.1892 83.5778 79.1892L83.569 79.198Z" fill="#0D0D0D"/>
<path d="M130.869 51.6687C130.441 50.2971 130.109 48.8642 129.594 47.7459C129.078 46.6277 127.864 45.9549 126.213 45.9986C124.562 46.0423 122.482 46.7587 120.56 47.0732C118.638 47.3877 117.45 48.9866 117.974 50.7514C118.49 52.5162 118.865 54.0364 119.555 55.3818C120.246 56.7272 122.605 56.4127 123.679 56.1681C124.754 55.9322 126.754 55.7924 128.659 55.3818C130.564 54.9712 131.289 53.0404 130.869 51.6687ZM125.776 52.2453C125.365 52.324 124.579 52.4201 124.299 52.4812C124.02 52.5424 123.295 52.5948 123.111 52.2453C122.937 51.8959 122.736 51.2406 122.648 50.9086C122.561 50.5766 123.006 50.1922 123.496 50.1136C123.994 50.035 124.527 49.8427 124.955 49.834C125.383 49.8253 125.793 50.0786 125.959 50.332C126.125 50.5854 126.248 51.0484 126.37 51.4503C126.492 51.8522 126.187 52.1754 125.776 52.2453Z" fill="#0D0D0D"/>
<path d="M118.131 17.386C114.069 17.3161 113.929 21.0292 115.152 22.4707C116.375 23.9123 121.731 22.8377 122.369 21.6408C123.522 19.4653 122.203 17.4559 118.131 17.386Z" fill="#0D0D0D"/>
<path d="M115.475 26.3411C113.894 26.4459 112.313 27.4332 113.37 29.8445C114.549 32.5441 115.484 31.6792 117.135 31.4521C118.786 31.2249 124.395 30.0542 124.395 30.0542C124.395 30.0542 127.436 29.8795 126.641 27.372C125.846 24.8646 123.242 25.1267 123.242 25.1267C123.242 25.1267 117.057 26.2275 115.475 26.3411Z" fill="#0D0D0D"/>
<path d="M118.027 33.8896C116.952 34.0206 115.912 34.7895 116.699 36.4844C117.581 38.389 119.189 37.9958 120.516 37.7687C121.844 37.5415 124.693 36.6504 124.693 36.6504C124.693 36.6504 126.702 36.1262 126.082 34.3526C125.461 32.5791 123.111 32.8674 123.111 32.8674C123.111 32.8674 119.092 33.7498 118.027 33.8896Z" fill="#0D0D0D"/>
<path d="M119.459 40.049C118.385 40.18 117.345 40.9488 118.131 42.6438C119.014 44.5484 120.621 44.1552 121.949 43.9281C123.277 43.7009 125.802 43.0981 125.802 43.0981C125.802 43.0981 126.885 42.8534 126.859 41.0362C126.833 39.219 124.212 39.3151 124.212 39.3151C124.212 39.3151 120.525 39.9092 119.451 40.0402L119.459 40.049Z" fill="#0D0D0D"/>
<path d="M128.528 17.7005C125.916 18.4781 126.405 23.1172 129.314 22.8551C132.224 22.593 135.316 21.9378 136.574 21.6932C138.462 21.3262 138.374 22.6542 138.671 23.9734C138.968 25.2927 139.51 28.1496 139.798 29.4164C140.087 30.6832 139.554 31.4346 137.422 31.6879C135.29 31.9413 133.185 32.2558 131.874 32.5965C130.564 32.9373 129.48 33.8197 130.301 36.7115C131.123 39.6033 132.975 47.5188 133.604 49.5457C134.233 51.5726 134.478 54.2285 136.871 53.7218C139.265 53.2151 144.839 51.3454 144.839 51.3454C144.839 51.3454 148.203 50.5941 147.845 48.541C147.487 46.4878 146.831 44.0416 146.316 42.1719C145.8 40.3023 144.988 40.4945 144.28 40.6605C143.573 40.8265 142.638 41.0274 142.096 41.2546C141.554 41.4817 141.318 42.137 141.537 42.8359C141.755 43.5348 141.878 44.5134 142.096 45.8064C142.314 47.0994 138.549 48.8817 137.763 46.1209C136.976 43.3601 135.849 37.2969 135.849 37.2969C135.849 37.2969 141.039 36.2659 142.743 35.9077C144.446 35.5495 145.066 34.7458 144.385 31.3559C143.704 27.9661 142.751 22.2436 141.615 18.1548C141.196 16.6346 139.458 15.6299 137.719 16.0143C135.98 16.3987 130.162 17.2112 128.519 17.7005H128.528Z" fill="#0D0D0D"/>
<path d="M113.344 49.8078C111.535 41.7526 110.277 34.6759 109.229 30.7356C108.189 26.7867 104.677 24.4627 100.841 24.3229C97.0061 24.1831 94.0618 25.0393 90.9778 26.4634C87.8937 27.8875 85.7707 30.9366 86.0416 34.5186C86.3124 38.1007 90.9778 56.7185 90.9778 56.7185C90.9778 56.7185 91.467 63.2972 99.365 61.978C107.263 60.6588 109.229 59.5579 109.229 59.5579C109.229 59.5579 115.152 57.863 113.344 49.8078ZM93.9395 39.0879C93.6163 38.2055 93.424 37.69 92.961 36.1524C92.498 34.6147 92.8824 33.7148 94.2715 33.2867C95.6519 32.8587 98.6398 32.0811 100.09 31.8015C101.54 31.5307 102.606 32.5703 102.816 33.3479C103.034 34.1167 103.2 35.401 103.672 36.8251C104.144 38.2492 103.13 39.0792 102.58 39.3151C102.038 39.5509 97.9147 40.4683 96.1848 40.7916C94.455 41.1061 94.2628 39.9703 93.9308 39.0879H93.9395ZM106.083 51.9308C105.542 52.1667 101.418 53.0841 99.6882 53.4073C97.9584 53.7218 97.7662 52.5861 97.4342 51.7037C97.1109 50.8213 96.9187 50.3058 96.4557 48.7681C95.9926 47.2305 96.377 46.3306 97.7662 45.9025C99.1553 45.4744 102.135 44.6968 103.585 44.4173C105.035 44.1464 106.101 45.1948 106.311 45.9637C106.529 46.7325 106.695 48.0168 107.167 49.4409C107.639 50.8649 106.625 51.6949 106.075 51.9308H106.083Z" fill="#0D0D0D"/>
<path d="M107.28 135.812L93.6599 153.87L96.2722 161.594L113.912 157.811C113.912 157.811 113.151 143.911 107.28 135.82V135.812Z" fill="#0D0D0D"/>
<path d="M49.0242 164.861L50.8676 170.854L77.3135 165.674C77.3135 165.674 74.8847 161.008 75.7497 159.086L49.0242 164.861Z" fill="#0D0D0D"/>
<path d="M126.204 122.016L132.014 153.87L113.92 159.086" fill="#F2F2F2"/>
</svg>
