<svg width="245" height="33" viewBox="0 0 245 33" fill="none" xmlns="http://www.w3.org/2000/svg">
<path d="M15.096 28.66V16.318C8.874 18.97 4.828 20.16 3.842 20.16C1.836 20.16 0.646 18.426 0.646 16.692C0.646 15.332 1.394 14.006 3.026 13.564C13.158 10.81 19.89 7.07 24.786 1.8C25.534 0.983998 26.384 0.677998 27.234 0.677998C29.07 0.677998 30.736 2.276 30.736 4.078C30.736 4.86 30.43 5.71 29.648 6.458C27.268 8.804 24.718 10.844 21.862 12.68V28.66C21.862 28.694 21.862 28.694 21.862 28.728C21.862 31.176 19.652 31.89 18.496 31.89C17.306 31.89 15.096 31.176 15.096 28.66ZM68.1847 7.614H49.7567C47.6147 7.614 46.5267 6.118 46.5267 4.588C46.5267 3.092 47.6147 1.596 49.7567 1.596H68.1847C70.1907 1.596 71.1767 3.092 71.1767 4.588C71.1767 6.118 70.1907 7.614 68.1847 7.614ZM64.9887 15.638H47.4787C45.4387 15.638 44.4187 14.176 44.4187 12.68C44.4187 11.15 45.4727 9.62 47.5127 9.62H67.4027C71.1087 9.62 73.1147 12.204 73.1147 15.23C73.1147 15.264 73.0807 31.414 50.7767 32.162C50.7087 32.162 50.6407 32.162 50.5727 32.162C48.1247 32.162 46.9007 30.53 46.9007 28.898C46.9007 27.3 48.0567 25.702 50.2667 25.668C64.9887 25.294 66.0427 16.896 66.0427 16.658C66.0427 16.08 65.6007 15.638 64.9887 15.638ZM102.869 9.314L89.6433 9.484C89.6093 9.484 89.6093 9.484 89.5753 9.484C87.5013 9.484 86.4133 7.818 86.4133 6.186C86.4133 4.622 87.4333 3.058 89.5753 3.058H105.181C109.193 3.058 110.995 5.2 110.995 8.124C110.995 10.606 109.465 14.55 107.357 17.814C110.179 20.534 112.763 23.322 114.463 25.77C114.939 26.45 115.143 27.164 115.143 27.81C115.143 29.782 113.341 31.414 111.505 31.414C110.485 31.414 109.465 30.938 108.717 29.748C107.527 27.912 105.487 25.464 103.277 22.948C96.7833 29.612 89.1673 31.754 87.7053 31.754C85.5973 31.754 84.2713 29.986 84.2713 28.286C84.2713 26.96 85.0533 25.702 86.8213 25.226C99.7073 21.826 103.753 11.456 103.753 10.198C103.753 9.722 103.413 9.314 102.869 9.314ZM130.959 29.034V3.398C130.959 1.392 132.659 0.371998 134.359 0.371998C136.025 0.371998 137.725 1.392 137.725 3.398V8.906C143.097 10.334 151.121 12.714 155.643 14.958C156.867 15.57 157.377 16.59 157.377 17.678C157.377 19.548 155.881 21.52 153.977 21.52C153.501 21.52 152.991 21.384 152.481 21.112C148.877 19.174 142.655 17.066 137.725 15.74V29.034C137.725 31.278 136.093 32.366 134.427 32.366C132.693 32.366 130.959 31.21 130.959 29.034ZM197.997 19.242H172.395C170.457 19.242 169.505 17.542 169.505 15.842C169.505 14.176 170.457 12.476 172.395 12.476H198.065C200.037 12.476 201.023 14.142 201.023 15.842C201.023 17.542 200.003 19.242 197.997 19.242ZM239.569 31.788H232.565C230.151 31.788 228.927 30.734 228.927 28.728V26.824H227.261C225.731 30.802 221.719 32.332 215.055 32.332C212.573 32.332 212.471 30.292 212.471 29.816C212.471 28.694 213.117 27.64 214.307 27.64C214.341 27.64 214.341 27.64 214.375 27.64C215.225 27.674 215.973 27.674 216.687 27.674C218.965 27.674 220.461 27.504 221.515 26.824H218.693C216.483 26.824 215.293 25.804 215.293 23.424V18.868C215.293 16.42 216.381 15.4 218.693 15.4H237.767C240.215 15.4 241.167 16.556 241.167 18.868V23.186C241.167 23.9 241.065 24.512 240.895 24.988C241.031 24.954 241.201 24.954 241.337 24.954C242.697 24.954 244.261 25.702 244.261 27.13C244.261 27.232 244.261 27.368 244.227 27.504C243.581 30.938 242.731 31.788 239.569 31.788ZM240.827 13.768H233.245C231.953 13.768 231.341 12.646 231.341 11.558C231.341 11.048 231.443 10.572 231.681 10.198C231.477 10.232 231.273 10.266 231.069 10.266C230.355 10.266 229.607 9.994 229.063 9.552C228.825 10.266 228.145 10.538 227.193 10.538H226.037V11.66H228.451C229.539 11.66 230.117 12.408 230.117 13.122C230.117 13.87 229.573 14.584 228.451 14.584H216.347C214.103 14.584 213.321 13.632 213.321 11.592V3.942C213.321 1.834 214.375 1.052 216.279 1.052H228.145C229.335 1.052 229.913 1.902 229.913 2.752C229.913 3.636 229.335 4.486 228.145 4.486H226.037V5.574H227.227C228.043 5.574 228.621 5.744 228.927 6.254C230.015 4.86 230.763 3.398 231.511 1.392C231.783 0.609999 232.633 0.235999 233.551 0.235999C234.877 0.235999 236.305 1.018 236.305 2.446C236.305 2.582 236.271 2.786 236.237 2.956H241.949C243.309 2.956 243.989 4.146 243.989 5.302C243.989 6.492 243.309 7.648 241.949 7.648H234.027C233.687 8.226 233.313 8.77 232.939 9.314C233.007 9.28 233.075 9.28 233.177 9.28H240.827C242.051 9.28 242.663 10.402 242.663 11.524C242.663 12.646 242.051 13.768 240.827 13.768ZM235.897 23.798V23.016H220.597V23.798C220.597 24.036 220.665 24.07 220.835 24.07H235.625C235.829 24.07 235.897 24.036 235.897 23.798ZM235.897 19.31V18.562C235.897 18.324 235.863 18.29 235.625 18.29H220.835C220.631 18.29 220.597 18.324 220.597 18.562V19.31H235.897ZM235.897 21.622V20.67H220.597V21.622H235.897ZM224.609 8.43V7.75C224.609 7.546 224.575 7.512 224.405 7.512H218.557V8.634H224.405C224.575 8.634 224.609 8.6 224.609 8.43ZM237.767 26.688H234.231V27.47C234.231 27.708 234.333 27.912 234.741 27.912H238.243C238.991 27.912 239.263 27.504 239.365 26.45C238.923 26.62 238.379 26.688 237.767 26.688ZM221.515 5.744V4.452H218.761C218.625 4.452 218.557 4.486 218.557 4.656V5.744H221.515ZM221.515 11.694V10.402H218.557V11.388C218.557 11.558 218.591 11.694 218.761 11.694H221.515Z" fill="#0D0D0D"/>
</svg>
