<svg width="201" height="171" viewBox="0 0 201 171" fill="none" xmlns="http://www.w3.org/2000/svg">
<path d="M1.8272 96.6046L1.74756 93.1267L22.6414 80.932L22.6237 67.2506C22.1901 69.0294 20.5883 66.9408 19.5618 65.6134C14.8272 65.0913 13.1281 63.5603 11.9954 60.6399C4.99535 56.2948 7.79182 45.6753 12.2432 44.0293C7.57058 41.0116 11.9954 33.2417 14.3405 33.162C12.4998 27.7195 20.6768 24.1266 20.6768 24.1266C20.6768 24.1266 17.2166 16.7549 23.7122 15.3744C24.8449 13.2593 26.3759 11.6045 28.4025 11.5691C27.6591 6.30356 33.8804 0.85222 38.0308 0.825672C40.9866 0.807972 41.8273 3.09116 41.8273 3.09116C41.8273 3.09116 47.0751 4.94957 48.6238 8.16197C51.0397 8.19737 53.9512 11.5779 53.9512 11.5779L61.8362 0.834521L97.0752 21.9585L111.571 28.4098H128.013L182.996 57.2594L179.482 59.5161L176.261 59.1267L175.695 110.605C175.695 110.605 177.589 109.242 179.642 108.64C181.695 108.038 181.783 109.162 182.297 109.401C184.164 108.596 186.854 111.773 186.854 111.773C186.854 111.773 191.713 111.401 191.27 116.835C192.013 115.737 192.801 121.428 192.801 121.428L199.049 125.038L198.987 128.295L127.969 169.64L1.8272 96.6046Z" fill="white"/>
<path d="M159.642 70.1798V83.1444C162.544 76.6134 168.288 75.1178 168.288 75.1178L168.757 64.7107L159.642 70.1886V70.1798Z" fill="#E7F294"/>
<path d="M31.3669 98.5338L30.9775 70.8701L73.075 93.817C73.075 93.817 72.6325 100.773 72.8537 104.817C52.0041 92.0736 31.3669 98.5338 31.3669 98.5338Z" fill="#E7F294"/>
<path d="M81.6327 96.0914L80.6858 121.091C80.6858 121.091 92.0663 108.87 109.385 111.428L81.6327 96.0914Z" fill="#E7F294"/>
<path d="M55.5353 32.0558L55.084 44.047C55.084 44.047 60.7743 38.5072 73.5973 42.0382L55.5353 32.0558Z" fill="#E7F294"/>
<path d="M137.243 108.649L136.792 126.242C136.792 126.242 151.013 102.109 169.376 89.817L137.243 108.649Z" fill="#E7F294"/>
<path d="M47.1724 21.2416L61.8361 0.834511L97.0751 21.9584L91.7388 29.3478L90.1017 28.4009L80.6857 40.224L47.1724 21.2416Z" fill="#F1E85B"/>
<path d="M63.8625 61.7727L117.243 90.817L136.429 55.9231L181.022 57.0824L128.013 28.4098L90.1015 28.401L63.8625 61.7727Z" fill="#F1E85B"/>
<path d="M124.465 144.914C123.73 144.914 123.137 144.322 123.137 143.587V83.6135C123.137 82.879 123.73 82.286 124.465 82.286C125.199 82.286 125.792 82.879 125.792 83.6135V143.587C125.792 144.322 125.199 144.914 124.465 144.914Z" fill="#231815"/>
<path d="M122.42 146.676C122.199 146.676 121.969 146.622 121.757 146.499L72.3671 117.976C71.96 117.737 71.7034 117.304 71.7034 116.826V66.8789C71.7034 66.1444 72.2963 65.5515 73.0308 65.5515C73.7653 65.5515 74.3582 66.1444 74.3582 66.8789V116.065L123.084 144.198C123.721 144.56 123.934 145.375 123.571 146.012C123.323 146.437 122.88 146.676 122.42 146.676Z" fill="#231815"/>
<path d="M175.695 112.516C174.96 112.516 174.367 111.923 174.367 111.189V59.87C174.367 59.1355 174.96 58.5426 175.695 58.5426C176.429 58.5426 177.022 59.1355 177.022 59.87V111.189C177.022 111.923 176.429 112.516 175.695 112.516Z" fill="#231815"/>
<path d="M116.42 142.127C115.933 142.127 115.535 141.729 115.535 141.242V116.003L81.9511 96.5515V119.675C81.9511 120.162 81.5528 120.56 81.0661 120.56C80.5794 120.56 80.1812 120.162 80.1812 119.675V95.0205C80.1812 94.7019 80.3493 94.4099 80.6236 94.2506C80.898 94.0913 81.2343 94.0913 81.5086 94.2506L116.863 114.729C117.137 114.888 117.305 115.18 117.305 115.498V141.251C117.305 141.737 116.907 142.136 116.42 142.136V142.127Z" fill="#231815"/>
<path d="M83.5087 119.136C83.2344 119.136 82.96 119.012 82.7919 118.764C82.5087 118.366 82.5972 117.817 82.9954 117.525L89.2786 112.994C89.6769 112.711 90.2255 112.799 90.5176 113.198C90.8008 113.596 90.7123 114.144 90.314 114.437L84.0308 118.968C83.8715 119.083 83.6945 119.136 83.5175 119.136H83.5087Z" fill="#231815"/>
<path d="M86.6503 120.26C86.376 120.26 86.1016 120.136 85.9335 119.888C85.6503 119.49 85.7388 118.941 86.137 118.649L92.4202 114.118C92.8185 113.835 93.3671 113.923 93.6592 114.321C93.9424 114.72 93.8539 115.268 93.4556 115.56L87.1724 120.091C87.0131 120.206 86.8361 120.26 86.6592 120.26H86.6503Z" fill="#231815"/>
<path d="M106.35 128.932C106.075 128.932 105.801 128.808 105.633 128.56C105.35 128.162 105.438 127.614 105.836 127.322L112.119 122.791C112.518 122.507 113.066 122.596 113.358 122.994C113.642 123.392 113.553 123.941 113.155 124.233L106.872 128.764C106.712 128.879 106.535 128.932 106.358 128.932H106.35Z" fill="#231815"/>
<path d="M109.491 130.056C109.217 130.056 108.942 129.932 108.774 129.684C108.491 129.286 108.58 128.737 108.978 128.445L115.261 123.914C115.659 123.631 116.208 123.72 116.5 124.118C116.783 124.516 116.695 125.065 116.296 125.357L110.013 129.888C109.854 130.003 109.677 130.056 109.5 130.056H109.491Z" fill="#231815"/>
<path d="M98.7478 132.109C98.261 132.109 97.8628 131.711 97.8628 131.224V105.569C97.8628 105.083 98.261 104.684 98.7478 104.684C99.2345 104.684 99.6327 105.083 99.6327 105.569V131.224C99.6327 131.711 99.2345 132.109 98.7478 132.109Z" fill="#231815"/>
<path d="M55.3581 54.9939C54.8714 54.9939 54.4731 54.5957 54.4731 54.1089V31.5868C54.4731 31.2682 54.6413 30.9762 54.9156 30.8169C55.19 30.6576 55.5262 30.6576 55.8006 30.8169L78.3404 43.8788C78.7652 44.1266 78.9068 44.6665 78.659 45.0912C78.4112 45.516 77.8714 45.6576 77.4466 45.4098L56.2342 33.1178V54.1089C56.2342 54.5957 55.836 54.9939 55.3493 54.9939H55.3581Z" fill="#231815"/>
<path d="M57.7919 47.0824C57.5176 47.0824 57.2432 46.9585 57.0751 46.7107C56.7919 46.3125 56.8804 45.7638 57.2786 45.4718L63.0132 41.3302C63.4114 41.047 63.9601 41.1355 64.2521 41.5337C64.5353 41.9319 64.4468 42.4806 64.0486 42.7726L58.314 46.9142C58.1547 47.0293 57.9777 47.0824 57.8008 47.0824H57.7919Z" fill="#231815"/>
<path d="M60.6591 48.109C60.3848 48.109 60.1104 47.9851 59.9423 47.7373C59.6591 47.339 59.7476 46.7904 60.1458 46.4983L65.8803 42.3567C66.2786 42.0735 66.8272 42.162 67.1193 42.5603C67.4025 42.9585 67.314 43.5072 66.9157 43.7992L61.1812 47.9408C61.0219 48.0559 60.8449 48.109 60.6679 48.109H60.6591Z" fill="#231815"/>
<path d="M66.8715 59.693C66.3848 59.693 65.9866 59.2948 65.9866 58.8081V38.87C65.9866 38.3832 66.3848 37.985 66.8715 37.985C67.3583 37.985 67.7565 38.3832 67.7565 38.87V58.8081C67.7565 59.2948 67.3583 59.693 66.8715 59.693Z" fill="#231815"/>
<path d="M92.3052 85.233C92.1548 85.233 91.9955 85.1976 91.8627 85.1179L80.3494 78.4453C79.9247 78.1975 79.7831 77.6577 80.0309 77.2329C80.2787 76.8082 80.8185 76.6666 81.2433 76.9144L91.4291 82.817V77.3657C91.4291 76.879 91.8273 76.4807 92.3141 76.4807C92.8008 76.4807 93.199 76.879 93.199 77.3657V84.348C93.199 84.6666 93.0309 84.9586 92.7565 85.1179C92.6238 85.1976 92.4645 85.233 92.3141 85.233H92.3052Z" fill="#231815"/>
<path d="M85.4113 78.7727C85.1369 78.7727 84.8626 78.6488 84.6945 78.4011C84.4113 78.0028 84.4998 77.4542 84.898 77.1621L87.9688 74.9409C88.367 74.6577 88.9157 74.7462 89.2078 75.1444C89.4909 75.5427 89.4024 76.0913 89.0042 76.3834L85.9334 78.6046C85.7741 78.7196 85.5971 78.7727 85.4201 78.7727H85.4113Z" fill="#231815"/>
<path d="M84.1371 76.4895C83.8628 76.4895 83.5884 76.3656 83.4203 76.1179C83.1371 75.7196 83.2256 75.1709 83.6238 74.8789L85.3938 73.5957C85.792 73.3125 86.3407 73.401 86.6327 73.7993C86.9159 74.1975 86.8274 74.7462 86.4292 75.0382L84.6592 76.3214C84.5 76.4364 84.323 76.4895 84.146 76.4895H84.1371Z" fill="#231815"/>
<path d="M80.7919 78.5603C80.3052 78.5603 79.907 78.1621 79.907 77.6754V71.3037C79.907 70.817 80.3052 70.4187 80.7919 70.4187C81.2787 70.4187 81.6769 70.817 81.6769 71.3037V77.6754C81.6769 78.1621 81.2787 78.5603 80.7919 78.5603Z" fill="#231815"/>
<path d="M159.084 85.2241C158.925 85.2241 158.774 85.1798 158.633 85.1002C158.367 84.9409 158.199 84.6489 158.199 84.3391V69.8701C158.199 69.5515 158.376 69.2506 158.651 69.1001L167.766 64.0116C168.04 63.8612 168.376 63.8612 168.642 64.0205C168.907 64.1798 169.075 64.4718 169.075 64.7815V79.4099C169.075 79.7373 168.898 80.0382 168.615 80.1887L159.5 85.1179C159.367 85.1887 159.226 85.2241 159.075 85.2241H159.084ZM159.969 70.3922V82.8524L167.314 78.8789V66.286L159.969 70.3833V70.3922Z" fill="#231815"/>
<path d="M163.642 74.1886C163.474 74.1886 163.305 74.1444 163.155 74.047C162.748 73.7816 162.633 73.2329 162.898 72.8258L167.155 66.3568C167.42 65.9497 167.969 65.8346 168.385 66.1001C168.792 66.3656 168.907 66.9143 168.642 67.3214L164.385 73.7904C164.217 74.047 163.934 74.1886 163.642 74.1886Z" fill="#231815"/>
<path d="M162.677 79.7904C162.509 79.7904 162.341 79.7462 162.19 79.6489C161.783 79.3834 161.668 78.8347 161.934 78.4276L166.19 71.9586C166.456 71.5515 167.004 71.4364 167.42 71.7019C167.828 71.9674 167.943 72.5161 167.677 72.9232L163.42 79.3922C163.252 79.6488 162.969 79.7904 162.677 79.7904Z" fill="#231815"/>
<path d="M137.332 134.578C136.845 134.578 136.447 134.18 136.447 133.693V108.383C136.447 108.074 136.615 107.782 136.88 107.622L154.518 97.171C154.792 97.0117 155.128 97.0029 155.403 97.171C155.677 97.3303 155.845 97.6223 155.845 97.9409V123.454C155.845 123.941 155.447 124.339 154.96 124.339C154.473 124.339 154.075 123.941 154.075 123.454V99.4896L138.208 108.888V133.693C138.208 134.18 137.81 134.578 137.323 134.578H137.332Z" fill="#231815"/>
<path d="M142.872 113.074C142.704 113.074 142.535 113.029 142.385 112.932C141.978 112.667 141.863 112.118 142.128 111.711L146.385 105.242C146.65 104.835 147.199 104.72 147.615 104.985C148.022 105.251 148.137 105.799 147.872 106.206L143.615 112.675C143.447 112.932 143.164 113.074 142.872 113.074Z" fill="#231815"/>
<path d="M146.199 112.994C146.031 112.994 145.863 112.95 145.712 112.852C145.305 112.587 145.19 112.038 145.456 111.631L149.712 105.162C149.978 104.755 150.526 104.64 150.942 104.906C151.349 105.171 151.465 105.72 151.199 106.127L146.942 112.596C146.774 112.852 146.491 112.994 146.199 112.994Z" fill="#231815"/>
<path d="M170.146 114.95C169.659 114.95 169.261 114.552 169.261 114.065V90.2949L155.606 98.4984C155.19 98.7462 154.642 98.6135 154.394 98.1975C154.146 97.7816 154.279 97.2329 154.695 96.9852L169.686 87.9851C169.96 87.8258 170.297 87.817 170.58 87.9763C170.854 88.1356 171.031 88.4276 171.031 88.7462V114.083C171.031 114.569 170.633 114.967 170.146 114.967V114.95Z" fill="#231815"/>
<path d="M160.686 102.419C160.518 102.419 160.35 102.375 160.199 102.277C159.792 102.012 159.677 101.463 159.942 101.056L164.199 94.5869C164.465 94.1799 165.013 94.0648 165.429 94.3303C165.836 94.5958 165.951 95.1445 165.686 95.5515L161.429 102.021C161.261 102.277 160.978 102.419 160.686 102.419Z" fill="#231815"/>
<path d="M164.022 102.339C163.854 102.339 163.686 102.295 163.536 102.198C163.128 101.932 163.013 101.383 163.279 100.976L167.536 94.5073C167.801 94.1002 168.35 93.9851 168.766 94.2506C169.173 94.5161 169.288 95.0648 169.022 95.4719L164.766 101.941C164.597 102.198 164.314 102.339 164.022 102.339Z" fill="#231815"/>
<path d="M117.686 92.3568C117.376 92.3568 117.084 92.1975 116.916 91.9143C116.668 91.4896 116.818 90.9497 117.243 90.702L120.146 89.0205L136.544 57.9231C136.703 57.6311 137.004 57.4541 137.341 57.4541L179.022 58.1267L182.013 56.401C182.438 56.1532 182.978 56.3037 183.226 56.7284C183.473 57.1532 183.323 57.693 182.898 57.9408L179.695 59.7904C179.553 59.87 179.394 59.8877 179.235 59.9054L137.854 59.2329L121.588 90.0736C121.509 90.2241 121.394 90.3391 121.252 90.4276L118.128 92.2329C117.987 92.3126 117.836 92.348 117.686 92.348V92.3568Z" fill="#231815"/>
<path d="M117.279 92.3568C117.137 92.3568 117.004 92.3214 116.872 92.2595C116.438 92.0294 116.27 91.4984 116.5 91.0648L135.181 55.2594C135.341 54.9585 135.659 54.7638 135.996 54.7815L182.491 56.2859C182.978 56.3036 183.358 56.7107 183.35 57.1975C183.332 57.6753 182.942 58.0559 182.465 58.0559C182.456 58.0559 182.447 58.0559 182.438 58.0559L136.5 56.5691L118.075 91.8789C117.916 92.1798 117.606 92.3568 117.288 92.3568H117.279Z" fill="#231815"/>
<path d="M117.279 92.7993C117.058 92.7993 116.836 92.7462 116.624 92.6312L63.96 62.8789C63.6238 62.6931 63.3848 62.3656 63.314 61.9851C63.2344 61.6046 63.3317 61.2152 63.5618 60.9143L88.8185 28.2505C89.0663 27.9231 89.4557 27.7372 89.8716 27.7372L128.111 27.8346C128.323 27.8346 128.527 27.8877 128.712 27.985L183.049 55.9939C183.704 56.3302 183.96 57.1267 183.624 57.7816C183.288 58.4364 182.491 58.6931 181.836 58.3568L127.783 30.4895L90.5176 30.3921L66.5972 61.3214L117.925 90.3126C118.562 90.6754 118.792 91.4807 118.429 92.1179C118.181 92.5515 117.739 92.7905 117.27 92.7905L117.279 92.7993Z" fill="#231815"/>
<path d="M135.96 56.5514C135.81 56.5514 135.659 56.516 135.518 56.4364L89.429 29.8257C89.0042 29.5779 88.8626 29.0381 89.1016 28.6133C89.3494 28.1885 89.8892 28.047 90.314 28.2859L136.403 54.8966C136.827 55.1444 136.969 55.6842 136.73 56.109C136.562 56.3921 136.27 56.5514 135.96 56.5514Z" fill="#231815"/>
<path d="M72.6327 81.817C72.4114 81.817 72.1813 81.7639 71.9778 81.64L21.6503 52.9851C21.0131 52.6222 20.7918 51.8081 21.1547 51.1709C21.5175 50.5337 22.3317 50.3125 22.9688 50.6753L73.2964 79.3302C73.9336 79.6931 74.1548 80.5072 73.792 81.1444C73.5442 81.578 73.1017 81.817 72.6415 81.817H72.6327Z" fill="#231815"/>
<path d="M73.0307 73.0647C72.8891 73.0647 72.7387 73.0293 72.5971 72.9497L35.4023 52.2063C34.9776 51.9673 34.8183 51.4275 35.0572 51.0027C35.2961 50.578 35.836 50.4275 36.2607 50.6576L73.4555 71.401C73.8803 71.6399 74.0396 72.1798 73.8007 72.6045C73.6414 72.8966 73.3405 73.0559 73.0307 73.0559V73.0647Z" fill="#231815"/>
<path d="M35.3758 51.9497C35.0749 51.9497 34.7828 51.7992 34.6147 51.5161C34.3669 51.1001 34.5085 50.5515 34.9244 50.3037L52.3315 40.0028C52.7563 39.755 53.2961 39.8966 53.5439 40.3125C53.7917 40.7284 53.6501 41.2771 53.2342 41.5249L35.8271 51.8258C35.6855 51.9054 35.5262 51.9497 35.3758 51.9497Z" fill="#231815"/>
<path d="M22.1988 53.0647C21.7386 53.0647 21.2962 52.8258 21.0484 52.401C20.6767 51.7638 20.8979 50.9585 21.5262 50.5868L45.9245 36.4009C46.5617 36.0293 47.367 36.2505 47.7387 36.8788C48.1104 37.516 47.8891 38.3213 47.2608 38.693L22.8625 52.8789C22.6501 53.0028 22.4201 53.0558 22.1988 53.0558V53.0647Z" fill="#231815"/>
<path d="M31.3582 99.4011C31.0573 99.4011 30.7653 99.2506 30.5971 98.9675C30.3493 98.5427 30.4909 98.0029 30.9068 97.7551L52.3848 85.0382C52.6591 84.8789 53.0042 84.8701 53.2786 85.0382L73.2875 96.525C73.7122 96.7728 73.8538 97.3126 73.6149 97.7374C73.376 98.1621 72.8273 98.3037 72.4025 98.0648L52.8361 86.8347L31.8007 99.2949C31.6591 99.3745 31.4998 99.4188 31.3493 99.4188L31.3582 99.4011Z" fill="#231815"/>
<path d="M94.9336 29.9496C94.7477 29.9496 94.553 29.8877 94.3938 29.7638C94.0044 29.4629 93.9336 28.9054 94.2345 28.5249L97.3318 24.516C97.6327 24.1266 98.1902 24.0558 98.5708 24.3567C98.9601 24.6576 99.0309 25.2151 98.73 25.5957L95.6327 29.6045C95.4557 29.8258 95.1991 29.9496 94.9336 29.9496Z" fill="#231815"/>
<path d="M91.9334 29.9496C91.7476 29.9496 91.5706 29.8965 91.4113 29.7815C91.0131 29.4895 90.9334 28.9408 91.2166 28.5426L96.783 20.9408C97.075 20.5425 97.6237 20.4629 98.0219 20.7461C98.4201 21.0381 98.4998 21.5868 98.2166 21.985L92.6502 29.5868C92.4732 29.8257 92.2077 29.9496 91.9334 29.9496Z" fill="#231815"/>
<path d="M106.146 30.0381C106.004 30.0381 105.863 30.0027 105.739 29.9319L97.9336 25.8257C97.5 25.5956 97.3318 25.0647 97.5619 24.631C97.792 24.1974 98.323 24.0293 98.7566 24.2594L106.562 28.3656C106.996 28.5957 107.164 29.1266 106.934 29.5603C106.774 29.8611 106.465 30.0293 106.146 30.0293V30.0381Z" fill="#231815"/>
<path d="M111.969 30.4806C111.757 30.4806 111.544 30.4275 111.35 30.3213L96.8806 22.6222C96.2345 22.277 95.9867 21.4717 96.3319 20.8257C96.677 20.1797 97.4823 19.9319 98.1283 20.277L112.597 27.9762C113.243 28.3213 113.491 29.1266 113.146 29.7726C112.907 30.2239 112.447 30.4806 111.969 30.4806Z" fill="#231815"/>
<path d="M97.4999 22.7903C97.2786 22.7903 97.0574 22.7372 96.8539 22.6222L60.8892 2.60443C60.252 2.25044 60.0219 1.43628 60.3759 0.799112C60.7299 0.161943 61.5441 -0.0681459 62.1812 0.285837L98.1371 20.3036C98.7742 20.6576 99.0043 21.4717 98.6503 22.1089C98.4114 22.5425 97.9512 22.7903 97.491 22.7903H97.4999Z" fill="#231815"/>
<path d="M81.0307 41.7638C80.8095 41.7638 80.5883 41.7107 80.3847 41.5957L45.9599 22.4894C45.6236 22.3036 45.3847 21.9761 45.305 21.6045C45.2254 21.2328 45.305 20.8346 45.544 20.5337L60.4732 0.648668C60.9157 0.0645958 61.7475 -0.0592982 62.3316 0.383181C62.9157 0.825659 63.0396 1.65752 62.5971 2.24159L48.5882 20.9053L81.6768 39.2771C82.3139 39.631 82.5529 40.4452 82.19 41.0824C81.9511 41.516 81.4909 41.7638 81.0307 41.7638Z" fill="#231815"/>
<path d="M30.8007 99.4985C30.314 99.4985 29.9158 99.1002 29.9158 98.6135L29.8804 70.4453C29.8804 70.1267 30.0485 69.8347 30.3228 69.6754C30.5972 69.5161 30.9335 69.5161 31.2078 69.6754L73.2875 93.702C73.7123 93.9409 73.8628 94.4807 73.615 94.9055C73.376 95.3303 72.8362 95.4807 72.4114 95.233L31.6591 71.9674L31.6945 98.6046C31.6945 99.0914 31.2963 99.4896 30.8096 99.4896L30.8007 99.4985Z" fill="#231815"/>
<path d="M30.8007 99.9409C30.5795 99.9409 30.3494 99.8878 30.1459 99.7639L21.5175 94.8613C21.1016 94.6223 20.845 94.1887 20.845 93.7108V51.7727C20.845 51.0382 21.4379 50.4452 22.1724 50.4452C22.9069 50.4452 23.4998 51.0382 23.4998 51.7727V92.932L31.4556 97.4542C32.0928 97.817 32.314 98.6312 31.9512 99.2595C31.7034 99.6931 31.2609 99.9321 30.7919 99.9321L30.8007 99.9409Z" fill="#231815"/>
<path d="M65.8982 60.9497C65.7566 60.9497 65.6061 60.9143 65.4734 60.8346L52.6769 53.7196L46.3937 57.5691C45.9778 57.8258 45.4291 57.693 45.1724 57.2771C44.9158 56.8612 45.0486 56.3125 45.4645 56.0559L52.1813 51.9408C52.4556 51.7727 52.7919 51.7638 53.0751 51.9231L66.3229 59.2859C66.7477 59.5249 66.907 60.0647 66.6681 60.4895C66.5088 60.7815 66.2079 60.9408 65.8893 60.9408L65.8982 60.9497Z" fill="#231815"/>
<path d="M46.606 38.8612C45.8715 38.8612 45.2786 38.2682 45.2786 37.5337V21.3302C45.2786 20.5956 45.8715 20.0027 46.606 20.0027C47.3405 20.0027 47.9334 20.5956 47.9334 21.3302V37.5337C47.9334 38.2682 47.3405 38.8612 46.606 38.8612Z" fill="#231815"/>
<path d="M52.7829 53.5868C52.2962 53.5868 51.8979 53.1886 51.8979 52.7019V41.2151C51.8979 40.7284 52.2962 40.3302 52.7829 40.3302C53.2696 40.3302 53.6679 40.7284 53.6679 41.2151V52.7019C53.6679 53.1886 53.2696 53.5868 52.7829 53.5868Z" fill="#231815"/>
<path d="M52.7829 86.2595C52.2962 86.2595 51.8979 85.8613 51.8979 85.3745V83.6046C51.8979 83.1179 52.2962 82.7197 52.7829 82.7197C53.2696 82.7197 53.6679 83.1179 53.6679 83.6046V85.3745C53.6679 85.8613 53.2696 86.2595 52.7829 86.2595Z" fill="#231815"/>
<path d="M127.969 166.826C127.818 166.826 127.668 166.791 127.526 166.711L1.42 93.7108C0.995225 93.463 0.853632 92.9232 1.10142 92.4984C1.34921 92.0736 1.88903 91.932 2.31381 92.1798L128.42 165.171C128.845 165.419 128.987 165.959 128.739 166.384C128.571 166.667 128.279 166.826 127.969 166.826Z" fill="#231815"/>
<path d="M1.8538 97.5869C1.11929 97.5869 0.526367 96.994 0.526367 96.2595V93.4011C0.526367 92.6666 1.11929 92.0737 1.8538 92.0737C2.58832 92.0737 3.18124 92.6666 3.18124 93.4011V96.2595C3.18124 96.994 2.58832 97.5869 1.8538 97.5869Z" fill="#231815"/>
<path d="M198.58 126.118C198.359 126.118 198.128 126.065 197.916 125.941L192.819 122.994C192.182 122.622 191.969 121.817 192.332 121.18C192.704 120.543 193.509 120.33 194.146 120.693L199.243 123.64C199.881 124.012 200.093 124.817 199.73 125.454C199.482 125.879 199.04 126.118 198.58 126.118Z" fill="#231815"/>
<path d="M127.969 170.968C127.748 170.968 127.518 170.914 127.305 170.791L1.16341 97.755C0.526243 97.3834 0.313853 96.5781 0.676686 95.9409C1.04837 95.3037 1.85368 95.0913 2.49085 95.4542L128.633 168.481C129.27 168.853 129.482 169.658 129.119 170.295C128.872 170.72 128.429 170.959 127.969 170.959V170.968Z" fill="#231815"/>
<path d="M127.969 166.826C127.659 166.826 127.367 166.667 127.199 166.384C126.951 165.959 127.102 165.419 127.526 165.171L198.553 124.171C198.978 123.923 199.518 124.074 199.766 124.498C200.013 124.923 199.863 125.463 199.438 125.711L128.411 166.711C128.27 166.791 128.119 166.826 127.969 166.826Z" fill="#231815"/>
<path d="M128.004 171.003C127.544 171.003 127.102 170.764 126.854 170.339C126.491 169.702 126.703 168.897 127.341 168.525L198.279 127.569C198.916 127.206 199.721 127.419 200.093 128.056C200.456 128.693 200.243 129.498 199.606 129.87L128.668 170.826C128.456 170.95 128.234 171.003 128.004 171.003Z" fill="#231815"/>
<path d="M2.02171 94.3037C1.56153 94.3037 1.11905 94.0648 0.871266 93.64C0.508433 93.0028 0.720823 92.1975 1.35799 91.8258L21.5085 80.1975C22.1456 79.8258 22.9598 80.047 23.3226 80.6842C23.6855 81.3214 23.4731 82.1267 22.8359 82.4984L2.68543 94.1267C2.47304 94.2506 2.2518 94.3037 2.02171 94.3037Z" fill="#231815"/>
<path d="M127.969 169.596C127.482 169.596 127.084 169.198 127.084 168.711V165.941C127.084 165.454 127.482 165.056 127.969 165.056C128.456 165.056 128.854 165.454 128.854 165.941V168.711C128.854 169.198 128.456 169.596 127.969 169.596Z" fill="#231815"/>
<path d="M198.721 129.906C197.987 129.906 197.394 129.313 197.394 128.578V125.091C197.394 124.357 197.987 123.764 198.721 123.764C199.456 123.764 200.049 124.357 200.049 125.091V128.578C200.049 129.313 199.456 129.906 198.721 129.906Z" fill="#231815"/>
<path d="M126.987 160.472C126.04 160.472 125.226 159.534 124.367 158.552C124.049 158.18 123.712 157.799 123.491 157.622C122.518 156.844 123.367 155.587 124.341 154.136C124.597 153.755 124.951 153.233 125.128 152.906C124.827 152.729 124.27 152.525 123.898 152.428C123.836 152.428 123.774 152.41 123.712 152.392C123.367 152.295 123.173 152.127 123.066 151.95C119.916 149.136 122.473 145.091 123.721 143.118L123.916 142.808C124.403 142.047 125.217 140.782 125.27 140.03C125.35 138.879 126.686 138.959 127.766 139.021C127.934 139.03 128.155 139.047 128.358 139.056C128.465 137.959 128.969 137.578 129.792 137.348C129.757 136.569 130.04 135.737 130.597 135.021C131.164 134.295 132.173 134.357 133.146 134.41C133.509 134.428 134.12 134.472 134.288 134.392C135.164 133.587 136.314 133.49 137.332 133.401C138.199 133.322 138.943 133.26 139.412 132.782C139.81 132.366 139.925 131.746 140.031 131.136C140.155 130.428 140.288 129.693 140.951 129.322C141.518 129.012 142.12 129.18 142.42 129.295C142.836 129.286 144.199 129.056 144.951 128.923C145.049 128.906 145.137 128.888 145.226 128.879C144.42 127.914 143.757 127.074 144.084 126.26C144.438 125.383 145.5 125.322 146.633 125.251C146.978 125.233 147.527 125.198 147.748 125.127L147.889 124.959C148.491 124.268 148.606 124.171 149.305 123.888C149.456 123.826 149.642 123.755 149.898 123.649C150.031 123.596 150.208 123.507 150.412 123.41C151.261 123.003 151.951 122.684 152.465 122.622C153.164 122.534 153.951 122.782 154.712 123.012C155.305 123.198 156.111 123.445 156.429 123.33C156.881 123.171 156.987 122.844 157.173 121.959C157.35 121.118 157.589 119.976 158.712 119.286C159.19 118.994 159.651 118.755 160.093 118.525C160.624 118.251 161.128 117.994 161.624 117.658C162.128 117.321 162.81 117.206 163.536 117.091C163.943 117.021 164.713 116.897 164.872 116.755C165.305 116.304 165.81 115.985 166.243 115.711C166.704 115.419 167.111 115.162 167.394 114.799C167.907 114.153 168.536 113.87 169.084 113.614C169.288 113.525 169.491 113.428 169.704 113.304C170.075 113.091 170.474 112.852 170.863 112.622C172.774 111.481 173.872 110.852 174.704 110.959C175.128 110.614 175.509 110.286 175.881 109.959C177.651 108.41 179.04 107.198 182.226 108.021C182.518 108.091 182.748 108.313 182.845 108.587C182.845 108.605 182.863 108.631 182.863 108.649C184.863 108.711 186.102 109.72 187.013 110.888C188.615 110.366 189.845 111.56 190.482 112.18C190.606 112.304 190.721 112.41 190.819 112.49C192.412 113.764 192.385 114.799 192.341 116.233V116.472C192.58 116.596 192.951 116.817 193.146 117.268C193.297 117.605 193.27 118.021 193.19 118.906C193.164 119.198 193.12 119.658 193.128 119.879C193.217 120.012 193.305 120.136 193.385 120.242C193.766 120.782 194.093 121.251 193.978 121.87C193.863 122.499 193.323 122.897 192.792 123.251C192.385 123.516 191.836 123.41 191.562 123.003C191.297 122.596 191.403 122.047 191.81 121.773C191.96 121.675 192.058 121.596 192.137 121.543C192.075 121.454 192.005 121.348 191.943 121.26C191.828 121.1 191.704 120.923 191.562 120.711C191.305 120.313 191.332 119.817 191.429 118.737C191.447 118.516 191.474 118.215 191.482 118.012C191.226 117.888 190.544 117.569 190.562 116.72L190.58 116.171C190.615 114.826 190.624 114.578 189.721 113.861C189.589 113.755 189.429 113.605 189.261 113.437C188.385 112.578 187.907 112.295 187.226 112.737C186.828 112.994 186.288 112.888 186.013 112.49C184.934 110.914 183.863 110.083 181.58 110.507C181.217 110.569 180.854 110.41 180.659 110.1C180.544 109.914 180.509 109.702 180.536 109.507C179.146 109.454 178.385 110.109 177.058 111.277C176.571 111.702 176.022 112.189 175.367 112.684C175.146 112.852 174.863 112.906 174.597 112.835C174.518 112.808 174.438 112.782 174.367 112.737C173.828 112.914 172.624 113.631 171.792 114.127C171.394 114.366 170.987 114.605 170.606 114.826C170.35 114.976 170.093 115.091 169.854 115.206C169.394 115.419 169.058 115.578 168.81 115.888C168.332 116.49 167.739 116.87 167.217 117.198C166.828 117.445 166.456 117.675 166.173 117.976C165.624 118.543 164.721 118.693 163.845 118.835C163.412 118.906 162.819 119.003 162.633 119.127C162.049 119.525 161.474 119.817 160.925 120.1C160.509 120.313 160.084 120.534 159.659 120.799C159.208 121.074 159.084 121.56 158.925 122.33C158.73 123.251 158.465 124.499 157.04 125.003C156.173 125.304 155.182 125.003 154.217 124.702C153.659 124.534 153.022 124.339 152.704 124.375C152.438 124.41 151.597 124.808 151.199 125.003C150.969 125.109 150.766 125.206 150.624 125.268C150.35 125.383 150.137 125.472 149.978 125.534C149.748 125.622 149.503 125.817 149.243 126.118L149.031 126.366C148.562 126.906 147.73 126.95 146.757 127.012C146.562 127.021 146.297 127.038 146.066 127.065C146.27 127.339 146.527 127.649 146.704 127.861C147.429 128.737 147.872 129.26 147.553 129.914C147.385 130.26 147.022 130.472 146.606 130.454C146.491 130.454 145.81 130.578 145.261 130.667C142.774 131.083 142.27 131.136 141.889 130.976C141.889 130.976 141.889 130.976 141.881 130.976C141.845 131.118 141.819 131.295 141.792 131.445C141.659 132.189 141.482 133.215 140.704 134.021C139.774 134.976 138.571 135.083 137.509 135.18C136.659 135.251 135.934 135.322 135.438 135.764C134.845 136.295 133.943 136.242 133.066 136.198C132.73 136.18 132.181 136.145 131.96 136.198C131.659 136.614 131.456 137.215 131.668 137.631C131.792 137.879 131.801 138.171 131.668 138.419C131.535 138.667 131.314 138.844 131.04 138.897L130.907 138.923C130.615 138.985 130.288 139.047 130.137 139.1C130.12 139.18 130.111 139.348 130.12 139.711C130.12 140.003 130.013 140.268 129.81 140.472C129.358 140.906 128.65 140.861 127.668 140.808C127.465 140.799 127.173 140.782 126.943 140.773C126.677 141.817 125.96 142.932 125.412 143.782L125.217 144.083C123.013 147.569 122.766 149.401 124.341 150.729C125.19 150.941 126.881 151.499 126.996 152.64C127.058 153.268 126.633 153.932 125.819 155.145C125.544 155.552 125.119 156.18 124.934 156.561C125.181 156.808 125.438 157.1 125.704 157.41C126.022 157.782 126.589 158.419 126.916 158.658C127.226 158.472 127.624 158.481 127.925 158.711C128.305 159.012 128.376 159.569 128.075 159.95C127.81 160.286 127.438 160.481 127.022 160.49C127.013 160.49 126.996 160.49 126.987 160.49V160.472Z" fill="#231815"/>
<path d="M130.04 160.72C129.146 160.72 128.261 160.419 127.677 159.658C127.376 159.268 127.456 158.711 127.836 158.419C128.226 158.118 128.783 158.198 129.075 158.578C129.429 159.038 130.296 159.03 130.933 158.782C131.394 158.605 131.836 158.33 132.296 158.047C132.712 157.791 133.146 157.516 133.633 157.304C134.464 156.923 135.093 156.49 135.757 156.03C136.296 155.658 136.845 155.277 137.535 154.897C138.066 154.605 138.739 154.587 139.394 154.569C139.739 154.569 140.305 154.543 140.456 154.463C140.588 154.357 140.863 153.808 141.031 153.481C141.429 152.702 141.836 151.897 142.535 151.614C143.677 151.153 144.81 150.782 145.907 150.428C148.526 149.569 151.004 148.764 153.04 146.87C153.128 146.791 153.208 146.693 153.288 146.596C153.606 146.224 154.084 145.667 154.854 145.64C155.942 145.605 157.81 144.074 158.818 143.251C159.668 142.552 159.951 142.322 160.376 142.304C160.987 142.286 161.668 141.507 162.465 140.596C163.819 139.047 165.677 136.923 169.084 136.366C169.349 136.322 169.624 136.295 169.898 136.26C170.27 136.215 170.615 136.18 170.942 136.1C171.261 136.021 172.022 135.083 172.429 134.569C172.96 133.906 173.465 133.286 173.978 132.959C174.934 132.357 175.854 131.976 176.677 131.631C178.173 131.003 179.35 130.507 180.208 128.994C180.447 128.569 180.987 128.419 181.411 128.658C181.686 128.808 182.367 128.437 182.925 128.136C183.411 127.87 183.916 127.587 184.447 127.454L184.712 127.383C187.217 126.746 187.35 126.711 189.075 125.145C189.208 124.675 189.668 124.215 190.509 123.41C190.783 123.145 191.199 122.746 191.403 122.507C191.411 122.33 191.473 122.162 191.588 122.012C191.889 121.631 192.447 121.56 192.827 121.861C193.049 122.038 193.19 122.304 193.199 122.596C193.226 123.215 192.765 123.684 191.73 124.693C191.456 124.95 191.04 125.357 190.836 125.596C190.827 125.826 190.721 126.047 190.544 126.198C188.261 128.277 187.987 128.383 185.137 129.109L184.872 129.18C184.562 129.26 184.155 129.481 183.765 129.693C183.057 130.083 182.226 130.534 181.376 130.463C180.27 132.056 178.854 132.649 177.358 133.277C176.571 133.605 175.748 133.95 174.916 134.472C174.65 134.64 174.199 135.198 173.801 135.693C173.004 136.684 172.252 137.622 171.332 137.835C170.907 137.932 170.482 137.976 170.084 138.021C169.845 138.047 169.606 138.074 169.367 138.109C166.588 138.56 165.111 140.26 163.801 141.755C162.836 142.861 161.916 143.914 160.642 144.047C160.482 144.162 160.19 144.401 159.942 144.605C158.615 145.693 156.606 147.348 154.907 147.401C154.898 147.428 154.73 147.622 154.624 147.737C154.5 147.888 154.367 148.038 154.234 148.162C151.916 150.322 149.252 151.189 146.438 152.109C145.367 152.454 144.27 152.817 143.181 153.251C143.057 153.348 142.765 153.932 142.588 154.277C142.234 154.976 141.907 155.631 141.367 155.968C140.818 156.304 140.11 156.322 139.42 156.339C139.084 156.339 138.526 156.357 138.376 156.445C137.765 156.782 137.243 157.145 136.748 157.49C136.049 157.976 135.323 158.472 134.349 158.915C133.969 159.092 133.597 159.313 133.208 159.561C132.695 159.879 132.164 160.207 131.553 160.445C131.075 160.631 130.544 160.738 130.013 160.738L130.04 160.72Z" fill="#231815"/>
<path d="M134.447 147.171C134.04 147.171 133.642 146.985 133.376 146.631L131.712 144.375C131.279 143.782 131.403 142.95 131.987 142.516C132.58 142.083 133.403 142.207 133.845 142.791L135.509 145.047C135.942 145.64 135.819 146.472 135.234 146.906C134.996 147.083 134.721 147.162 134.447 147.162V147.171Z" fill="#231815"/>
<path d="M153.332 138.118C153.084 138.118 152.836 138.047 152.615 137.906L150.695 136.676C150.075 136.277 149.898 135.454 150.296 134.844C150.695 134.224 151.518 134.047 152.128 134.445L154.049 135.676C154.668 136.074 154.845 136.897 154.447 137.507C154.19 137.906 153.765 138.118 153.332 138.118Z" fill="#231815"/>
<path d="M174.465 126.118C174.058 126.118 173.659 125.932 173.394 125.578L172.19 123.95C171.757 123.357 171.881 122.525 172.465 122.091C173.049 121.658 173.881 121.782 174.323 122.366L175.527 123.994C175.96 124.587 175.836 125.419 175.252 125.852C175.013 126.029 174.739 126.109 174.465 126.109V126.118Z" fill="#231815"/>
<path d="M138.757 147.171C138.049 147.171 137.465 146.614 137.429 145.906L137.332 143.649C137.296 142.914 137.872 142.295 138.597 142.268C139.323 142.233 139.951 142.808 139.978 143.534L140.075 145.791C140.111 146.525 139.535 147.145 138.81 147.171C138.792 147.171 138.774 147.171 138.748 147.171H138.757Z" fill="#231815"/>
<path d="M155.544 137.693C155.403 137.693 155.252 137.667 155.102 137.622C154.411 137.383 154.049 136.622 154.288 135.932L155.226 133.26C155.465 132.569 156.226 132.198 156.916 132.445C157.606 132.684 157.969 133.445 157.73 134.136L156.792 136.808C156.597 137.357 156.084 137.693 155.535 137.693H155.544Z" fill="#231815"/>
<path d="M177.031 126.322C176.889 126.322 176.739 126.295 176.589 126.251C175.898 126.012 175.535 125.251 175.774 124.56L176.42 122.702C176.659 122.012 177.42 121.64 178.111 121.888C178.801 122.127 179.164 122.888 178.925 123.578L178.279 125.437C178.084 125.985 177.571 126.322 177.022 126.322H177.031Z" fill="#231815"/>
<path d="M184.872 119.056C184.465 119.056 184.066 118.87 183.801 118.516L182.597 116.888C182.164 116.295 182.288 115.463 182.872 115.029C183.456 114.596 184.296 114.72 184.73 115.304L185.934 116.932C186.367 117.525 186.243 118.357 185.659 118.791C185.42 118.968 185.146 119.047 184.872 119.047V119.056Z" fill="#231815"/>
<path d="M28.4645 42.2328C28.4645 42.2328 28.3848 42.2328 28.3406 42.2328C28.0131 42.1886 27.7388 41.9585 27.6326 41.6487C27.4379 41.0735 26.8804 40.6222 26.2786 40.5514C25.6769 40.4717 25.0308 40.7726 24.6946 41.277C24.4202 41.6841 23.8715 41.7903 23.4645 41.5248C23.0574 41.2505 22.9512 40.7018 23.2167 40.2947C23.9246 39.2416 25.2344 38.6399 26.4999 38.7992C27.3052 38.9054 28.0574 39.3124 28.5972 39.9054C29.4999 39.1178 30.6592 38.6045 31.9424 38.4363C33.6769 38.2151 35.3848 38.693 36.6149 39.7284C36.9866 40.047 37.0309 40.6045 36.7211 40.9762C36.4025 41.3478 35.845 41.3921 35.4733 41.0824C34.6238 40.3567 33.4202 40.0381 32.1724 40.1886C30.9247 40.3478 29.8362 40.9585 29.199 41.87C29.0308 42.1089 28.7654 42.2417 28.4733 42.2417L28.4645 42.2328Z" fill="#231815"/>
<path d="M30.2874 24.8434C30.1812 24.8434 30.0839 24.8257 29.9777 24.7903C29.5175 24.6222 29.2874 24.1089 29.4556 23.6487C30.2343 21.5602 32.0043 19.9673 33.8715 19.6841C34.8007 19.5425 35.6768 19.7372 36.3936 20.2328C37.4644 19.0204 38.7299 18.277 40.0131 18.1177C41.2255 17.9585 42.4025 18.339 43.4202 19.2062C43.7919 19.5248 43.8361 20.0824 43.5264 20.454C43.2078 20.8257 42.6503 20.87 42.2786 20.5602C41.6414 20.0116 40.9512 19.7903 40.2344 19.8788C39.199 20.0116 38.1016 20.7992 37.2078 22.0558C37.0485 22.2859 36.783 22.4186 36.5087 22.4275C36.2167 22.4275 35.96 22.3036 35.7919 22.0824C35.3759 21.5514 34.8184 21.339 34.137 21.4452C32.9069 21.631 31.6591 22.7992 31.1104 24.2771C30.9777 24.631 30.6414 24.8523 30.2786 24.8523L30.2874 24.8434Z" fill="#231815"/>
<path d="M22.0926 68.0294C22.0041 68.0294 21.9245 68.0205 21.836 67.9939C21.1723 67.7904 19.9068 67.3302 19.2608 66.5957C18.1811 66.7019 16.7475 66.3037 15.8448 65.9143C13.7209 64.9939 12.3935 63.4187 12.0838 61.5072C9.30499 61.3479 7.95985 57.6134 7.48198 56.2948C6.72976 54.2152 6.66782 51.755 7.29614 49.1709C7.57932 48.0028 8.40233 45.4983 10.3935 44.3213C9.52623 43.1266 9.15455 41.4983 9.43773 39.8523C9.48198 39.5868 9.49968 39.2594 9.52623 38.8965C9.63242 37.1532 9.82712 34.0204 13.2254 32.8257C12.42 28.7992 16.4554 25.454 19.5882 23.7903C18.6944 21.4363 18.7298 18.8788 19.7209 17.0912C20.4201 15.8345 21.5174 15.0292 22.9156 14.746C24.1015 12.4717 25.5174 11.1266 27.1546 10.7283C28.1546 7.30356 30.2342 4.2416 33.0484 2.05576C34.7564 0.728323 36.367 0.0557549 37.9599 0.00265749C39.898 -0.0592895 41.721 0.967261 42.482 2.50709C45.1989 3.2239 47.6059 5.02922 49.0573 7.4363C51.0661 7.71064 52.9688 8.84338 54.3316 10.5956C54.6325 10.985 54.5617 11.5337 54.1812 11.8345C53.8007 12.1354 53.2431 12.0646 52.9422 11.6841C51.783 10.1885 50.1458 9.26816 48.4644 9.16197C48.1635 9.14427 47.8891 8.96728 47.7475 8.70179C46.4909 6.4009 44.2166 4.69293 41.659 4.13541C41.3582 4.06461 41.1104 3.84337 41.0042 3.55134C40.6059 2.35664 39.1635 1.73717 38.0219 1.78142C36.8183 1.81682 35.544 2.36549 34.1458 3.45399C31.482 5.51594 29.5528 8.454 28.7298 11.7195C28.6413 12.0823 28.3316 12.3478 27.9599 12.3832C26.6236 12.516 25.3935 13.7018 24.3139 15.9319C24.1811 16.2062 23.9156 16.3921 23.6148 16.4275C22.5617 16.5425 21.7829 17.0558 21.2873 17.9496C20.4643 19.4363 20.5705 21.7903 21.544 23.8257C21.6501 24.0381 21.659 24.2859 21.5794 24.5071C21.4997 24.7284 21.3316 24.9142 21.1192 25.0116C20.8094 25.162 13.4554 28.6487 15.1634 33.1266C15.2519 33.3656 15.2342 33.6399 15.1103 33.8611C14.9864 34.0912 14.774 34.2505 14.5174 34.3036C11.774 34.8965 11.4466 36.7018 11.305 39.0116C11.2784 39.4275 11.2519 39.8169 11.1988 40.162C10.9776 41.4275 11.2961 43.0912 12.4908 43.9496C12.774 44.1532 12.9068 44.5072 12.836 44.8523C12.7652 45.1974 12.4908 45.4629 12.1546 45.5337C10.0749 45.9674 9.24304 48.7638 9.0395 49.6045C8.49083 51.8523 8.53508 53.9585 9.1634 55.7107C10.243 58.7107 11.4112 60.0116 12.7121 59.7019C12.9776 59.6399 13.2608 59.7019 13.4731 59.87C13.6855 60.0382 13.8094 60.3037 13.8006 60.578C13.774 61.8258 14.3227 62.8612 15.42 63.6577C16.9068 64.7285 18.774 64.9408 19.2342 64.8169C19.4997 64.6223 19.8625 64.5957 20.1634 64.755C20.4289 64.8966 20.6059 65.1621 20.6324 65.4541C20.8094 65.6311 21.3758 66.0028 22.367 66.3037C22.836 66.4453 23.1015 66.9408 22.9599 67.4099C22.8448 67.7904 22.4909 68.0382 22.1103 68.0382L22.0926 68.0294Z" fill="#231815"/>
</svg>
