<svg width="195" height="203" viewBox="0 0 195 203" fill="none" xmlns="http://www.w3.org/2000/svg">
<path d="M167.066 104.294C163.119 106.526 144.573 121.631 144.573 121.631C144.573 121.631 141.743 118.141 138.366 122.23C134.958 118.658 122.522 97.2243 117.696 95.8913C112.87 94.5582 95.6527 87.3388 95.6527 87.3388C95.6527 87.3388 92.1402 81.1979 90.9393 81.1979C89.7385 81.1979 88.2074 83.5494 88.2074 83.5494L86.8039 72.7878L97.2889 58.2142C97.2889 58.2142 103.999 60.7829 106.858 49.9164C108.382 44.12 104.637 40.8098 102.715 40.8098C103.256 37.1927 109.388 7.24425 88.2149 7.32662C88.2149 7.32662 87.2767 3.18522 75.9136 1.31298C64.5504 -0.559267 51.9864 10.7191 48.6165 22.2596C48.6165 22.2596 44.0757 28.9773 41.5839 29.4865L48.2412 32.8116L41.036 38.653L47.0178 42.9217C47.0178 42.9217 46.6951 51.8935 48.1136 54.2451C49.5321 56.5966 54.6583 58.8358 54.6583 58.8358C54.6583 58.8358 63.4546 72.1587 67.1623 73.9785L66.0965 80.4565L63.4246 81.797L60.0172 87.0243L46.7626 92.7234C46.7626 92.7234 36.758 93.8692 31.932 99.9428C27.106 106.016 24.7118 115.041 16.8687 125.016C9.02556 134.991 0.154195 147.385 2.45835 151.205C4.7625 155.024 21.3644 178.233 21.3644 178.233C21.3644 178.233 28.1193 185.07 29.7254 184.246L37.0207 189.96L50.9356 185.549L55.0036 198.273C55.0036 198.273 83.6666 206.87 108.457 195.547C108.457 195.547 115.85 148.681 113.478 131.838C113.478 131.838 132.414 150.209 144.896 149.123C144.896 149.123 153.227 145.82 156.649 143.094C156.649 143.094 178.902 122.949 181.447 119.264C183.991 115.58 170.999 102.07 167.059 104.301L167.066 104.294ZM39.1597 171.71C39.1597 171.71 35.422 153.174 30.2583 144.712C30.2583 144.712 39.9628 132.078 44.3459 131.838C44.3459 131.838 44.6011 163.06 46.7476 168.077L39.1597 171.71Z" fill="white"/>
<path d="M167.066 104.294C163.119 106.526 144.573 121.631 144.573 121.631C144.573 121.631 141.743 118.141 138.366 122.23C134.958 118.658 122.522 97.2243 117.696 95.8912C112.87 94.5582 95.6527 87.3388 95.6527 87.3388C95.6527 87.3388 95.6077 87.2564 95.5326 87.1366C94.7596 87.5935 83.1413 101.298 82.4508 99.2463C81.7603 97.1943 79.6813 91.6675 77.6248 91.7423C75.5683 91.8172 73.039 97.2917 72.0483 98.7071C71.0576 100.123 62.6891 89.7128 60.1072 86.867L60.0097 87.0168L46.7551 92.7159C46.7551 92.7159 36.7505 93.8617 31.9245 99.9353C27.0985 106.009 24.7043 115.033 16.8612 125.008C9.01806 134.984 0.154202 147.385 2.45836 151.205C4.76251 155.024 21.3644 178.233 21.3644 178.233C21.3644 178.233 28.1193 185.07 29.7254 184.246L30.6186 184.95C33.8834 180.082 36.4803 174.795 38.6343 169.328C37.441 164.048 34.2812 151.317 30.2508 144.712C30.2508 144.712 39.9553 132.078 44.3384 131.838C44.3384 131.838 44.5936 163.06 46.7401 168.077L46.545 168.175C46.6651 168.744 56.257 162.558 59.807 163.689C63.3571 164.82 69.0611 171.859 67.5225 173.919C65.9839 175.978 60.0022 164.82 53.8778 169.425C55.2212 169.643 53.8928 170.878 55.9267 170.878C57.9607 170.878 63.222 173.372 64.633 178.233C66.044 183.093 63.8899 181.64 62.8917 182.434C66.5168 192.042 59.1991 186.8 57.9607 184.351C62.8917 200.003 53.6376 193.982 53.6376 193.982L55.0111 198.266C55.0111 198.266 83.6741 206.863 108.464 195.54C108.464 195.54 115.857 148.674 113.486 131.831C113.486 131.831 132.422 150.201 144.903 149.115C144.903 149.115 153.234 145.813 156.656 143.087C156.656 143.087 178.91 122.941 181.454 119.257C183.999 115.572 171.007 102.062 167.066 104.294Z" fill="#F1E85B"/>
<path d="M88.2074 24.8658C88.2074 24.8658 83.1338 34.3693 77.2496 34.8336C71.3653 35.2979 73.1291 31.0667 73.1291 31.0667L67.1548 33.8376C67.1548 33.8376 63.3196 34.4667 64.1827 32.1451L54.0579 39.8363L53.2849 42.5398C53.2849 42.5398 43.8056 43.1763 41.0286 38.6605C41.0286 38.6605 47.9335 36.968 48.4139 32.1526C48.4139 32.1526 42.312 32.7966 41.0286 30.2354C41.0286 30.2354 47.971 26.1614 48.564 23.3905C48.564 23.3905 53.2999 2.97553 68.821 2.0394C68.821 2.0394 80.2742 -1.21081 88.2149 7.33411C88.2149 7.33411 96.4258 5.46935 100.779 15.8191C105.132 26.1689 102.783 41.6261 102.783 41.6261L100.126 42.3076C100.126 42.3076 96.5684 30.872 95.2475 28.7451C93.9265 26.6182 88.2074 24.8733 88.2074 24.8733V24.8658Z" fill="#F2C778"/>
<path d="M64.9032 81.2054C66.2692 82.5908 73.2117 89.96 76.7992 90.3719L72.8064 99.2463L59.0415 87.4587C59.0415 87.4587 63.5372 79.8199 64.9032 81.2054Z" fill="#0D0D0D"/>
<path d="M90.5342 81.2054C89.1682 82.5908 82.2258 89.96 78.6382 90.3719L82.631 99.2463L96.3959 87.4587C96.3959 87.4587 91.9002 79.8199 90.5342 81.2054Z" fill="#0D0D0D"/>
<path d="M76.9869 76.6296C70.6148 76.6296 65.361 74.6301 61.3607 70.6684C53.2924 62.6926 51.9414 48.2913 52.2266 37.6195C52.2491 36.8931 52.8571 36.3164 53.5776 36.3464C54.3056 36.3689 54.876 36.968 54.8535 37.6944C54.5833 47.8495 55.8067 61.4944 63.2145 68.8111C66.9146 72.4657 71.8907 74.2107 78.0301 73.9935C85.4454 73.7239 91.037 69.0058 94.6395 59.9591C97.7318 52.2081 98.5649 43.1988 98.7825 38.5182C98.82 37.7918 99.428 37.2451 100.156 37.2675C100.884 37.305 101.439 37.9191 101.409 38.638C101.184 43.4834 100.314 52.8221 97.0788 60.9252C93.0484 71.0279 86.6763 76.3001 78.1202 76.6071C77.7374 76.6221 77.3621 76.6296 76.9869 76.6296Z" fill="#0D0D0D"/>
<path d="M76.7468 59.4873C76.4316 59.4873 75.3283 59.4424 74.4952 58.8208C74.195 58.5961 73.3994 58.012 74.2025 51.0847C74.2475 50.6728 74.6228 50.3732 75.0356 50.4257C75.4484 50.4706 75.7411 50.8451 75.6961 51.2569C75.3959 53.8556 75.2457 56.9785 75.4784 57.6825C75.9212 57.9521 76.5667 58.0045 76.7768 57.997C77.2046 57.997 77.5349 58.3116 77.5499 58.7235C77.5649 59.1354 77.2347 59.4798 76.8219 59.4948C76.8069 59.4948 76.7843 59.4948 76.7468 59.4948V59.4873Z" fill="#0D0D0D"/>
<path d="M76.6342 65.9203C72.8965 65.9203 71.1853 64.3926 70.4122 63.112C70.1946 62.76 70.3147 62.2957 70.6674 62.086C71.0202 61.8688 71.4855 61.9886 71.6957 62.3406C72.5212 63.7036 74.225 64.4225 76.6342 64.4225C79.1785 64.4225 81.3776 62.9547 81.903 62.1384C82.1206 61.7864 82.586 61.6816 82.9387 61.9062C83.2915 62.1234 83.3966 62.5877 83.1714 62.9397C82.4058 64.1455 79.8015 65.9278 76.6342 65.9278V65.9203Z" fill="#0D0D0D"/>
<path d="M77.0245 68.2494C76.5817 68.2494 76.1839 68.227 75.8237 68.1746C75.5159 68.1296 75.2983 67.8525 75.3433 67.5455C75.3883 67.2384 75.6735 67.0213 75.9738 67.0662C76.6943 67.1635 77.7 67.1561 78.4655 66.9838C78.7733 66.9164 79.066 67.1111 79.1335 67.4107C79.2011 67.7177 79.0059 68.0098 78.7057 68.0772C78.1953 68.1895 77.6249 68.2494 77.0245 68.2494Z" fill="#0D0D0D"/>
<path d="M87.2994 39.7389C87.1417 39.7389 86.9841 39.6715 86.8716 39.5442C85.8358 38.331 83.4191 37.597 81.6028 38.4807C81.3251 38.6155 80.9873 38.5032 80.8522 38.2261C80.7171 37.949 80.8297 37.612 81.1074 37.4772C83.4191 36.3464 86.3987 37.26 87.7347 38.8252C87.9373 39.0649 87.9073 39.4169 87.6671 39.6191C87.562 39.7089 87.4345 39.7539 87.2994 39.7539V39.7389Z" fill="#0D0D0D"/>
<path d="M64.1752 39.8662C64.0476 39.8662 63.92 39.8213 63.8074 39.7314C63.5672 39.5292 63.5447 39.1772 63.7399 38.9376C65.0683 37.3724 68.0479 36.4662 70.3671 37.5896C70.6448 37.7244 70.7649 38.0614 70.6223 38.3385C70.4872 38.6156 70.1495 38.7354 69.8718 38.5931C68.0555 37.7094 65.6387 38.4433 64.603 39.6565C64.4904 39.7838 64.3328 39.8512 64.1752 39.8512V39.8662Z" fill="#0D0D0D"/>
<path d="M53.7953 59.6221C52.1591 59.6221 50.7331 59.1354 49.5247 58.1618C47.0479 56.1697 45.757 52.208 45.8846 47.0107C45.9446 44.5393 46.7177 42.7719 48.1737 41.7609C50.4329 40.1957 53.405 41.1992 53.5326 41.2442C54.118 41.4464 54.4332 42.0904 54.2231 42.6746C54.0204 43.2587 53.3825 43.5658 52.7971 43.3711C52.752 43.3561 50.7556 42.7045 49.4497 43.6182C48.6166 44.1948 48.1737 45.3556 48.1362 47.0706C48.0311 51.4891 49.0519 54.8966 50.9432 56.4243C52.1141 57.3679 53.6677 57.6151 55.5666 57.1583C56.167 57.016 56.7824 57.3829 56.925 57.9895C57.0676 58.5961 56.6999 59.2027 56.0919 59.345C55.2889 59.5398 54.5233 59.6371 53.7953 59.6371V59.6221Z" fill="#0D0D0D"/>
<path d="M100.546 59.3451C99.8408 59.3451 99.0903 59.2477 98.3022 59.0605C97.6943 58.9182 97.3265 58.3116 97.4691 57.705C97.6117 57.0984 98.2272 56.7314 98.8276 56.8737C100.651 57.3081 102.055 57.1059 103.128 56.2446C104.914 54.8067 105.838 51.4067 105.725 46.6737C105.68 44.9587 105.237 43.7979 104.404 43.2213C103.091 42.3151 101.087 42.9742 101.064 42.9816C100.479 43.1838 99.8333 42.8768 99.6307 42.2927C99.4281 41.7085 99.7358 41.0645 100.329 40.8623C100.456 40.8173 103.428 39.8138 105.688 41.379C107.151 42.39 107.917 44.1574 107.977 46.6288C108.074 50.4781 107.549 55.5781 104.547 58.0045C103.428 58.9032 102.092 59.3525 100.554 59.3525L100.546 59.3451Z" fill="#0D0D0D"/>
<path d="M75.6961 35.957C75.2382 35.957 74.8029 35.6724 74.6378 35.2156C74.4277 34.6314 74.7279 33.9874 75.3133 33.7777C81.4902 31.5534 87.7422 26.7156 87.7422 21.7579C87.7422 21.1363 88.2451 20.6345 88.868 20.6345C89.491 20.6345 89.9938 21.1363 89.9938 21.7579C89.9938 28.0261 82.7812 33.4781 76.0788 35.8896C75.9513 35.9345 75.8237 35.957 75.6961 35.957Z" fill="#0D0D0D"/>
<path d="M48.9244 43.6107C48.6767 43.6107 42.8826 43.5658 39.948 39.4019C39.7153 39.0724 39.6478 38.6605 39.7603 38.2786C39.8729 37.8966 40.1506 37.5821 40.5259 37.4323C43.3554 36.279 45.4344 35.1332 46.4852 33.4482C44.151 33.5979 41.2539 32.8565 39.1749 31.0966C38.7996 30.7821 38.6345 30.2878 38.7396 29.8085C38.8447 29.3292 39.2124 28.9548 39.6778 28.8275C42.4923 28.0786 45.8622 24.3491 47.1531 22.7015C49.765 10.3596 59.1993 3.44732 67.2 1.09578C75.2008 -1.26324 83.0664 0.24953 87.7348 5.0275C88.2376 5.54424 88.2301 6.37551 87.7122 6.87727C87.1944 7.37904 86.3613 7.37155 85.8584 6.85481C81.8731 2.77331 75.0131 1.53015 67.9506 3.60459C60.6178 5.76142 51.9641 12.127 49.6674 23.5178C49.6299 23.705 49.5474 23.8922 49.4273 24.0495C49.2772 24.2517 46.3125 28.1535 42.845 30.2579C44.7889 31.0217 46.928 31.0142 47.8211 30.475C48.2564 30.2129 48.7968 30.2279 49.2171 30.4975C49.6374 30.7746 49.8701 31.2689 49.8025 31.7631C49.3072 35.5001 46.5152 37.5746 43.2428 39.1098C45.562 40.9521 48.8794 40.9896 48.9169 40.9896C49.6374 40.9896 50.2303 41.5812 50.2228 42.3001C50.2228 43.0191 49.6374 43.6107 48.9094 43.6107H48.9244Z" fill="#0D0D0D"/>
<path d="M89.1157 83.5569C89.0106 83.5569 88.9055 83.5419 88.793 83.512C87.5996 83.16 86.1736 81.0107 86.1736 72.7953C86.1736 72.1737 86.6764 71.6719 87.2994 71.6719C87.9223 71.6719 88.4252 72.1737 88.4252 72.7953C88.4252 79.6701 89.4985 81.2503 89.6636 81.46C90.1139 81.7071 90.3391 82.2463 90.189 82.7556C90.0464 83.2424 89.596 83.5569 89.1082 83.5569H89.1157Z" fill="#0D0D0D"/>
<path d="M65.4961 82.3287C65.3535 82.3287 65.2109 82.2987 65.0758 82.2463C64.4979 82.0142 64.2202 81.3626 64.4528 80.786C64.9482 79.5503 65.5486 77.1688 65.5486 72.7877C65.5486 72.1662 66.0515 71.6644 66.6744 71.6644C67.2974 71.6644 67.8002 72.1662 67.8002 72.7877C67.8002 76.5921 67.3799 79.5653 66.5468 81.6247C66.3667 82.0591 65.9464 82.3287 65.5036 82.3287H65.4961Z" fill="#0D0D0D"/>
<path d="M67.1474 34.9609C66.652 34.9609 66.2017 34.6389 66.0666 34.1371C65.9015 33.538 66.2467 32.9239 66.8472 32.7517C68.9111 32.175 75.2757 29.2244 77.4072 25.9966C77.7525 25.4799 78.4505 25.3376 78.9684 25.6746C79.4862 26.0191 79.6288 26.7081 79.2911 27.2323C76.6042 31.3138 69.2864 34.4067 67.4551 34.916C67.35 34.9459 67.2525 34.9609 67.1474 34.9609Z" fill="#0D0D0D"/>
<path d="M97.3415 35.957C96.7186 35.957 96.2157 35.4552 96.2157 34.8336C96.2157 31.6808 93.086 27.6292 90.3465 27.2323C89.7311 27.1425 89.3033 26.5733 89.3933 25.9592C89.4834 25.3451 90.0538 24.9182 90.6692 25.0081C94.8647 25.6222 98.4673 30.9244 98.4673 34.8336C98.4673 35.4552 97.9645 35.957 97.3415 35.957Z" fill="#0D0D0D"/>
<path d="M102.708 42.1204C102.625 42.1204 102.535 42.1129 102.453 42.0979C101.74 41.9556 101.274 41.2667 101.417 40.5627C104.337 25.757 100.351 15.3848 96.0581 11.0037C94.3694 9.27375 92.5531 8.4275 91.082 8.68961C90.369 8.81693 89.686 8.33763 89.566 7.62618C89.4384 6.91472 89.9187 6.23323 90.6317 6.1134C93.0034 5.709 95.5928 6.78741 97.9345 9.1764C102.678 14.0143 107.106 25.2702 103.999 41.0719C103.879 41.6935 103.323 42.1279 102.708 42.1279V42.1204Z" fill="#0D0D0D"/>
<path d="M53.5025 40.9372C52.8796 40.9372 52.3767 40.4354 52.3767 39.8138C52.3767 39.1922 52.8796 38.6905 53.5025 38.6905C55.8067 38.6905 58.8614 36.5636 61.886 32.8491C64.5204 29.6213 66.6895 25.6372 67.1623 23.1658C67.2824 22.5592 67.8678 22.1623 68.4758 22.2746C69.0837 22.3944 69.489 22.9786 69.3689 23.5852C68.821 26.4235 66.5169 30.7147 63.6273 34.2645C61.5933 36.7583 57.5779 40.9372 53.495 40.9372H53.5025Z" fill="#0D0D0D"/>
<path d="M70.6374 52.4627H60.355C58.7489 52.4627 57.4504 51.1596 57.4504 49.5644V44.1574C57.4504 42.5548 58.7564 41.2592 60.355 41.2592H70.6374C72.2436 41.2592 73.542 42.5623 73.542 44.1574V49.5644C73.542 51.1671 72.2361 52.4627 70.6374 52.4627ZM60.355 42.757C59.582 42.757 58.9515 43.386 58.9515 44.1574V49.5644C58.9515 50.3358 59.582 50.9649 60.355 50.9649H70.6374C71.4105 50.9649 72.0409 50.3358 72.0409 49.5644V44.1574C72.0409 43.386 71.4105 42.757 70.6374 42.757H60.355Z" fill="#0D0D0D"/>
<path d="M91.0371 52.4627H80.7547C79.1485 52.4627 77.8501 51.1596 77.8501 49.5644V44.1574C77.8501 42.5548 79.156 41.2592 80.7547 41.2592H91.0371C92.6432 41.2592 93.9416 42.5623 93.9416 44.1574V49.5644C93.9416 51.1671 92.6357 52.4627 91.0371 52.4627ZM80.7547 42.757C79.9816 42.757 79.3512 43.386 79.3512 44.1574V49.5644C79.3512 50.3358 79.9816 50.9649 80.7547 50.9649H91.0371C91.8101 50.9649 92.4406 50.3358 92.4406 49.5644V44.1574C92.4406 43.386 91.8101 42.757 91.0371 42.757H80.7547Z" fill="#0D0D0D"/>
<path d="M78.3453 45.7301H72.7913C72.3785 45.7301 72.0408 45.3931 72.0408 44.9812C72.0408 44.5693 72.3785 44.2323 72.7913 44.2323H78.3453C78.7581 44.2323 79.0958 44.5693 79.0958 44.9812C79.0958 45.3931 78.7581 45.7301 78.3453 45.7301Z" fill="#0D0D0D"/>
<path d="M57.8783 44.5843C57.8107 44.5843 57.7432 44.5768 57.6756 44.5543L51.2135 42.727C50.8157 42.6147 50.583 42.2028 50.6956 41.7984C50.8082 41.4015 51.221 41.1693 51.6188 41.2816L58.0809 43.109C58.4787 43.2213 58.7114 43.6332 58.5988 44.0376C58.5087 44.3671 58.201 44.5843 57.8783 44.5843Z" fill="#0D0D0D"/>
<path d="M93.5137 44.1948C93.1985 44.1948 92.8983 43.9926 92.8007 43.6706C92.6731 43.2737 92.8983 42.8543 93.2885 42.7345L99.1127 40.9072C99.503 40.7874 99.9308 41.0045 100.051 41.394C100.178 41.7909 99.9533 42.2103 99.5631 42.3301L93.7389 44.1574C93.6638 44.1799 93.5888 44.1948 93.5137 44.1948Z" fill="#0D0D0D"/>
<path d="M69.0537 46.8609C69.8122 46.8609 70.4271 46.2473 70.4271 45.4904C70.4271 44.7335 69.8122 44.12 69.0537 44.12C68.2951 44.12 67.6802 44.7335 67.6802 45.4904C67.6802 46.2473 68.2951 46.8609 69.0537 46.8609Z" fill="#0D0D0D"/>
<path d="M83.6518 46.8609C84.4104 46.8609 85.0253 46.2473 85.0253 45.4904C85.0253 44.7335 84.4104 44.12 83.6518 44.12C82.8933 44.12 82.2783 44.7335 82.2783 45.4904C82.2783 46.2473 82.8933 46.8609 83.6518 46.8609Z" fill="#0D0D0D"/>
<path d="M72.8065 100.377C72.5813 100.377 72.3562 100.31 72.161 100.175C68.8512 97.8833 58.1185 90.0948 58.929 86.1856C58.9516 86.0732 58.9966 85.9609 59.0491 85.8635C61.6085 81.3327 63.74 79.4305 65.3762 80.1944C66.0216 80.4939 66.5545 81.1679 67.3726 82.179C69.1664 84.4107 72.1685 88.1552 77.8051 89.0913C78.1954 89.1587 78.5256 89.4208 78.6682 89.7878C78.8108 90.1547 78.7508 90.5741 78.5106 90.8886C75.5084 94.7455 74.6904 95.8988 73.9023 99.4935C73.8197 99.8604 73.5645 100.16 73.2118 100.302C73.0767 100.355 72.9416 100.377 72.799 100.377H72.8065ZM61.1206 86.7697C61.1431 88.2975 66.0367 93.0005 72.1085 97.3816C72.814 94.9102 73.7447 93.4124 75.651 90.9111C70.2997 89.4133 67.3051 85.6838 65.6163 83.5869C65.2486 83.1301 64.8058 82.5759 64.5431 82.3287C63.8451 82.7257 62.314 84.7027 61.1206 86.7697Z" fill="#0D0D0D"/>
<path d="M82.4508 100.377C82.3082 100.377 82.1731 100.355 82.038 100.302C81.6852 100.167 81.43 99.8604 81.3475 99.4935C80.5594 95.9063 79.7413 94.7455 76.7392 90.8886C76.499 90.5741 76.4314 90.1622 76.5815 89.7878C76.7242 89.4208 77.0544 89.1512 77.4447 89.0913C83.0812 88.1552 86.0834 84.4107 87.8772 82.179C88.6952 81.1679 89.2281 80.4939 89.8736 80.1944C91.5098 79.4305 93.6413 81.3327 96.2006 85.8635C96.2607 85.9609 96.2982 86.0732 96.3207 86.1856C97.1313 90.0948 86.3986 97.8833 83.0887 100.175C82.9011 100.31 82.6759 100.377 82.4433 100.377H82.4508ZM79.5987 90.9111C81.5051 93.4124 82.4357 94.9102 83.1413 97.3816C89.2131 93.0005 94.0991 88.2975 94.1291 86.7697C92.9358 84.7027 91.4047 82.7182 90.7067 82.3287C90.444 82.5759 90.0012 83.1226 89.6334 83.5869C87.9447 85.6838 84.9501 89.4208 79.5987 90.9186V90.9111Z" fill="#0D0D0D"/>
<path d="M30.0783 185.677C27.5565 185.677 23.2409 183.505 14.8123 172.309C8.63538 164.108 2.93128 154.59 1.32513 151.871C-1.85715 146.472 4.67253 138.264 12.238 128.753C17.7169 121.87 23.376 114.748 25.9953 108.068C31.4367 94.1763 38.777 92.993 43.1602 92.2965C44.0008 92.1617 44.7288 92.0419 45.2692 91.8622C48.9018 90.6564 59.3568 85.8785 59.4618 85.8335C60.1223 85.534 60.9029 85.8186 61.2031 86.4776C61.5033 87.1366 61.2181 87.9155 60.5576 88.215C60.1223 88.4172 49.87 93.0978 46.1023 94.3485C45.3592 94.5956 44.4961 94.7379 43.5805 94.8802C39.4975 95.5318 33.3356 96.5203 28.4421 109.019C25.6801 116.067 19.8935 123.346 14.2944 130.378C7.91486 138.391 1.32513 146.681 3.59176 150.538C14.8648 169.695 25.7852 183.048 30.0783 183.048C30.2509 183.048 30.4085 183.025 30.5586 182.988C31.2566 182.793 31.9846 183.19 32.1798 183.887C32.3749 184.583 31.9771 185.31 31.2791 185.504C30.9264 185.602 30.5361 185.677 30.0783 185.677Z" fill="#0D0D0D"/>
<path d="M143.988 123.436C143.913 123.436 143.83 123.436 143.755 123.413C143.365 123.346 143.027 123.099 142.832 122.747C142.134 121.466 141.774 121.376 141.736 121.369C141.586 121.339 141.083 121.444 139.537 122.874C139.102 123.278 138.441 123.338 137.938 123.016C134.493 120.83 130.778 116.171 126.883 109.177C126.86 109.139 126.845 109.102 126.83 109.064C121.389 96.6402 115.452 95.5767 111.519 94.8728C110.664 94.723 109.861 94.5732 109.148 94.341C105.38 93.0904 95.1275 88.4023 94.6922 88.2076C94.0318 87.908 93.7466 87.1292 94.0468 86.4701C94.347 85.8111 95.1275 85.5265 95.788 85.8261C95.8931 85.871 106.348 90.649 109.981 91.8547C110.514 92.0344 111.197 92.1543 111.985 92.2966C116.188 93.0455 123.213 94.3036 129.21 107.956C133.232 115.183 136.407 118.613 138.546 120.238C139.83 119.16 140.94 118.568 142.156 118.77C143.049 118.912 143.732 119.474 144.265 120.141C150.622 114.808 164.207 104.511 167.022 102.384C167.359 102.13 167.795 102.055 168.192 102.175C171.9 103.29 183.564 115.61 182.73 119.511C182.58 120.223 181.882 120.665 181.169 120.522C180.456 120.373 180.006 119.676 180.156 118.965C180.269 116.95 171.803 106.84 168.005 104.923C163.989 107.963 150.142 118.486 144.836 123.099C144.596 123.308 144.288 123.421 143.973 123.421L143.988 123.436Z" fill="#0D0D0D"/>
<path d="M37.9815 167.359C37.5236 167.359 37.0958 167.081 36.9232 166.625L36.0676 164.296C33.4407 157.159 30.4611 149.063 27.3763 144.075C24.2841 139.073 17.0189 139.612 16.9439 139.627C16.3209 139.672 15.7805 139.222 15.728 138.601C15.6754 137.979 16.1333 137.44 16.7562 137.388C17.109 137.358 25.4775 136.736 29.2902 142.9C32.495 148.082 35.5197 156.282 38.1841 163.524L39.0397 165.846C39.2574 166.43 38.9572 167.074 38.3717 167.291C38.2441 167.336 38.109 167.359 37.9815 167.359Z" fill="#0D0D0D"/>
<path d="M25.0045 176.278C24.907 176.278 24.8094 176.255 24.7118 176.218C24.329 176.061 24.1489 175.619 24.314 175.237C26.4456 170.189 31.2865 165.232 37.2683 165.479C37.6811 165.494 38.0038 165.846 37.9813 166.258C37.9588 166.67 37.6211 167.007 37.2008 166.969C31.9395 166.737 27.6314 171.238 25.695 175.806C25.5749 176.091 25.2972 176.263 25.0045 176.263V176.278Z" fill="#0D0D0D"/>
<path d="M73.1741 193.001C67.3574 193.001 62.6966 192.664 61.1205 192.042C60.7377 191.892 60.5501 191.451 60.7002 191.069C60.8503 190.687 61.2931 190.499 61.6759 190.649C65.8188 192.297 99.7132 191.511 106.018 187.099C106.355 186.86 106.828 186.942 107.061 187.279C107.301 187.616 107.219 188.088 106.881 188.32C102.257 191.563 85.2353 192.993 73.1741 192.993V193.001Z" fill="#0D0D0D"/>
<path d="M139.492 132.587C139.079 132.587 138.741 132.25 138.741 131.838C138.741 130.385 140.46 125.226 142.531 123.645C142.862 123.391 143.335 123.458 143.582 123.788C143.837 124.117 143.77 124.589 143.44 124.836C141.863 126.034 140.242 130.663 140.242 131.838C140.242 132.25 139.905 132.587 139.492 132.587Z" fill="#0D0D0D"/>
<path d="M30.9113 185.37C30.7387 185.37 30.566 185.332 30.4084 185.25C29.853 184.973 29.6279 184.299 29.9056 183.744C31.189 181.206 35.2419 173.387 37.8763 171.013L36.8931 167.216C36.7355 166.617 37.0957 166.003 37.7037 165.846C38.3041 165.688 38.9195 166.048 39.0771 166.655L40.248 171.178C40.3831 171.702 40.1279 172.241 39.64 172.473C38.3942 173.065 34.664 179.303 31.9245 184.748C31.7294 185.137 31.3316 185.37 30.9188 185.37H30.9113Z" fill="#0D0D0D"/>
<path d="M32.0371 181.378C31.902 181.378 31.7669 181.34 31.6393 181.266L27.0235 178.412C26.6707 178.195 26.5657 177.731 26.7833 177.379C27.001 177.027 27.4663 176.922 27.8191 177.139L32.4349 179.992C32.7876 180.21 32.8927 180.674 32.675 181.026C32.5324 181.251 32.2848 181.378 32.0371 181.378Z" fill="#0D0D0D"/>
<path d="M34.1613 177.401C33.9587 177.401 33.756 177.319 33.6059 177.162L30.7389 174.046C30.4612 173.739 30.4762 173.267 30.7839 172.99C31.0916 172.713 31.5644 172.728 31.8421 173.035L34.7092 176.151C34.9869 176.458 34.9719 176.929 34.6642 177.207C34.5216 177.341 34.3339 177.401 34.1538 177.401H34.1613Z" fill="#0D0D0D"/>
<path d="M103.946 198.453C103.834 198.453 103.721 198.43 103.608 198.37C103.241 198.183 103.091 197.734 103.271 197.367C103.796 196.326 104.974 193.218 104.141 191.413C103.969 191.039 104.134 190.589 104.509 190.417C104.884 190.245 105.335 190.41 105.507 190.784C106.806 193.607 104.704 197.854 104.614 198.033C104.479 198.296 104.216 198.445 103.946 198.445V198.453Z" fill="#0D0D0D"/>
<path d="M63.83 200.842C63.5148 200.842 63.2296 200.647 63.117 200.333C63.0644 200.175 61.826 196.506 62.2013 193.405C62.2539 192.993 62.6216 192.701 63.0344 192.754C63.4472 192.806 63.7399 193.173 63.6874 193.585C63.3571 196.341 64.528 199.816 64.5355 199.853C64.6706 200.243 64.4604 200.67 64.0702 200.804C63.9876 200.834 63.905 200.842 63.83 200.842Z" fill="#0D0D0D"/>
<path d="M76.2438 200.842C75.861 200.842 75.5383 200.557 75.5007 200.168L75.0279 195.622C74.9829 195.21 75.2831 194.843 75.6959 194.798C76.1162 194.768 76.4764 195.053 76.5215 195.465L76.9943 200.01C77.0393 200.422 76.7391 200.789 76.3263 200.834C76.2963 200.834 76.2738 200.834 76.2513 200.834L76.2438 200.842Z" fill="#0D0D0D"/>
<path d="M90.992 201.111C90.6093 201.111 90.279 200.819 90.249 200.43L89.6936 194.469C89.6561 194.057 89.9563 193.69 90.3691 193.652C90.7819 193.615 91.1496 193.914 91.1872 194.326L91.7426 200.288C91.7801 200.699 91.4799 201.066 91.0671 201.104C91.0446 201.104 91.0221 201.104 90.9995 201.104L90.992 201.111Z" fill="#0D0D0D"/>
<path d="M37.1559 173.544C36.9157 173.544 36.683 173.432 36.5329 173.215L35.0544 171.043C34.8217 170.699 34.9118 170.234 35.2495 170.002C35.5948 169.77 36.0601 169.86 36.2928 170.197L37.7713 172.369C38.004 172.713 37.9139 173.177 37.5762 173.41C37.4486 173.499 37.2985 173.537 37.1559 173.537V173.544Z" fill="#0D0D0D"/>
<path d="M29.7029 147.355C29.6278 147.355 29.5528 147.355 29.4702 147.333C28.8623 147.206 28.472 146.614 28.5996 146.007C29.5228 141.581 39.1747 132.16 43.9331 130.251C44.511 130.019 45.164 130.296 45.3967 130.872C45.6293 131.449 45.3516 132.1 44.7737 132.333C39.7376 134.347 31.4066 143.611 30.8062 146.464C30.6936 146.996 30.2283 147.355 29.7029 147.355Z" fill="#0D0D0D"/>
<path d="M76.4241 202.085C65.9315 202.085 56.1595 201.044 54.1105 198.393C53.7278 197.899 53.8253 197.195 54.3132 196.82C54.8085 196.446 55.5141 196.536 55.8893 197.022C58.4787 200.377 85.7307 200.947 100.066 197.944C106.228 196.655 106.626 195.337 106.641 195.277C106.791 194.678 107.399 194.304 108.007 194.454C108.607 194.603 108.975 195.21 108.832 195.817C108.374 197.681 105.733 199.052 100.539 200.138C94.9173 201.314 85.408 202.085 76.4241 202.085Z" fill="#0D0D0D"/>
<path d="M144.333 150.426C130.666 150.426 114.769 135.358 112.412 132.056C111.992 131.464 112.135 130.648 112.72 130.228C113.313 129.809 114.131 129.944 114.551 130.535C116.57 133.374 133.082 149.138 145.962 147.715C152.964 146.936 177.919 122.844 180.306 118.613C180.659 117.984 181.462 117.759 182.092 118.111C182.723 118.463 182.948 119.264 182.595 119.893C180.209 124.132 154.825 149.363 146.247 150.314C145.609 150.381 144.971 150.419 144.318 150.419L144.333 150.426Z" fill="#0D0D0D"/>
<path d="M55.0037 199.014C54.4933 199.014 54.0055 198.715 53.7953 198.221L53.405 197.314C51.9865 194.027 50.7631 191.181 49.6748 187.534C49.4647 186.837 49.8625 186.111 50.5605 185.901C51.2585 185.692 51.9865 186.088 52.1966 186.785C53.2474 190.282 54.4408 193.061 55.8218 196.281L56.212 197.187C56.4972 197.854 56.1895 198.625 55.5215 198.91C55.3489 198.984 55.1763 199.014 55.0037 199.014Z" fill="#0D0D0D"/>
<path d="M46.6202 168.25C45.9823 168.25 45.4269 167.785 45.3218 167.141C41.374 141.664 43.2428 117.579 45.4644 107.604C45.622 106.9 46.32 106.458 47.033 106.608C47.7385 106.765 48.1888 107.462 48.0312 108.173C45.8547 117.954 44.0309 141.626 47.9187 166.744C48.0312 167.463 47.5359 168.13 46.8229 168.242C46.7553 168.25 46.6878 168.257 46.6202 168.257V168.25Z" fill="#0D0D0D"/>
<path d="M107.737 196.858C107.601 196.858 107.466 196.835 107.331 196.79C106.641 196.566 106.265 195.824 106.491 195.135C116.878 163.449 111.279 120.657 108.502 108.166C108.344 107.462 108.795 106.758 109.5 106.6C110.206 106.443 110.911 106.885 111.069 107.597C113.891 120.268 119.565 163.704 108.99 195.951C108.81 196.506 108.292 196.858 107.744 196.858H107.737Z" fill="#0D0D0D"/>
<path d="M66.6294 175.566C65.2184 175.566 63.9425 174.196 62.4789 172.616C61.4732 171.53 60.43 170.407 59.4468 169.845C58.3134 169.193 54.8009 169.665 52.7745 171.463C52.3091 171.874 51.5961 171.829 51.1833 171.365C50.7705 170.901 50.8156 170.189 51.2809 169.778C53.7802 167.568 58.381 166.632 60.5726 167.898C61.8485 168.632 63.0118 169.882 64.1301 171.088C64.8581 171.874 66.059 173.17 66.5769 173.312C66.5844 173.297 66.5994 173.282 66.6144 173.26C67.5676 171.927 64.4904 168.856 62.2388 166.61L61.6083 165.981C59.6419 163.996 57.7355 164.603 54.8309 165.823C54.4932 165.966 54.163 166.108 53.8327 166.235C51.1458 167.299 39.1972 172.676 39.0771 172.728C38.5067 172.983 37.8462 172.728 37.5911 172.166C37.3359 171.605 37.5911 170.938 38.154 170.684C38.6493 170.459 50.2752 165.232 53.0071 164.146C53.3148 164.026 53.6301 163.891 53.9528 163.756C56.5121 162.678 60.0172 161.203 63.207 164.4L63.8299 165.022C66.9596 168.145 70.5022 171.687 68.4382 174.57C67.8828 175.342 67.2223 175.537 66.757 175.566C66.712 175.566 66.6669 175.566 66.6219 175.566H66.6294Z" fill="#0D0D0D"/>
<path d="M57.9608 195.922H57.9457C56.7224 195.922 55.6491 195.457 54.8385 194.603C53.2774 192.956 53.0372 190.26 53.0147 189.002C51.7313 188.155 50.3128 187.287 49.7349 187.04C49.5397 187.107 49.2695 187.212 48.9468 187.332C43.8882 189.234 38.3642 190.956 35.8124 189.354C32.8703 187.511 30.2659 185.182 30.1608 185.085C29.6955 184.673 29.6579 183.962 30.0782 183.497C30.491 183.033 31.2041 182.996 31.6694 183.415C31.6919 183.437 34.2437 185.714 37.0132 187.459C38.3117 188.275 42.0568 187.526 48.1587 185.235C48.7516 185.01 49.1344 184.868 49.3671 184.8C49.8249 184.673 50.3878 184.508 54.7785 187.481C55.1012 187.699 55.2888 188.073 55.2738 188.47C55.2288 189.354 55.3639 191.9 56.4822 193.068C56.8725 193.473 57.3303 193.667 57.9307 193.682C58.2009 193.061 57.8106 190.747 57.593 189.474C57.4879 188.859 57.3828 188.245 57.3003 187.661C57.0226 185.707 53.2174 182.921 50.8832 181.625C50.3428 181.326 50.1477 180.637 50.4479 180.097C50.7481 179.558 51.4386 179.363 51.979 179.663C52.6995 180.06 59.019 183.662 59.5369 187.354C59.6194 187.923 59.717 188.515 59.8221 189.107C60.2724 191.728 60.6552 193.997 59.6269 195.21C59.3417 195.547 58.8239 195.937 57.9833 195.937L57.9608 195.922Z" fill="#0D0D0D"/>
<path d="M63.995 182.891C62.2388 182.891 60.4825 180.756 58.2234 177.761C57.7806 177.169 57.3903 176.66 57.0976 176.323C56.272 175.364 52.0539 175.993 50.0275 176.66C49.4421 176.847 48.7966 176.533 48.609 175.948C48.4138 175.357 48.7291 174.728 49.322 174.533C49.3895 174.511 56.5497 172.226 58.8163 174.87C59.154 175.267 59.5593 175.799 60.0247 176.42C60.8503 177.514 62.9818 180.337 63.905 180.629C63.905 180.622 63.9125 180.614 63.92 180.599C64.1826 179.67 62.2763 174.997 59.6644 173.17C57.0901 171.373 52.174 171.74 52.1215 171.747C51.506 171.792 50.9582 171.335 50.9056 170.721C50.8531 170.1 51.3184 169.56 51.9339 169.508C52.1665 169.485 57.7055 169.066 60.9478 171.328C64.1076 173.537 66.9972 179.498 65.9239 181.61C65.406 182.629 64.618 182.846 64.1902 182.883C64.1301 182.883 64.0626 182.891 63.995 182.891Z" fill="#0D0D0D"/>
<path d="M62.967 189.526C61.9762 189.526 59.7997 188.53 55.9719 182.179C54.3958 181.955 52.6846 181.737 52.2342 181.737H52.2192C51.6789 181.835 51.1385 181.52 50.9583 180.988C50.7632 180.397 51.0784 179.768 51.6713 179.566C51.934 179.476 52.3018 179.356 56.835 180.03C57.1728 180.082 57.4655 180.277 57.6381 180.569C59.4769 183.67 61.7136 186.545 62.7268 187.167C63.1096 185.497 60.8579 181.34 59.0942 178.884C58.7339 178.382 58.8465 177.678 59.3494 177.319C59.8597 176.959 60.5577 177.072 60.918 177.574C61.8186 178.832 66.2468 185.257 64.6482 188.418C64.3029 189.099 63.71 189.496 63.012 189.518C62.997 189.518 62.982 189.518 62.967 189.518V189.526Z" fill="#0D0D0D"/>
<path d="M184.899 88.8741L191.009 85.4291C176.651 83.0027 181.094 54.7992 180.036 45.8574C178.978 36.9156 170.789 34.6389 170.789 34.6389C164.665 19.279 156.116 22.1098 151.988 18.8821C147.868 15.6618 136.79 15.8116 136.79 15.8116C114.806 17.6539 111.377 41.1693 111.241 48.3437C113.275 55.4358 118.949 57.8098 118.949 57.8098C118.949 57.8098 120.578 66.6693 122.83 73.2371C125.081 79.8049 136.977 82.0891 136.977 82.0891L136.79 88.8816C136.79 88.8816 131.821 92.1767 124.999 91.7573C118.176 91.3379 114.356 97.3291 114.356 97.3291C114.356 97.3291 101.469 131.239 101.92 131.943C101.92 131.943 106.228 131.569 116.18 149.333C127.483 169.515 111.587 198.438 111.587 198.438H180.404C173.911 189.638 170.114 171.777 170.564 165.434C182.58 161.607 180.096 149.864 183.511 130.737C186.926 111.611 180.404 96.9921 180.404 96.9921L188.832 93.7494L184.899 88.8816V88.8741ZM154.015 88.8741C149.962 85.8635 151.185 79.5503 151.185 79.5503C151.185 79.5503 157.955 71.2525 158.285 69.59L164.44 67.8001C164.44 67.8001 165.986 85.5714 169.618 88.8666C169.618 88.8666 158.068 91.8772 154.015 88.8666V88.8741Z" fill="white"/>
<path d="M176.351 92.4164C174.144 90.4767 171.292 89.6904 168.38 89.1662C165.866 89.7128 160.079 90.7763 156.259 89.8477C156.439 93.4648 143.777 103.058 140.415 105.679C132.489 94.9476 135.934 89.8626 135.724 89.4882C133.615 90.3644 128.872 91.997 125.006 91.7499C118.184 91.323 114.364 97.3216 114.364 97.3216C114.364 97.3216 101.477 131.232 101.927 131.936C101.927 131.936 106.235 131.561 116.188 149.325C127.491 169.508 111.594 198.43 111.594 198.43H180.411C173.919 189.631 170.121 171.77 170.572 165.426C182.588 161.6 180.103 149.857 183.518 130.73C186.378 114.711 182.272 101.86 180.861 98.108C179.601 95.9961 178.152 93.9891 176.358 92.4089L176.351 92.4164Z" fill="#F2C778"/>
<path d="M191.009 85.4291C176.651 83.0027 181.094 54.7992 180.036 45.8574C178.978 36.9156 170.789 34.6389 170.789 34.6389C164.665 19.279 156.116 22.1098 151.988 18.8821C147.868 15.6618 136.79 15.8116 136.79 15.8116C114.807 17.6539 111.377 41.1693 111.241 48.3437C113.275 55.4358 118.949 57.8098 118.949 57.8098C118.949 57.8098 118.949 57.8248 118.949 57.8472C118.244 56.9186 117.501 51.2495 117.501 51.2495C117.501 51.2495 129.329 36.5486 149.039 44.3671L153.279 38.4433L153.647 48.2089L159.283 50.905C159.283 50.905 159.486 53.0468 159.801 56.1847C162.751 51.3843 165.716 53.4512 167.217 56.2146C168.718 58.9781 164.417 67.8076 164.417 67.8076C164.417 67.8076 165.963 85.5789 169.596 88.8741C169.596 88.8741 177.071 94.4683 181.522 96.5503L188.817 93.7419L184.884 88.8741L190.994 85.4291H191.009Z" fill="#0D0D0D"/>
<path d="M139.965 83.3996H139.852C130.996 83.3622 120.196 79.7001 119.032 62.5054L119.002 62.0411C118.905 60.8054 117.313 55.0464 116.263 51.6314C116.053 50.9424 116.443 50.2085 117.133 49.9913C117.831 49.7816 118.559 50.171 118.777 50.86C119.302 52.575 121.471 59.9292 121.629 61.8314L121.667 62.3257C122.492 74.5177 128.617 80.7186 139.882 80.771H139.987C151.876 80.771 156.026 71.6569 157.024 68.8635C157.25 68.2345 157.918 67.8675 158.563 68.0248C160.012 68.3693 161.393 67.6952 162.301 67.0662C164.597 65.486 166.451 62.4455 166.819 59.6671C167.134 57.2706 165.596 55.1138 164.012 54.6719C162.076 54.1327 160.8 56.2746 160.207 57.6001C159.914 58.2591 159.133 58.5587 158.473 58.2666C157.813 57.9746 157.512 57.1957 157.805 56.5367C160.132 51.3169 163.682 51.8636 164.717 52.1481C167.765 53.0019 169.874 56.5292 169.416 60.0116C168.958 63.5239 166.691 67.2309 163.787 69.2305C162.248 70.2939 160.65 70.8032 159.111 70.7358C156.499 77.0415 150.255 83.3996 139.98 83.3996H139.965Z" fill="#0D0D0D"/>
<path d="M159.906 56.7464C159.261 56.7464 158.698 56.2671 158.608 55.6081L158.045 51.4292L153.639 49.6244C153.182 49.4371 152.874 49.0103 152.829 48.5235L152.266 41.8957C151.523 42.8993 150.735 44.0376 150.202 45.0111C149.857 45.6327 149.084 45.8724 148.453 45.5429C145.226 43.8878 135.641 43.1314 127.986 45.7301C125.104 46.7037 121.314 48.6059 119.67 52.0882C119.362 52.7473 118.574 53.0244 117.921 52.7173C117.268 52.4103 116.983 51.6239 117.291 50.9724C118.904 47.5574 122.312 44.8913 127.138 43.2512C134.29 40.8248 143.755 41.0045 148.506 42.727C149.999 40.353 152.176 37.7468 152.281 37.6195C152.619 37.2076 153.174 37.0504 153.684 37.2076C154.195 37.3649 154.555 37.8142 154.6 38.346L155.373 47.5125L159.734 49.3023C160.169 49.4821 160.477 49.879 160.537 50.3433L161.197 55.2785C161.295 55.9975 160.792 56.6565 160.071 56.7539C160.011 56.7614 159.951 56.7688 159.899 56.7688L159.906 56.7464Z" fill="#0D0D0D"/>
<path d="M117.726 58.3789C117.471 58.3789 117.216 58.3041 116.991 58.1468C116.886 58.0719 106.588 50.8151 111.572 35.4103C114.304 26.9702 121.839 19.3689 130.763 16.0587C138.509 13.183 146.389 13.7896 152.941 17.7662C153.564 18.1407 153.76 18.9495 153.384 19.5636C153.009 20.1852 152.198 20.3799 151.583 20.0054C145.736 16.4557 138.666 15.9239 131.686 18.5151C123.483 21.5557 116.57 28.5054 114.079 36.2116C109.718 49.6917 118.124 55.7279 118.484 55.9825C119.077 56.3944 119.227 57.2107 118.814 57.8023C118.559 58.1693 118.147 58.3715 117.734 58.3715L117.726 58.3789Z" fill="#0D0D0D"/>
<path d="M168.155 58.379C167.967 58.379 167.779 58.3415 167.592 58.2517C166.939 57.9446 166.654 57.1583 166.969 56.5067C174.429 40.7499 168.785 31.0292 166.008 27.5768C162.248 22.9037 157.692 21.4134 155.043 22.02C154.33 22.1773 153.632 21.7354 153.474 21.0314C153.317 20.3275 153.759 19.6235 154.465 19.4662C158.713 18.5077 164.177 21.1063 168.065 25.9442C171.149 29.7786 177.446 40.5402 169.348 57.6301C169.123 58.1019 168.65 58.379 168.162 58.379H168.155Z" fill="#0D0D0D"/>
<path d="M182.378 97.8159C181.387 97.8159 180.464 97.5538 179.721 96.8873C179.18 96.4005 179.135 95.5767 179.623 95.0375C180.111 94.4983 180.937 94.4534 181.477 94.9402C182.273 95.6591 184.539 94.8653 186.641 93.712C184.809 92.2816 183.488 89.7653 183.136 89.0538C182.888 88.5521 182.986 87.9604 183.376 87.5635C183.766 87.1666 184.359 87.0543 184.869 87.2939C186.1 87.8631 187.879 87.2714 189.433 86.4402C187.766 86.0133 186.333 85.2344 185.132 84.0961C180.314 79.5204 180.231 70.0768 180.148 60.9402C180.111 56.5217 180.073 52.3503 179.526 48.8305C178.377 41.4015 175.938 38.7429 174.587 37.8217C173.596 37.1402 172.838 37.1178 172.598 37.1253C172.215 37.3349 171.735 37.3424 171.33 37.1103C170.699 36.7508 170.474 35.957 170.834 35.3279C171.412 34.3169 172.921 34.4667 173.544 34.5865C175.533 34.9535 180.351 37.0279 182.122 48.4336C182.693 52.1332 182.738 56.4019 182.775 60.9177C182.85 69.5076 182.933 78.3895 186.948 82.2014C188.464 83.6393 190.483 84.2983 193.133 84.186C193.688 84.156 194.199 84.493 194.409 85.0173C194.611 85.534 194.469 86.1256 194.041 86.4926C193.568 86.897 190.228 89.6754 186.828 90.0948C187.751 91.3529 188.75 92.2516 189.328 92.0869C189.943 91.9146 190.588 92.1992 190.866 92.7684C191.144 93.3375 190.979 94.0265 190.461 94.401C189.508 95.0974 185.575 97.8234 182.37 97.8234L182.378 97.8159Z" fill="#0D0D0D"/>
<path d="M169.1 89.0239C168.785 89.0239 168.478 88.9115 168.222 88.6869C165.993 86.6948 164.642 82.516 164.199 76.2627C163.884 71.7768 164.154 67.875 164.169 67.7102C164.222 66.9913 164.852 66.4521 165.573 66.497C166.293 66.5495 166.841 67.1785 166.789 67.8975C166.489 72.0763 166.481 83.6168 169.971 86.7322C170.511 87.2115 170.556 88.0428 170.076 88.582C169.813 88.8741 169.461 89.0164 169.1 89.0164V89.0239Z" fill="#0D0D0D"/>
<path d="M134.2 94.356C133.72 94.356 133.255 94.0939 133.022 93.6296C132.699 92.978 132.962 92.1917 133.607 91.8697C137.48 89.9375 135.296 82.3362 135.274 82.2613C135.064 81.5723 135.454 80.8384 136.152 80.6287C136.842 80.419 137.578 80.8084 137.788 81.4974C137.908 81.8943 140.7 91.2631 134.786 94.2137C134.598 94.3036 134.396 94.3485 134.2 94.3485V94.356Z" fill="#0D0D0D"/>
<path d="M157.445 93.0605C157.362 93.0605 157.279 93.053 157.189 93.038C154.645 92.5437 152.716 91.2931 151.448 89.3309C148.798 85.2345 150.104 79.4979 150.164 79.2583C150.33 78.5543 151.035 78.1125 151.741 78.2847C152.446 78.4495 152.881 79.1534 152.716 79.8574C152.701 79.9323 151.613 84.7776 153.654 87.923C154.533 89.2785 155.853 90.1098 157.692 90.4693C158.405 90.6116 158.871 91.3005 158.728 92.0045C158.608 92.6261 158.053 93.0605 157.437 93.0605H157.445Z" fill="#0D0D0D"/>
<path d="M140.415 106.99C140.04 106.99 139.672 106.833 139.417 106.533C135.679 102.167 133.06 93.7869 132.947 93.4349C132.737 92.7459 133.12 92.012 133.818 91.7948C134.516 91.5776 135.244 91.967 135.461 92.6635C135.484 92.7384 137.683 99.7631 140.708 103.927C145.909 100.34 156.462 90.8811 156.574 90.7838C157.115 90.3045 157.948 90.3419 158.428 90.8811C158.916 91.4203 158.871 92.2516 158.33 92.7309C157.828 93.1803 146.007 103.77 141.113 106.803C140.895 106.938 140.663 106.997 140.423 106.997L140.415 106.99Z" fill="#0D0D0D"/>
<path d="M140.528 111.199C140.197 111.199 139.867 111.071 139.619 110.832C139.207 110.435 129.442 100.961 129.442 91.7498C129.442 91.0234 130.028 90.4393 130.756 90.4393C131.484 90.4393 132.069 91.0234 132.069 91.7498C132.069 98.4675 138.464 105.822 140.693 108.173C144.31 105.612 157.7 95.8763 161.64 89.6754C162.031 89.0613 162.841 88.8816 163.449 89.271C164.064 89.6604 164.245 90.4692 163.854 91.0833C159.028 98.6846 141.999 110.472 141.278 110.967C141.053 111.124 140.79 111.199 140.535 111.199H140.528Z" fill="#0D0D0D"/>
<path d="M119.738 157.773C119.025 157.773 118.439 157.204 118.424 156.492C118.424 156.335 118.086 140.496 116.225 131.157C114.274 121.384 119.813 103.538 120.053 102.781C120.27 102.092 121.006 101.703 121.696 101.92C122.387 102.137 122.777 102.871 122.56 103.56C122.507 103.74 116.983 121.519 118.799 130.64C120.706 140.204 121.036 155.773 121.051 156.432C121.066 157.159 120.488 157.758 119.768 157.773H119.738Z" fill="#0D0D0D"/>
<path d="M111.489 198.123C111.159 198.123 110.829 198.003 110.574 197.756C110.048 197.255 110.041 196.423 110.544 195.907C110.604 195.839 117.163 188.695 117.163 169.396C117.163 168.669 117.749 168.085 118.477 168.085C119.205 168.085 119.79 168.669 119.79 169.396C119.79 189.893 112.735 197.419 112.435 197.726C112.18 197.996 111.834 198.123 111.489 198.123Z" fill="#0D0D0D"/>
<path d="M177.822 194.162C177.477 194.162 177.139 194.027 176.884 193.765C176.583 193.45 169.528 185.924 169.528 165.434C169.528 164.707 170.114 164.123 170.842 164.123C171.57 164.123 172.155 164.707 172.155 165.434C172.155 184.733 178.715 191.885 178.782 191.952C179.278 192.477 179.263 193.308 178.737 193.802C178.482 194.049 178.152 194.169 177.829 194.169L177.822 194.162Z" fill="#0D0D0D"/>
<path d="M102.753 132.041C102.625 132.041 102.498 132.026 102.37 131.981C101.68 131.771 101.289 131.037 101.5 130.341C101.792 129.404 108.63 107.23 112.607 98.4075C116.773 89.1736 122.717 89.9899 125.577 90.3794L126.042 90.4393C127.753 90.6565 133.42 88.8366 136.587 87.6384C137.263 87.3838 138.021 87.7283 138.276 88.4023C138.531 89.0763 138.186 89.8327 137.51 90.0873C136.039 90.6415 128.549 93.3824 125.712 93.0305L125.209 92.9631C122.477 92.5886 118.357 92.0194 114.994 99.471C111.076 108.143 104.066 130.872 103.999 131.097C103.826 131.659 103.308 132.026 102.745 132.026L102.753 132.041Z" fill="#0D0D0D"/>
<path d="M182.588 136.399C182.588 136.399 182.535 136.399 182.505 136.399C181.785 136.354 181.229 135.733 181.274 135.014C181.379 133.329 181.522 131.471 181.672 129.502C182.49 118.987 183.616 104.593 179.458 97.7485C174.887 90.2296 166.376 91.293 163.584 91.6375C160.68 92.012 153.549 89.8551 152.746 89.608C152.056 89.3983 151.666 88.6644 151.876 87.9679C152.086 87.2789 152.821 86.8895 153.519 87.0992C156.349 87.9679 161.475 89.256 163.209 89.0463C171.885 87.9604 178.092 90.4393 181.71 96.393C186.303 103.957 185.192 118.238 184.299 129.711C184.149 131.659 184.006 133.501 183.901 135.178C183.856 135.875 183.278 136.407 182.588 136.407V136.399Z" fill="#0D0D0D"/>
<path d="M166.151 118.725C166.151 118.725 166.076 118.725 166.038 118.718C165.625 118.658 165.348 118.276 165.408 117.864C167.157 106.308 172.756 98.0481 172.996 97.7036C173.228 97.3591 173.694 97.2767 174.039 97.5088C174.384 97.741 174.467 98.2053 174.234 98.5498C174.174 98.6322 168.59 106.893 166.894 118.089C166.834 118.463 166.519 118.725 166.151 118.725Z" fill="#0D0D0D"/>
<path d="M138.629 72.99C137.368 72.99 135.987 72.5556 134.658 71.3499C134.351 71.0728 134.328 70.601 134.613 70.2939C134.891 69.9869 135.371 69.9644 135.672 70.249C138.674 72.975 141.653 70.3913 141.781 70.279C142.089 70.0019 142.562 70.0318 142.839 70.3389C143.117 70.6459 143.087 71.1177 142.787 71.3948C141.961 72.1362 140.423 72.9975 138.636 72.9975L138.629 72.99Z" fill="#0D0D0D"/>
<path d="M126.853 53.4512C126.733 53.4512 126.613 53.4213 126.507 53.3689C126.14 53.1741 125.997 52.7248 126.192 52.3578C127.431 49.9988 129.877 50.1636 129.982 50.1711C130.395 50.201 130.703 50.568 130.673 50.9799C130.643 51.3918 130.283 51.6988 129.87 51.6689C129.795 51.6689 128.294 51.594 127.528 53.0618C127.393 53.3164 127.13 53.4662 126.86 53.4662L126.853 53.4512Z" fill="#0D0D0D"/>
<path d="M146.839 51.594C146.622 51.594 146.412 51.5041 146.262 51.3244C145.196 50.0437 143.74 50.4332 143.68 50.4481C143.282 50.5605 142.869 50.3283 142.757 49.9314C142.644 49.5345 142.869 49.1226 143.259 49.0103C143.357 48.9803 145.714 48.3138 147.417 50.3658C147.68 50.6878 147.635 51.1596 147.32 51.4217C147.177 51.5415 147.012 51.594 146.839 51.594Z" fill="#0D0D0D"/>
<path d="M155.801 32.894C155.726 32.894 155.651 32.8865 155.576 32.8565C155.178 32.7292 154.96 32.3098 155.088 31.9129C156.154 28.5803 153.91 26.7455 153.812 26.6706C153.489 26.416 153.437 25.9442 153.692 25.6222C153.947 25.3001 154.413 25.2402 154.743 25.4949C154.87 25.5922 157.91 28.0261 156.522 32.3697C156.416 32.6918 156.124 32.894 155.809 32.894H155.801Z" fill="white"/>
<path d="M160.912 34.1372C160.83 34.1372 160.755 34.1222 160.672 34.0997C160.282 33.9649 160.072 33.538 160.207 33.1486C160.852 31.2464 159.328 29.2169 159.313 29.2019C159.066 28.8724 159.126 28.4081 159.449 28.1535C159.779 27.9063 160.244 27.9587 160.499 28.2883C160.582 28.3931 162.533 30.9618 161.625 33.6354C161.52 33.9499 161.227 34.1446 160.912 34.1446V34.1372Z" fill="white"/>
<path d="M137.24 66.0626C136.797 66.0626 136.407 65.8679 136.129 65.5234C135.259 64.4151 135.844 61.7041 136.047 60.8952C136.144 60.4908 136.55 60.2512 136.955 60.3485C137.36 60.4459 137.6 60.8578 137.503 61.2547C137.158 62.6327 137.06 64.1979 137.285 64.5648C137.668 64.6173 137.976 64.9468 137.961 65.3287C137.946 65.7331 137.638 66.0551 137.233 66.0551L137.24 66.0626Z" fill="#0D0D0D"/>
<path d="M130.44 56.8587C131.236 56.8587 131.881 56.2149 131.881 55.4208C131.881 54.6267 131.236 53.9829 130.44 53.9829C129.644 53.9829 128.999 54.6267 128.999 55.4208C128.999 56.2149 129.644 56.8587 130.44 56.8587Z" fill="#0D0D0D"/>
<path d="M144.28 56.2146C145.076 56.2146 145.721 55.5709 145.721 54.7768C145.721 53.9826 145.076 53.3389 144.28 53.3389C143.484 53.3389 142.839 53.9826 142.839 54.7768C142.839 55.5709 143.484 56.2146 144.28 56.2146Z" fill="#0D0D0D"/>
<path d="M115.009 150.111C115.009 150.111 114.934 150.111 114.897 150.104C114.484 150.044 114.206 149.662 114.266 149.25C115.902 138.466 105.913 134.212 105.485 134.033C105.102 133.875 104.922 133.434 105.079 133.052C105.237 132.67 105.672 132.49 106.055 132.647C106.168 132.692 117.561 137.515 115.745 149.475C115.685 149.849 115.369 150.111 115.002 150.111H115.009Z" fill="#0D0D0D"/>
<path d="M104.494 70.1217C104.494 70.1217 98.3698 67.6653 92.2605 70.6384C86.1436 73.6116 81.4002 78.6666 83.5242 91.8322C83.5242 91.8322 77.5799 101.381 87.5246 101.778C87.5246 101.778 91.0371 107.027 94.2494 107.671C94.2494 107.671 87.7647 135.59 90.7819 140.96C93.7991 146.33 88.8005 158.552 127.904 161.158L132.76 164.82L137.36 167.748C137.36 167.748 141.841 167.299 144.265 164.423C147.793 160.237 145.879 158.042 141.721 157.997C141.721 157.997 141.751 149.145 138.576 146.831C135.394 144.517 130.268 142.75 130.268 142.75C130.268 142.75 129.194 132.011 125.397 125.143C125.397 125.143 133.788 125.315 134.703 119.669C135.619 114.022 136.415 111.738 136.415 111.738C136.415 111.738 140.753 107.537 135.409 104.249C133 102.766 131.356 105.095 130.253 105.41C128.902 105.792 128.286 104.399 127.266 104.93C125.404 105.904 126.545 110.967 126.545 110.967C126.545 110.967 117.959 105.073 112.33 105.245C115.362 103.058 118.297 99.6432 116.69 96.438C118.935 95.4195 121.396 95.8463 120.909 90.267C120.421 84.6877 116.841 84.3807 116.841 84.3807C116.841 84.3807 116.751 69.6049 104.509 70.1217H104.494Z" fill="white"/>
<path d="M86.7966 91.3904C86.9767 88.552 89.6861 85.2494 92.2605 83.9912C92.7558 85.6388 95.7355 86.8745 97.822 84.3732C97.7694 84.3133 101.147 86.4177 102.761 84.4331C102.806 84.2159 105.432 79.9547 105.432 79.9547C105.432 79.9547 111.362 80.3741 113.666 86.6274C114.461 86.4177 116.833 84.4106 116.916 84.3882C116.863 84.3807 116.826 84.3732 116.826 84.3732C116.826 84.3732 116.736 69.5974 104.494 70.1142C104.494 70.1142 98.3699 67.6578 92.2605 70.6309C86.1436 73.604 81.4002 78.6591 83.5242 91.8247C83.5242 91.8247 86.7816 91.6674 86.7966 91.3904Z" fill="#F2C778"/>
<path d="M141.714 157.997C141.714 157.997 141.744 149.145 138.569 146.831C135.386 144.517 130.26 142.75 130.26 142.75C130.26 142.75 129.187 132.011 125.389 125.143C125.389 125.143 133.78 125.315 134.696 119.669C135.604 114.022 136.407 111.738 136.407 111.738C136.407 111.738 140.745 107.537 135.401 104.249C132.992 102.766 131.349 105.095 130.245 105.41C128.894 105.792 128.279 104.399 127.258 104.93C125.397 105.904 126.538 110.967 126.538 110.967C126.538 110.967 117.951 105.073 112.322 105.245C112.39 105.193 112.458 105.14 112.525 105.095C109.861 105.485 107.391 106.653 106.761 109.184C106.363 110.779 104.757 111.918 103.143 111.933C99.7734 111.955 96.7187 111.131 93.8291 109.551C92.4406 115.902 88.2451 136.437 90.782 140.96C93.7991 146.329 88.8005 158.552 127.904 161.158L132.76 164.82L137.36 167.748C137.36 167.748 141.841 167.299 144.265 164.423C147.793 160.237 145.879 158.042 141.721 157.997H141.714Z" fill="#F1E85B"/>
<path d="M100.336 110.547C96.5836 110.547 93.9417 109.214 92.2304 107.866C88.3501 104.811 86.9091 99.9428 86.9992 98.0181C87.0817 96.1983 85.9935 92.8657 85.5732 91.7348C85.318 91.0533 85.6632 90.3044 86.3387 90.0498C87.0142 89.7952 87.7722 90.1397 88.0274 90.8137C88.2 91.278 89.7461 95.4644 89.6186 98.1454C89.5735 99.0291 90.5267 103.193 93.8516 105.814C96.6886 108.053 100.441 108.525 104.99 107.215C110.101 105.747 113.396 103.433 114.784 100.332C116.33 96.8873 114.934 93.8018 114.769 93.4573C113.336 90.4842 112.397 86.9044 112.36 86.7547C112.18 86.0582 112.6 85.3393 113.298 85.1595C114.004 84.9723 114.717 85.3992 114.897 86.0956C114.904 86.1331 115.812 89.5855 117.133 92.3265C118.162 94.4683 118.717 97.9806 117.178 101.411C115.46 105.245 111.602 108.046 105.71 109.738C103.706 110.315 101.912 110.555 100.321 110.555L100.336 110.547Z" fill="#0D0D0D"/>
<path d="M102.37 85.3168C102.152 85.3168 101.935 85.2419 101.755 85.0847C101.364 84.7477 101.319 84.156 101.657 83.7666C102.835 82.4111 103.428 79.2657 103.556 78.1649C103.616 77.6481 104.089 77.2812 104.599 77.3486C105.117 77.4085 105.485 77.8728 105.425 78.3895C105.402 78.5767 104.869 82.9353 103.083 84.9948C102.895 85.212 102.633 85.3168 102.37 85.3168Z" fill="#0D0D0D"/>
<path d="M136.4 112.667C136.212 112.667 136.017 112.607 135.852 112.487C135.431 112.187 135.334 111.596 135.641 111.176C136.339 110.218 136.572 109.109 136.332 107.978C136.009 106.466 134.868 105.013 133.285 104.107C132.955 103.912 132.857 103.867 132.084 104.773C131.589 105.357 131.026 106.016 130.155 106.219C129.397 106.398 128.819 106.136 128.556 105.5C128.481 105.5 128.376 105.492 128.226 105.5C127.993 105.515 127.851 105.597 127.723 105.792C127.333 106.406 127.401 107.739 127.866 108.885C128.061 109.364 127.836 109.911 127.356 110.105C126.875 110.3 126.327 110.075 126.132 109.596C125.539 108.151 125.307 106.106 126.132 104.796C126.575 104.092 127.28 103.68 128.114 103.635C129.014 103.582 129.63 103.777 129.997 104.241C130.215 104.077 130.433 103.815 130.65 103.567C131.273 102.834 132.444 101.463 134.215 102.489C136.249 103.657 137.728 105.567 138.163 107.597C138.524 109.259 138.178 110.884 137.158 112.285C136.977 112.539 136.685 112.674 136.4 112.674V112.667Z" fill="#0D0D0D"/>
<path d="M137.6 168.692C135.649 168.692 134.02 167.785 133 166.033C132.737 165.584 132.895 165.014 133.345 164.752C133.795 164.49 134.366 164.648 134.628 165.097C136.242 167.883 139.439 166.61 140.745 165.936C143.912 164.288 146.037 161.158 145.196 159.368C145.128 159.218 144.61 158.941 143.695 158.941C142.659 158.941 141.924 159.293 141.841 159.48C142.036 159.959 141.818 160.521 141.338 160.716C140.858 160.911 140.325 160.693 140.122 160.222C139.672 159.128 140.205 158.057 141.481 157.496C143.102 156.784 146.089 156.859 146.9 158.581C148.311 161.6 145.308 165.681 141.616 167.606C140.205 168.34 138.839 168.707 137.608 168.707L137.6 168.692Z" fill="#0D0D0D"/>
<path d="M97.8143 85.3168C97.5066 85.3168 97.1989 85.167 97.0187 84.8825C96.741 84.4481 96.8686 83.8715 97.3039 83.5869C99.0076 82.501 99.1803 81.5723 99.1803 79.5428C99.1803 79.0261 99.6006 78.6067 100.118 78.6067C100.636 78.6067 101.057 79.0261 101.057 79.5428C101.057 81.7446 100.854 83.5494 98.3172 85.167C98.1595 85.2644 97.9869 85.3168 97.8143 85.3168Z" fill="#0D0D0D"/>
<path d="M92.253 84.9274C91.9002 84.9274 91.5625 84.7252 91.4049 84.3882C91.1872 83.9164 91.3899 83.3622 91.8552 83.145C94.2344 82.0366 96.1108 78.2847 96.1258 78.2472C96.3509 77.7829 96.9138 77.5957 97.3792 77.8203C97.8445 78.045 98.0396 78.6067 97.807 79.071C97.7169 79.2507 95.6304 83.4446 92.6508 84.8375C92.5232 84.8974 92.3881 84.9274 92.253 84.9274Z" fill="#0D0D0D"/>
<path d="M111.977 84.9423C111.549 84.9423 111.159 84.6428 111.061 84.2084C110.656 82.3961 107.999 80.6961 106.476 80.4714C105.965 80.3965 105.605 79.9247 105.68 79.408C105.755 78.8913 106.228 78.5393 106.746 78.6142C108.9 78.9287 112.277 81.0481 112.893 83.7965C113.005 84.2983 112.69 84.8001 112.18 84.9124C112.112 84.9274 112.045 84.9349 111.977 84.9349V84.9423Z" fill="#0D0D0D"/>
<path d="M87.517 89.6754C87.0292 89.6754 86.6164 89.2935 86.5789 88.7992C86.4813 87.2789 88.1175 84.0811 89.536 83.512C90.0163 83.3248 90.5642 83.5569 90.7519 84.0362C90.947 84.5155 90.7068 85.0622 90.2265 85.2494C89.6486 85.534 88.3877 87.8032 88.4402 88.6794C88.4702 89.1961 88.0799 89.638 87.5621 89.6754C87.5396 89.6754 87.517 89.6754 87.502 89.6754H87.517Z" fill="#0D0D0D"/>
<path d="M86.2334 103.388C85.4154 103.388 84.5823 103.156 83.8092 102.691C81.7152 101.433 80.5068 98.8569 80.5068 95.6217C80.5068 93.5397 81.1298 92.1168 82.3532 91.3829C84.237 90.2521 86.5862 91.4203 86.8414 91.5626C87.4793 91.8996 87.727 92.6935 87.3893 93.3375C87.0515 93.9741 86.2635 94.2212 85.618 93.8842C85.2202 93.682 84.192 93.3375 83.7041 93.6371C83.3439 93.8543 83.1337 94.5882 83.1337 95.6292C83.1337 97.8833 83.8918 99.6882 85.1602 100.452C85.7681 100.819 86.3986 100.879 86.9014 100.609C87.5394 100.272 88.335 100.519 88.6727 101.156C89.0104 101.793 88.7628 102.586 88.1248 102.923C87.5394 103.23 86.8864 103.388 86.2259 103.388H86.2334Z" fill="#0D0D0D"/>
<path d="M117.471 96.7225C117.336 96.7225 117.208 96.7225 117.073 96.7001C116.353 96.6252 115.827 95.9886 115.895 95.2622C115.97 94.5432 116.6 94.019 117.336 94.0864C117.899 94.1388 118.462 93.8468 118.889 93.2851C119.775 92.1018 119.805 90.1472 118.95 88.0578C118.552 87.0917 118.086 86.4926 117.666 86.4252C117.103 86.3278 116.278 87.0393 115.985 87.3763C115.512 87.923 114.686 87.9904 114.139 87.5261C113.591 87.0618 113.516 86.238 113.981 85.6838C114.169 85.4591 115.902 83.4895 118.079 83.834C119.49 84.0587 120.601 85.1446 121.389 87.0767C122.605 90.0723 122.462 92.9106 120.991 94.8653C120.105 96.0485 118.807 96.7225 117.471 96.7225Z" fill="#0D0D0D"/>
<path d="M83.6518 93.5172C83.1189 93.5172 82.6161 93.1877 82.4209 92.656C79.6514 85.0847 81.145 77.8803 86.5189 72.8851C91.4349 68.3243 98.7001 66.482 103.428 68.6089C104.089 68.9085 104.382 69.6798 104.089 70.3389C103.789 70.9979 103.016 71.2975 102.355 70.9979C98.6626 69.3428 92.3655 71.0503 88.3126 74.8023C85.6257 77.2961 81.6178 82.808 84.8902 91.7498C85.1379 92.4313 84.7851 93.1802 84.1096 93.4274C83.9595 93.4798 83.8094 93.5098 83.6593 93.5098L83.6518 93.5172Z" fill="#0D0D0D"/>
<path d="M116.818 85.6913C116.142 85.6913 115.565 85.1745 115.512 84.4855C114.499 72.0988 106.701 72.0838 106.633 72.0988C105.935 72.0838 105.312 71.5371 105.297 70.8107C105.282 70.0842 105.86 69.4926 106.588 69.4776C106.686 69.4926 116.923 69.4701 118.131 84.2684C118.191 84.9873 117.651 85.6239 116.931 85.6838C116.893 85.6838 116.855 85.6838 116.825 85.6838L116.818 85.6913Z" fill="#0D0D0D"/>
<path d="M126.635 126.012C122.147 126.012 115.82 125.203 110.093 121.541C106.558 119.279 104.682 116.711 104.532 113.91C104.322 110.135 107.384 107.447 107.782 107.117C108.405 106.556 114.934 101.141 125.367 109.596C126.275 108.068 128.234 107.162 130.493 107.304C133.555 107.477 136.084 109.334 136.933 112.03C138.486 116.958 133.975 124.125 133.458 124.926C133.27 125.218 132.97 125.428 132.624 125.495C132.407 125.54 130.05 126.012 126.643 126.012H126.635ZM114.229 107.544C111.287 107.544 109.665 108.952 109.538 109.072C109.515 109.087 109.493 109.109 109.47 109.132C109.448 109.147 107.009 111.176 107.159 113.782C107.271 115.692 108.735 117.557 111.512 119.332C119.52 124.454 129.187 123.383 131.544 123.016C132.887 120.785 135.356 115.767 134.418 112.816C133.788 110.809 131.821 110 130.335 109.918C129.007 109.836 127.889 110.3 127.551 111.049C127.498 111.161 127.438 111.266 127.363 111.356C127.693 111.671 128.031 111.993 128.369 112.33C128.879 112.846 128.879 113.67 128.369 114.187C127.851 114.696 127.025 114.696 126.515 114.187C121.261 108.907 117.111 107.552 114.229 107.552V107.544Z" fill="#0D0D0D"/>
<path d="M126.08 162.536C122.327 162.536 115.152 161.719 103.001 157.548C97.7094 155.728 93.8366 152.291 91.4724 147.333C86.4588 136.781 89.2883 120.508 93.6189 108.787C93.8666 108.106 94.6247 107.761 95.3076 108.008C95.9906 108.256 96.3359 109.012 96.0882 109.693C91.9452 120.912 89.1832 136.392 93.8516 146.21C95.8931 150.508 99.263 153.489 103.856 155.069C122.282 161.397 128.632 159.72 128.692 159.705C129.382 159.51 130.11 159.9 130.32 160.581C130.53 161.263 130.155 161.989 129.465 162.206C129.36 162.236 128.346 162.536 126.072 162.536H126.08Z" fill="#0D0D0D"/>
<path d="M130.185 144.495C130.103 144.495 130.02 144.495 129.937 144.472C129.224 144.337 128.759 143.648 128.894 142.937C130.29 135.59 124.323 125.922 124.263 125.825C123.881 125.211 124.068 124.402 124.684 124.02C125.299 123.638 126.11 123.825 126.492 124.439C126.763 124.866 133.06 135.074 131.469 143.424C131.348 144.053 130.801 144.487 130.178 144.487L130.185 144.495Z" fill="#0D0D0D"/>
<path d="M134.313 166.37C133.097 166.37 132.039 165.966 131.288 165.172C130.785 164.648 130.808 163.816 131.333 163.322C131.859 162.828 132.692 162.843 133.187 163.367C133.675 163.876 134.846 163.869 136.092 163.329C138.051 162.491 139.972 160.491 139.867 158.274L139.837 157.713C139.634 153.489 139.447 149.505 137.33 148.097C135.491 146.876 131.866 145.416 129.915 144.629C128.376 144.008 128.181 143.926 127.926 143.671C127.416 143.162 127.408 142.33 127.926 141.821C128.376 141.372 129.067 141.319 129.577 141.649C129.772 141.739 130.373 141.986 130.913 142.203C133.09 143.079 136.737 144.555 138.794 145.918C142.021 148.059 142.239 152.688 142.471 157.593L142.501 158.155C142.674 161.719 139.844 164.588 137.135 165.741C136.152 166.16 135.199 166.37 134.32 166.37H134.313Z" fill="#0D0D0D"/>
<path d="M132.759 166.13C132.414 166.13 132.069 165.996 131.806 165.726L128.121 161.869C127.618 161.345 127.641 160.514 128.166 160.019C128.691 159.518 129.525 159.54 130.02 160.064L133.705 163.921C134.208 164.445 134.185 165.277 133.66 165.771C133.405 166.011 133.082 166.13 132.752 166.13H132.759Z" fill="#0D0D0D"/>
<path d="M102.378 113.835C94.3994 113.835 93.3261 107.874 93.3186 107.806C93.236 107.297 93.5813 106.818 94.0916 106.735C94.602 106.645 95.0824 106.997 95.1649 107.507C95.2099 107.739 96.2232 112.831 104.374 111.835C104.892 111.775 105.357 112.142 105.417 112.652C105.477 113.161 105.117 113.633 104.599 113.693C103.804 113.79 103.061 113.835 102.37 113.835H102.378Z" fill="#0D0D0D"/>
<path d="M95.7355 94.0564C96.3531 94.0564 96.8538 93.5569 96.8538 92.9406C96.8538 92.3243 96.3531 91.8247 95.7355 91.8247C95.1179 91.8247 94.6172 92.3243 94.6172 92.9406C94.6172 93.5569 95.1179 94.0564 95.7355 94.0564Z" fill="#0D0D0D"/>
<path d="M106.956 91.8247C107.574 91.8247 108.074 91.3252 108.074 90.7089C108.074 90.0926 107.574 89.593 106.956 89.593C106.338 89.593 105.838 90.0926 105.838 90.7089C105.838 91.3252 106.338 91.8247 106.956 91.8247Z" fill="#0D0D0D"/>
<path d="M102.37 104.219C102.04 104.219 101.74 104.002 101.65 103.665C101.537 103.268 101.777 102.856 102.175 102.744L105.23 101.912C105.627 101.8 106.04 102.04 106.153 102.437C106.265 102.834 106.025 103.245 105.627 103.358L102.573 104.189C102.505 104.204 102.438 104.219 102.378 104.219H102.37Z" fill="#0D0D0D"/>
<path d="M102.152 98.093C101.822 98.093 101.522 97.8758 101.432 97.5388C101.319 97.1419 101.559 96.73 101.957 96.6177L103.031 96.3256C103.428 96.2133 103.841 96.4529 103.954 96.8498C104.066 97.2468 103.826 97.6586 103.428 97.771L102.355 98.0631C102.287 98.078 102.22 98.093 102.16 98.093H102.152Z" fill="#0D0D0D"/>
<path d="M89.6335 141.349C88.26 139.417 84.1171 135.321 84.1921 131.591C84.2672 127.862 82.2407 120.298 82.2407 120.298L84.8451 115.917L90.0088 113.415L100.059 115.093C100.059 115.093 100.606 117.632 98.7526 117.834C96.8987 118.036 93.5288 115.22 91.1571 116.778C88.7854 118.336 88.7854 120.635 88.7854 120.635L98.2122 120.994L100.066 124.492L102.783 126.985L99.7433 129.846L101.927 131.936L98.2197 133.77C98.2197 133.77 89.4834 130.228 89.641 141.349H89.6335Z" fill="white"/>
<path d="M96.471 155.541C96.0882 155.541 95.7129 155.376 95.4577 155.062C95.2551 154.815 90.4667 148.921 88.125 140.93C88.0649 140.728 88.0574 140.518 88.095 140.316C88.2451 139.522 88.3501 138.781 88.4477 138.054C88.838 135.148 89.2358 132.145 93.4463 132.033C93.4613 132.033 93.4688 132.033 93.4838 132.033C94.1968 132.033 94.7748 132.595 94.7973 133.306C94.8198 134.033 94.2419 134.632 93.5214 134.647C91.6975 134.692 91.4799 135.253 91.0596 138.399C90.977 139.035 90.8795 139.747 90.7444 140.488C92.9584 147.797 97.4542 153.339 97.4992 153.392C97.957 153.953 97.8745 154.777 97.3116 155.234C97.0639 155.436 96.7712 155.533 96.4785 155.533L96.471 155.541Z" fill="#0D0D0D"/>
<path d="M93.4762 134.467C92.8608 134.467 92.3579 133.973 92.3504 133.366C92.3429 132.744 92.8383 132.235 93.4537 132.22H93.8815C95.1274 132.19 98.4673 132.138 100.081 131.876C99.1728 131.546 97.7243 131.187 96.2983 130.97C95.6828 130.88 95.2625 130.303 95.3526 129.689C95.4426 129.075 96.0206 128.655 96.636 128.745C102.588 129.652 102.926 131.119 103.038 131.606C103.136 132.026 103.136 132.827 102.107 133.531C101.087 134.22 98.4448 134.392 93.9191 134.467H93.4912C93.4912 134.467 93.4762 134.467 93.4687 134.467H93.4762Z" fill="#0D0D0D"/>
<path d="M89.3859 141.686C89.1157 141.686 88.8455 141.589 88.6278 141.394C83.9445 137.141 83.4416 131.426 83.1414 128.011C83.0513 127 82.9613 125.959 82.7886 125.608C82.2257 124.417 82.1282 123.848 81.9931 122.979C81.8805 122.26 81.7229 121.279 81.1825 119.324C80.4695 116.771 85.6332 113.895 88.7704 112.404C88.9356 112.33 89.1157 112.285 89.2958 112.3C98.4374 112.667 100.794 114 101.379 114.771C101.695 115.183 101.815 115.677 101.702 116.156C101.492 117.093 101.027 117.789 100.329 118.223C98.9177 119.092 97.0038 118.62 95.1575 118.156C93.9642 117.856 92.4781 117.489 91.8627 117.789C89.7687 118.808 89.3634 120.47 89.3483 120.537C89.2132 121.137 88.6128 121.519 88.0124 121.391C87.412 121.264 87.0217 120.68 87.1493 120.073C87.1718 119.961 87.7497 117.295 90.8794 115.767C92.2304 115.108 93.9942 115.55 95.7054 115.977C96.9738 116.291 98.5424 116.681 99.1504 116.306C99.1954 116.276 99.308 116.209 99.4056 115.999C98.1897 115.325 93.5514 114.734 89.4909 114.554C86.4438 116.029 83.5992 117.999 83.3741 118.785C83.937 120.822 84.1021 121.863 84.2222 122.627C84.3498 123.413 84.3948 123.743 84.8226 124.641C85.1678 125.368 85.2579 126.394 85.3855 127.817C85.6707 131.104 86.106 136.07 90.1439 139.732C90.6017 140.151 90.6393 140.863 90.219 141.319C89.9938 141.567 89.6936 141.686 89.3859 141.686Z" fill="#0D0D0D"/>
<path d="M90.3616 131.352C89.9038 131.352 89.4685 131.067 89.3034 130.618C89.0857 130.033 89.3859 129.389 89.9713 129.18C91.7501 128.528 93.7315 128.498 95.6379 128.468C97.7769 128.438 99.7959 128.401 100.599 127.412C100.779 127.195 100.787 127.083 100.787 127.083C100.531 126.514 96.9964 125.36 88.4778 127.06C87.8698 127.18 87.2769 126.791 87.1493 126.177C87.0217 125.563 87.4195 124.978 88.0349 124.851C95.8631 123.286 101.349 123.69 102.708 125.93C102.963 126.349 103.436 127.465 102.348 128.82C100.892 130.633 98.2348 130.67 95.6679 130.707C93.9417 130.737 92.1629 130.76 90.7369 131.284C90.6093 131.329 90.4817 131.352 90.3466 131.352H90.3616Z" fill="#0D0D0D"/>
<path d="M99.6381 125.622C99.4355 125.622 99.2328 125.57 99.0527 125.458C98.5198 125.136 98.3547 124.439 98.6849 123.915C99.1202 123.204 98.8951 122.874 98.805 122.754C98.1896 121.871 94.9472 120.605 87.1191 122.178C86.5112 122.297 85.9183 121.908 85.7907 121.294C85.6631 120.68 86.0609 120.096 86.6763 119.968C93.889 118.523 98.9851 119.07 100.651 121.466C101.387 122.522 101.372 123.84 100.599 125.091C100.389 125.435 100.013 125.622 99.6381 125.622Z" fill="#0D0D0D"/>
<path d="M120.743 156.492L111.512 151.894C111.512 151.894 104.224 145.378 102.775 147.767C101.327 150.156 105.132 152.718 105.132 152.718L107.699 154.448L101.95 156.5C101.95 156.5 94.0091 152.006 97.1088 158.739C100.209 165.471 106.611 169.044 106.611 169.044L119.933 168.767C119.933 168.767 164.042 169.044 172.838 164.363C183.443 158.716 181.364 135.141 181.364 135.141L166.173 121.032C166.173 121.032 166.946 143.723 164.867 143.289C161.055 142.488 160.327 147.782 160.327 147.782L120.736 156.515L120.743 156.492Z" fill="white"/>
<path d="M181.364 135.126L166.174 121.017C166.174 121.017 166.947 143.708 164.868 143.274C161.055 142.473 160.327 147.767 160.327 147.767L122.972 156.005C120.713 159.158 119.212 163.577 121.637 168.759C129.825 168.759 165.07 168.482 172.831 164.348C183.436 158.701 181.357 135.126 181.357 135.126H181.364Z" fill="#F2C778"/>
<path d="M134.403 170.616C130.08 170.616 125.802 170.399 121.794 169.875C121.366 169.822 120.758 169.613 120.27 168.931C118.559 166.55 119.955 158.709 120.428 156.365C120.526 155.885 120.878 155.496 121.351 155.361C122.582 155.009 149.887 147.221 159.374 146.599C159.374 145.191 160.011 143.753 161.16 142.772C161.91 142.128 162.781 141.784 163.667 141.746C162.736 134.969 164.747 122.05 164.845 121.436C164.958 120.717 165.633 120.23 166.346 120.343C167.067 120.455 167.554 121.129 167.442 121.841C166.729 126.364 165.198 139.005 166.646 143.109C166.834 143.641 166.661 144.233 166.218 144.577C165.776 144.922 165.16 144.952 164.687 144.645C164.057 144.233 163.449 144.27 162.871 144.764C162.203 145.334 161.753 146.457 162.158 147.341C162.346 147.76 162.308 148.247 162.045 148.629C161.783 149.011 161.34 149.22 160.882 149.198C154.57 148.801 127.783 156.282 122.86 157.668C122.057 162.026 121.824 166.303 122.349 167.306C142.209 169.815 169.513 164.752 173.769 162.558C174.414 162.229 175.21 162.476 175.54 163.12C175.87 163.764 175.623 164.55 174.977 164.887C171.277 166.797 152.446 170.616 134.418 170.616H134.403Z" fill="#0D0D0D"/>
<path d="M174.354 165.037C173.881 165.037 173.424 164.782 173.183 164.326C172.853 163.681 173.101 162.895 173.746 162.558C179.871 159.398 180.591 147.048 181.177 137.126L181.304 135.044C181.349 134.325 181.98 133.77 182.693 133.815C183.413 133.86 183.969 134.482 183.924 135.201L183.804 137.275C183.151 148.411 182.415 161.03 174.962 164.88C174.767 164.977 174.564 165.029 174.362 165.029L174.354 165.037Z" fill="#0D0D0D"/>
<path d="M121.554 158.589C121.374 158.589 121.194 158.544 121.021 158.454C120.556 158.207 109.56 152.291 105.89 149.797C105.38 149.445 105.245 148.748 105.597 148.239C105.95 147.73 106.648 147.595 107.158 147.947C110.731 150.374 121.974 156.425 122.087 156.485C122.635 156.777 122.837 157.458 122.545 158.005C122.342 158.379 121.952 158.596 121.554 158.596V158.589Z" fill="#0D0D0D"/>
<path d="M111.699 170.549C109.936 170.549 108.112 170.437 106.408 170.144C105.793 170.04 105.387 169.455 105.492 168.841C105.597 168.227 106.19 167.815 106.798 167.928C112.623 168.946 120.458 167.531 120.533 167.516C121.141 167.396 121.734 167.808 121.847 168.415C121.959 169.021 121.554 169.613 120.946 169.725C120.698 169.77 116.413 170.549 111.699 170.549Z" fill="#0D0D0D"/>
<path d="M108.795 155.571C108.72 155.571 108.645 155.571 108.57 155.548C108.329 155.496 106.108 154.987 102.355 152.171C100.081 150.471 100.043 148.786 100.764 147.782C101.755 146.397 104.419 146.075 107.159 147.94C107.669 148.292 107.804 148.988 107.451 149.497C107.099 150.007 106.401 150.141 105.89 149.789C104.126 148.591 102.768 148.846 102.595 149.085C102.595 149.16 102.745 149.655 103.706 150.374C107.061 152.882 109.012 153.347 109.035 153.347C109.635 153.481 110.026 154.081 109.891 154.68C109.778 155.204 109.313 155.563 108.795 155.563V155.571Z" fill="#0D0D0D"/>
<path d="M106.611 170.159C106.543 170.159 106.483 170.159 106.416 170.144C104.989 169.897 104.074 168.999 103.346 168.28C102.88 167.823 102.483 167.426 102.047 167.261C100.704 166.744 99.9909 165.179 99.4205 163.929C99.2479 163.547 99.0077 163.022 98.8876 162.888C96.0956 160.806 94.4519 156.148 95.8554 154.193C96.1481 153.789 97.2815 152.568 99.5031 154.088C102.52 156.14 107.489 153.294 107.534 153.272C108.067 152.957 108.757 153.137 109.072 153.676C109.388 154.215 109.208 154.897 108.675 155.211C108.419 155.361 102.438 158.806 98.2346 155.953C97.9419 155.751 97.7468 155.668 97.6342 155.631C97.3865 156.462 98.1371 159.533 100.299 161.15C100.794 161.517 101.094 162.176 101.469 163.015C101.807 163.756 102.37 164.992 102.85 165.179C103.721 165.509 104.359 166.138 104.914 166.692C105.53 167.299 106.063 167.815 106.798 167.943C107.414 168.048 107.819 168.632 107.714 169.246C107.616 169.792 107.144 170.174 106.603 170.174L106.611 170.159Z" fill="#0D0D0D"/>
</svg>
