<svg width="200" height="170" viewBox="0 0 200 170" fill="none" xmlns="http://www.w3.org/2000/svg">
<path d="M71.578 5.67089L13.2478 11.987C6.38374 12.7302 1.42186 18.8971 2.16511 25.7612L13.4641 130.109C14.2073 136.973 20.3743 141.935 27.2383 141.192L85.5685 134.876C92.4325 134.133 97.3944 127.966 96.6512 121.102L85.3522 16.7536C84.6089 9.88952 78.442 4.92764 71.578 5.67089Z" fill="white"/>
<path d="M25.8616 142.859C22.6646 142.859 19.5845 141.776 17.046 139.747C14.1146 137.389 12.2771 134.022 11.8629 130.284L0.583248 25.9308C0.179645 22.1922 1.25238 18.5066 3.61027 15.5752C5.96817 12.6438 9.33507 10.8063 13.0737 10.3921L71.405 4.08313C79.116 3.24406 86.1047 8.85203 86.9331 16.5842L98.2234 120.926C99.0625 128.658 93.4545 135.626 85.7223 136.465L27.4016 142.774C26.8812 142.827 26.3714 142.859 25.8616 142.859ZM72.9345 7.18451C72.5415 7.18451 72.1485 7.20575 71.7555 7.24823L13.4242 13.5678C10.5246 13.8758 7.92246 15.2991 6.09562 17.572C4.26878 19.8449 3.42971 22.6914 3.74835 25.5909L15.0386 129.933C15.3466 132.833 16.7699 135.435 19.0428 137.262C21.3157 139.088 24.1516 139.928 27.0617 139.609L85.3824 133.3C91.3621 132.652 95.7062 127.256 95.0583 121.277L83.768 16.9347C83.1626 11.348 78.4256 7.19513 72.9238 7.19513L72.9345 7.18451Z" fill="#0D0D0D"/>
<path d="M26.9448 136.338C22.6327 136.338 18.9153 133.077 18.4373 128.69L7.32759 26.0689C6.81777 21.3744 10.2272 17.1471 14.9217 16.6373L70.9482 10.5727C75.6321 10.0628 79.87 13.4722 80.3798 18.1668L91.4895 120.788C91.9993 125.483 88.5899 129.71 83.8954 130.22L27.8689 136.284C27.5609 136.316 27.2528 136.338 26.9448 136.338ZM71.8723 12.6438C71.6386 12.6438 71.4049 12.6544 71.1713 12.6863L15.1447 18.7509C11.6185 19.1333 9.05883 22.3196 9.43057 25.8459L20.5403 128.467C20.9226 131.994 24.0771 134.553 27.6352 134.181L83.6617 128.117C87.188 127.734 89.7476 124.548 89.3653 121.022L78.2556 18.4004C77.8945 15.1079 75.1011 12.6544 71.8616 12.6544L71.8723 12.6438Z" fill="#0D0D0D"/>
<path d="M87.0287 89.4453L39.8071 82.807L15.5166 95.1276L19.4889 128.584C19.4889 128.584 20.9334 135.976 28.6125 135.137C36.2915 134.309 85.7754 128.659 85.7754 128.659C85.7754 128.659 90.2894 128.234 90.3319 117.496C90.3744 106.758 87.0287 89.4453 87.0287 89.4453Z" fill="#E7F294"/>
<path d="M15.3573 86.8431C14.9643 86.8431 14.5926 86.6307 14.4014 86.2589C14.1359 85.7385 14.3483 85.1012 14.8794 84.8357L54.8361 64.8892C55.3672 64.6237 56.0044 64.8361 56.2593 65.3671C56.5249 65.8876 56.3124 66.5249 55.7814 66.7904L15.8247 86.7369C15.676 86.8112 15.506 86.8537 15.3467 86.8537L15.3573 86.8431Z" fill="#0D0D0D"/>
<path d="M60.6247 47.9909C60.6247 47.9909 60.5716 47.9909 60.5397 47.9909L43.0998 46.6527C42.6006 46.6102 42.197 46.2385 42.1333 45.7499L38.9151 23.3074C38.8726 23.0206 38.9576 22.7233 39.1381 22.4896C39.3187 22.2559 39.5948 22.1178 39.8922 22.0966L57.3003 20.8008C57.8632 20.7583 58.3624 21.1619 58.4367 21.7249L61.6974 46.8014C61.7399 47.12 61.6337 47.4386 61.4106 47.6723C61.2088 47.8847 60.9327 48.0016 60.6353 48.0016L60.6247 47.9909ZM44.1088 44.5922L59.4033 45.7711L56.44 22.9888L41.1668 24.1252L44.1088 44.5922Z" fill="#0D0D0D"/>
<path d="M76.5349 42.1599C76.5349 42.1599 76.4818 42.1599 76.45 42.1599L63.9595 41.204C63.4497 41.1615 63.0461 40.7792 62.9824 40.2694L60.6988 21.6505C60.667 21.3744 60.7413 21.0876 60.9219 20.8645C61.0918 20.6415 61.3573 20.5034 61.6335 20.4716L74.4744 18.9952C74.7612 18.9634 75.048 19.0483 75.271 19.2289C75.4941 19.4095 75.6321 19.675 75.664 19.9511L77.597 41.0129C77.6289 41.3209 77.5121 41.6289 77.2997 41.8519C77.0979 42.0537 76.8217 42.1706 76.5456 42.1706L76.5349 42.1599ZM64.9898 39.1435L75.3666 39.9401L73.646 21.215L62.9505 22.4471L64.9898 39.1435Z" fill="#0D0D0D"/>
<path d="M15.5167 95.1276L18.3207 117.496L53.158 94.554L41.7297 91.9094C41.7297 91.9094 37.0033 89.2647 41.7297 86.3333C42.6006 85.7916 44.9479 84.5808 44.9479 84.5808L38.2353 82.8177L15.5061 95.1382L15.5167 95.1276Z" fill="#0D0D0D"/>
<path d="M15.6759 88.8186C15.2829 88.8186 14.9112 88.6062 14.72 88.2344C14.4545 87.714 14.6669 87.0767 15.198 86.8112L55.1441 66.8647C55.6645 66.5992 56.3018 66.8116 56.5673 67.3427C56.8328 67.8631 56.6204 68.5004 56.0894 68.7659L16.1433 88.7124C15.9946 88.7868 15.8246 88.8292 15.6653 88.8292L15.6759 88.8186Z" fill="#0D0D0D"/>
<path d="M12.2452 62.1702C11.8416 62.1702 11.4486 61.9365 11.268 61.5329C11.0344 60.9912 11.268 60.3646 11.8097 60.1309L29.8019 52.2288C29.9931 52.1438 30.2055 52.1226 30.4073 52.1544L55.3564 56.4879C55.9299 56.5834 56.3229 57.1357 56.2167 57.7199C56.1105 58.3041 55.5688 58.6864 54.9846 58.5802L30.3542 54.2999L12.6594 62.0746C12.5213 62.1383 12.3726 62.1595 12.2345 62.1595L12.2452 62.1702Z" fill="#0D0D0D"/>
<path d="M36.7377 86.3014C36.5465 86.3014 36.3447 86.2695 36.1642 86.1952C35.5375 85.9615 35.1127 85.3561 34.9852 84.5595L33.9868 78.2506L35.5269 78.0063L35.4632 77.5708L37.5661 77.2416L38.5539 83.5505C38.7026 84.5277 38.4265 85.4092 37.7998 85.919C37.4812 86.1739 37.1094 86.3014 36.7377 86.3014Z" fill="#0D0D0D"/>
<path d="M34.401 45.2507L36.3553 56.0949L33.9125 58.4103L36.6208 59.3237L39.8072 57.4756L37.7998 44.7196L36.5571 43.8168L34.2948 29.5739L25.2031 30.8166L25.4049 33.8861L27.168 33.7586L27.0937 31.8256L33.2221 30.9228L35.5269 43.9974L34.401 45.2507Z" fill="#0D0D0D"/>
<path d="M33.5831 40.0569C33.7742 41.289 31.3314 42.7016 28.1132 43.2114C24.895 43.7212 22.1335 43.1264 21.9423 41.8944C21.7511 40.6623 23.3549 33.9073 26.5731 33.4081C29.7913 32.9089 33.3919 38.8249 33.5831 40.0675V40.0569Z" fill="#0D0D0D"/>
<path d="M88.2822 96.126C88.176 96.126 88.0698 96.1153 87.9636 96.0729L70.1944 90.4649C69.6315 90.2843 69.3235 89.6896 69.504 89.1373C69.6846 88.5743 70.2794 88.2663 70.8317 88.4469L88.6008 94.0548C89.1637 94.2354 89.4718 94.8302 89.2912 95.3825C89.1531 95.8392 88.7283 96.126 88.2822 96.126Z" fill="#0D0D0D"/>
<path d="M41.7295 86.3226L56.8116 78.6117L55.314 56.0099L58.5853 54.3742L76.0358 55.8506L78.2238 59.3237L75.4729 81.3201L65.882 96.8163L61.3999 96.8694L39.9558 90.1993L41.7295 86.3226Z" fill="#F1E85B"/>
<path d="M62.9083 98.1121C62.3454 98.1121 61.7719 98.0483 61.1665 97.9103C60.1999 97.6872 57.7783 96.9862 54.7194 96.1047C50.8215 94.9788 45.9676 93.5768 43.0255 92.8652C39.9029 92.1111 39.0745 90.6348 38.9152 89.5302C38.6603 87.6927 40.1897 85.9296 41.8254 85.0056C44.2682 83.6248 52.9032 79.5357 53.2749 79.3658C54.3795 78.7179 56.0577 77.2734 55.909 76.3387C55.7284 75.2129 55.3992 71.4849 55.0487 67.5232C54.7194 63.8801 54.3902 60.1202 54.1671 58.3465C53.9972 56.9658 54.2946 55.8187 55.0487 54.9265C56.3126 53.4396 58.32 53.3227 58.5537 53.3121C58.6068 53.3121 58.6492 53.3121 58.6917 53.3121C58.8192 53.3227 71.1291 54.491 74.3367 54.4698H74.3791C76.2378 54.4698 77.3106 55.2558 77.8948 55.9249C79.2755 57.5287 79.0949 59.7591 78.9569 60.6513C78.7232 62.1064 77.8629 69.3713 77.2256 74.6712C76.9601 76.9229 76.7264 78.8453 76.599 79.8437C76.2803 82.3928 73.5295 86.7581 70.2369 91.7925C69.4085 93.0564 68.6968 94.1398 68.2826 94.8514C67.0399 96.9862 65.1706 98.1014 62.9083 98.1014V98.1121ZM58.5749 55.4363C58.32 55.4576 57.2473 55.6063 56.6525 56.3073C56.2913 56.7321 56.1639 57.3163 56.2595 58.081C56.4825 59.8866 56.8224 63.6783 57.1517 67.332C57.4809 71.0706 57.8314 74.9474 58.0014 75.9882C58.4474 78.7285 54.6876 80.9908 54.2521 81.2351C54.0822 81.32 45.2347 85.4942 42.8662 86.843C41.7298 87.4803 40.9226 88.5318 41.0182 89.2222C41.1031 89.8488 42.0165 90.4224 43.5247 90.7835C46.5093 91.5057 51.3844 92.9183 55.3036 94.0442C58.2138 94.8832 60.731 95.6161 61.6338 95.8179C63.7793 96.3065 65.3512 95.6373 66.4452 93.768C66.8912 93.0033 67.6135 91.8987 68.4632 90.6136C70.7573 87.1192 74.2198 81.8299 74.496 79.5676C74.6234 78.5692 74.8465 76.6574 75.112 74.4057C75.7493 69.0845 76.6202 61.809 76.8539 60.3114C77.0026 59.3555 76.9388 58.0597 76.2803 57.3056C75.8555 56.8171 75.2076 56.6153 74.3473 56.5834H74.2411C70.8848 56.5834 59.7751 55.5319 58.5749 55.4257V55.4363Z" fill="#0D0D0D"/>
<path d="M44.8733 107.799C43.7687 107.799 42.919 106.97 42.8659 105.834L42.218 91.8775L44.1404 91.7925C44.3104 91.4739 44.6396 91.2508 45.022 91.2296C45.6168 91.1977 46.1054 91.6545 46.1372 92.2386C46.1585 92.7591 46.7426 104.931 46.7745 105.929C46.8064 106.949 46.0204 107.745 44.9583 107.788C44.9264 107.788 44.9052 107.788 44.8733 107.788V107.799Z" fill="#0D0D0D"/>
<path d="M66.3069 112.727C66.0733 112.727 65.8396 112.684 65.6165 112.599C64.8943 112.323 64.3951 111.643 64.257 110.741L62.1328 97.2518L64.2358 96.9225L65.9246 96.657C65.9246 96.657 67.9957 109.562 68.155 110.603C68.2612 111.261 68.0169 111.909 67.5071 112.313C67.1672 112.589 66.7424 112.727 66.3175 112.727H66.3069Z" fill="#0D0D0D"/>
<path d="M75.239 100.64C74.3362 100.64 73.4015 100.003 73.1891 98.6538C72.9873 97.3686 71.1923 90.5923 70.5232 88.0964C70.3745 87.5335 70.7037 86.9493 71.2773 86.79C71.5322 86.7262 71.7871 86.7475 72.0101 86.8537C71.9677 86.6838 71.9252 86.5138 71.8827 86.3545C71.734 85.7916 72.0845 85.2074 72.6474 85.0587C73.2103 84.91 73.7945 85.2499 73.9432 85.8235C74.2512 87.013 76.9171 97.4536 77.087 98.5051C77.2464 99.5247 76.5666 100.449 75.547 100.619C75.4514 100.629 75.3452 100.64 75.2496 100.64H75.239Z" fill="#0D0D0D"/>
<path d="M76.1843 100.619C76.1843 100.619 77.8094 96.3278 80.1779 94.9576C82.5358 93.5875 85.2442 93.3539 84.352 95.3506C83.4598 97.3474 77.8518 98.9937 76.1843 100.619Z" fill="#0D0D0D"/>
<path d="M74.4534 84.7294C74.4534 84.7294 79.3497 83.6036 82.0262 84.9206C84.7028 86.2377 86.5615 88.5531 84.2036 88.9567C81.8457 89.3603 76.9493 85.2499 74.4534 84.7294Z" fill="#0D0D0D"/>
<path d="M68.3354 110.964C70.226 107.459 73.0194 105.919 75.7703 105.494C78.5211 105.069 79.1265 105.441 80.9109 106.875C79.2434 109.848 72.9769 111.813 68.3354 110.964Z" fill="#0D0D0D"/>
<path d="M71.5857 101.309C74.9738 99.2273 78.1708 99.2804 80.7517 100.289C83.3327 101.298 83.6832 101.925 84.5116 104.06C81.5802 105.802 75.1756 104.368 71.5857 101.309Z" fill="#0D0D0D"/>
<path d="M66.9441 112.302C66.9441 112.302 72.0847 110.135 74.2514 110.741C76.4181 111.346 78.4043 113.417 76.7155 114.044C75.0268 114.67 68.8665 112.344 66.9441 112.302Z" fill="#0D0D0D"/>
<path d="M62.5576 119.747C63.2161 116.211 68.3568 113.502 71.7555 112.982C75.1543 112.461 79.2116 114.108 77.2573 116.03C75.2924 117.952 71.9255 121.032 62.5682 119.747H62.5576Z" fill="#0D0D0D"/>
<path d="M77.9901 114.978C77.9901 114.978 74.5277 123.21 79.2859 127.225C79.2859 127.225 82.3554 123.274 81.9306 120.193C81.5057 117.113 77.9901 114.978 77.9901 114.978Z" fill="#0D0D0D"/>
<path d="M76.7156 114.044C76.7156 114.044 83.0989 111.314 84.3097 112.408L84.2778 113.799C81.6225 112.557 77.321 114.968 77.321 114.968L76.7262 114.044H76.7156Z" fill="#0D0D0D"/>
<path d="M67.3583 94.5965C67.3583 94.5965 73.4442 89.9976 77.9794 90.1569C82.5146 90.3162 86.5294 92.3873 83.5024 94.3947C80.486 96.4127 71.1288 93.7681 67.3477 94.5859L67.3583 94.5965Z" fill="#0D0D0D"/>
<path d="M115.132 15.862L157.617 26.8867L148.376 70.8689C148.376 70.8689 157.022 76.2007 164.754 73.9384C172.486 71.6761 198.912 64.9529 197.499 96.1259C191.849 124.113 167.771 111.197 167.771 111.197C167.771 111.197 150.076 95.478 144.096 102.764L136.375 147.723L83.9592 140.459L107.262 14.9167L115.132 15.862Z" fill="white"/>
<path d="M105.563 16.5948L97.8519 15.862C97.8519 15.862 94.7611 15.5858 94.0707 19.8449C93.3803 24.104 76.6839 127.819 75.9086 132.503C75.1332 137.187 75.2182 139.535 77.8204 140.002C80.4226 140.469 83.9594 140.459 83.9594 140.459L105.563 16.5948Z" fill="#0D0D0D"/>
<path d="M120.029 75.5528C114.431 68.7977 115.132 71.7079 108.398 65.314C111.394 48.915 114.442 32.4841 115.228 15.8832L115.132 15.862L107.262 14.9167L99.7527 55.3407L83.9485 140.459L136.364 147.723L144.085 102.764C150.076 95.478 167.76 111.197 167.76 111.197C167.76 111.197 186.612 121.298 194.865 104.219C196.926 94.5965 166.145 95.8285 143.045 90.1887C127.973 100.088 117.341 93.067 120.018 75.5634L120.029 75.5528Z" fill="#E7F294"/>
<path d="M83.9594 142.052C83.8425 142.052 81.1448 142.052 77.6185 141.574C76.6308 141.446 75.8023 140.926 75.2288 140.076C73.4551 137.421 74.7614 131.845 75.1013 130.538C75.643 127.118 91.8827 24.189 92.4988 19.6325C93.0829 15.3203 94.8779 14.3963 97.7775 14.2688C99.3388 14.1945 102.047 14.5556 104.023 14.8105C104.671 14.8955 105.393 14.991 105.573 15.0017C106.434 15.0335 107.145 15.7558 107.124 16.6161C107.103 17.4764 106.444 18.1774 105.584 18.188C105.297 18.188 104.862 18.1349 103.608 17.9756C101.962 17.7632 99.1901 17.3914 97.9155 17.4551C96.3224 17.5295 95.9931 17.5401 95.6426 20.0679C95.0053 24.72 78.9037 126.779 78.2239 131.123C78.2239 131.176 78.2027 131.229 78.1921 131.282C77.5123 133.873 77.1937 137.293 77.8734 138.313C77.9372 138.419 77.969 138.419 78.0328 138.43C81.3466 138.865 83.9381 138.876 83.9594 138.876C84.8409 138.876 85.5525 139.588 85.5525 140.469C85.5525 141.351 84.8409 142.062 83.9594 142.062V142.052Z" fill="#0D0D0D"/>
<path d="M94.9096 144.601C94.8353 144.601 94.7503 144.601 94.6653 144.58L83.7149 142.933C83.2901 142.87 82.9077 142.636 82.6635 142.285C82.4085 141.935 82.313 141.499 82.3873 141.085L104.288 14.6512C104.437 13.7802 105.255 13.1961 106.126 13.3554C106.996 13.5041 107.57 14.3325 107.421 15.1928L85.7967 140.034L95.1327 141.436C96.0036 141.563 96.5984 142.381 96.4709 143.252C96.3541 144.038 95.6743 144.611 94.899 144.611L94.9096 144.601Z" fill="#0D0D0D"/>
<path d="M115.132 17.4551C115.079 17.4551 115.026 17.4551 114.973 17.4551L105.69 16.5099C104.819 16.4249 104.182 15.6389 104.267 14.768C104.352 13.8971 105.138 13.2598 106.009 13.3448L115.292 14.29C116.163 14.375 116.8 15.161 116.715 16.0319C116.63 16.8497 115.94 17.4658 115.132 17.4658V17.4551Z" fill="#0D0D0D"/>
<path d="M94.9095 144.07C94.8564 144.07 94.8033 144.07 94.7396 144.059C94.166 143.964 93.7624 143.422 93.858 142.848L114.081 15.692C114.176 15.1185 114.707 14.7149 115.291 14.8105C115.865 14.9061 116.269 15.4478 116.173 16.0213L95.9504 143.167C95.8654 143.687 95.4193 144.059 94.8989 144.059L94.9095 144.07Z" fill="#0D0D0D"/>
<path d="M149.821 73.556C149.736 73.556 149.64 73.556 149.545 73.5348C148.674 73.3861 148.1 72.5576 148.249 71.6973L155.801 28.0657L114.729 17.4127C113.879 17.1896 113.369 16.3187 113.582 15.469C113.794 14.6193 114.665 14.1095 115.525 14.3219L158.01 25.3467C158.806 25.5591 159.316 26.345 159.178 27.1629L151.382 72.239C151.244 73.0143 150.575 73.556 149.81 73.556H149.821Z" fill="#0D0D0D"/>
<path d="M136.375 149.317C136.311 149.317 136.247 149.317 136.183 149.317L95.77 144.611C94.8991 144.505 94.2724 143.719 94.368 142.848C94.4742 141.977 95.2496 141.351 96.1311 141.446L135.047 145.982L142.514 103.518C142.662 102.647 143.501 102.074 144.362 102.222C145.233 102.371 145.806 103.2 145.658 104.071L137.936 148.01C137.798 148.775 137.129 149.327 136.364 149.327L136.375 149.317Z" fill="#0D0D0D"/>
<path d="M125.711 110.507C125.615 110.507 125.53 110.507 125.435 110.486C117.883 109.169 113.975 96.6358 116.545 81.968C117.734 75.1705 120.145 68.9783 123.342 64.5281C126.773 59.7486 130.767 57.4863 134.58 58.1554C135.45 58.3041 136.024 59.1325 135.875 60.0035C135.727 60.8744 134.898 61.4586 134.027 61.2992C131.521 60.8532 128.568 62.7225 125.923 66.3974C123.002 70.4547 120.783 76.1901 119.678 82.5203C117.267 96.2959 120.995 106.482 125.976 107.353C126.847 107.501 127.421 108.33 127.272 109.201C127.134 109.976 126.465 110.518 125.7 110.518L125.711 110.507Z" fill="#0D0D0D"/>
<path d="M178.317 116.094C177.319 116.094 176.321 116.009 175.312 115.828C174.441 115.679 173.867 114.851 174.016 113.98C174.165 113.109 174.993 112.536 175.864 112.684C185.009 114.277 194.037 106.736 195.949 95.8392C196.883 90.518 195.991 85.2181 193.453 80.9165C190.957 76.6999 187.165 73.949 182.778 73.1843C181.907 73.0356 181.334 72.2072 181.483 71.3362C181.631 70.4653 182.46 69.8917 183.331 70.0404C188.652 70.9751 193.23 74.257 196.203 79.2915C199.124 84.2409 200.155 90.3162 199.092 96.3809C197.085 107.83 188.121 116.072 178.339 116.072L178.317 116.094Z" fill="#0D0D0D"/>
<path d="M159.677 76.19C158.382 76.19 156.969 76.0732 155.397 75.7971C148.971 74.6712 146.008 71.0175 143.395 67.7993C140.931 64.7511 138.796 62.1276 134.027 61.2886C133.156 61.1399 132.583 60.3114 132.731 59.4405C132.88 58.5696 133.709 57.9854 134.58 58.1447C140.517 59.1856 143.246 62.5419 145.87 65.7813C148.345 68.8402 150.692 71.7292 155.949 72.6426C161.069 73.5347 164.074 72.547 167.558 71.4105C171.403 70.1466 175.768 68.7128 183.309 70.0404C184.18 70.1891 184.754 71.0175 184.605 71.8885C184.456 72.7594 183.628 73.3329 182.757 73.1843C176.013 72.0053 172.38 73.1843 168.546 74.4482C165.933 75.3085 163.246 76.19 159.667 76.19H159.677Z" fill="#0D0D0D"/>
<path d="M175.588 115.849C175.492 115.849 175.407 115.849 175.312 115.828C167.781 114.511 164.16 111.686 160.963 109.19C158.074 106.928 155.567 104.984 150.458 104.092C145.211 103.178 142.025 105.09 138.648 107.129C135.068 109.286 131.372 111.527 125.424 110.486C124.553 110.337 123.98 109.509 124.128 108.638C124.277 107.767 125.106 107.193 125.977 107.342C130.745 108.181 133.645 106.428 137.001 104.4C140.549 102.254 144.574 99.8327 151 100.948C156.895 101.978 159.954 104.368 162.917 106.683C166.093 109.169 169.098 111.516 175.853 112.695C176.724 112.844 177.298 113.672 177.149 114.543C177.011 115.318 176.342 115.86 175.577 115.86L175.588 115.849Z" fill="#0D0D0D"/>
</svg>
