<svg width="235" height="34" viewBox="0 0 235 34" fill="none" xmlns="http://www.w3.org/2000/svg">
<path d="M31.932 5.248C31.932 8.138 29.62 10.416 26.696 10.416C23.806 10.416 21.562 8.138 21.562 5.248C21.562 2.392 23.806 0.113998 26.696 0.113998C29.62 0.113998 31.932 2.392 31.932 5.248ZM20.644 10.756H3.27C1.23 10.756 0.142 9.124 0.142 7.492C0.142 5.928 1.162 4.364 3.27 4.364H20.134C20.1 4.67 20.066 5.01 20.066 5.316C20.066 9.294 23.092 11.912 26.662 11.912C27.376 11.912 28.124 11.81 28.872 11.572C27.308 23.472 20.1 31.224 6.092 33.162C5.854 33.196 5.616 33.196 5.378 33.196C3.1 33.196 1.842 31.496 1.842 29.796C1.842 28.368 2.726 26.974 4.664 26.634C15.476 24.798 20.44 20.038 21.698 12.116C21.698 12.048 21.732 11.946 21.732 11.878C21.732 11.232 21.222 10.756 20.644 10.756ZM28.804 5.248C28.804 4.228 27.886 3.208 26.696 3.208C25.608 3.208 24.69 4.194 24.69 5.248C24.69 6.404 25.608 7.356 26.696 7.356C27.886 7.356 28.804 6.404 28.804 5.248ZM64.9607 31.904H49.0147C44.9687 31.904 42.7587 29.83 42.7587 26.09V9.6C42.7587 5.928 44.9687 3.786 48.9807 3.786H64.9607C69.0067 3.786 71.1827 5.928 71.1827 9.6V26.09C71.1827 29.796 69.0067 31.904 64.9607 31.904ZM64.6547 23.642V11.674C64.6547 10.79 64.0087 9.974 62.8187 9.974H51.1227C50.0687 9.974 49.2867 10.756 49.2867 11.674V23.642C49.2867 24.696 50.0007 25.512 51.1567 25.512H62.7847C63.9067 25.512 64.6547 24.696 64.6547 23.642ZM104.627 10.722H87.2874C85.2134 10.722 84.1594 9.09 84.1594 7.458C84.1594 5.894 85.1794 4.33 87.2874 4.33H107.279C110.951 4.33 112.991 6.132 112.991 9.804C112.991 10.28 112.957 10.756 112.889 11.266C111.325 23.234 104.117 31.19 90.1094 33.162C89.8714 33.196 89.6334 33.196 89.4294 33.196C87.1174 33.196 85.8254 31.462 85.8254 29.762C85.8254 28.334 86.7434 26.94 88.6814 26.6C99.4594 24.764 104.423 20.038 105.681 12.116C105.681 12.048 105.715 11.946 105.715 11.878C105.715 11.198 105.205 10.722 104.627 10.722ZM137.255 30.578V21.058C133.413 22.69 129.639 24.016 128.517 24.016C126.817 24.016 125.831 22.52 125.831 21.092C125.831 19.936 126.443 18.814 127.803 18.44C135.827 16.264 141.131 13.306 144.973 9.158C145.585 8.478 146.333 8.206 147.013 8.206C148.577 8.206 150.005 9.6 150.005 11.164C150.005 11.844 149.733 12.524 149.087 13.17C147.217 15.006 145.245 16.638 143.001 18.066V30.578C143.001 32.38 141.573 33.298 140.145 33.298C138.683 33.298 137.255 32.38 137.255 30.578ZM190.214 20.31H168.012C165.666 20.31 164.51 18.644 164.51 17.012C164.51 15.312 165.7 13.646 168.012 13.646H190.214C192.628 13.646 193.852 15.346 193.852 17.012C193.852 18.678 192.662 20.31 190.214 20.31ZM217.264 26.498V5.554C217.264 3.446 218.862 2.426 220.46 2.426C222.058 2.426 223.656 3.446 223.656 5.554V23.234C223.656 23.642 223.894 23.846 224.166 23.846C224.676 23.846 227.498 21.874 228.518 16.638C228.892 14.768 230.218 13.952 231.612 13.952C233.244 13.952 234.944 15.142 234.944 17.182C234.944 17.454 234.91 17.76 234.842 18.066C232.7 28.266 225.73 31.768 222.364 31.768C219.678 31.768 217.264 30.136 217.264 26.498ZM208.05 15.414V6.064C208.05 3.99 209.682 2.97 211.348 2.97C212.98 2.97 214.612 3.99 214.612 6.064V15.652C214.612 27.314 207.88 32.822 204.922 32.822C202.95 32.822 201.59 31.088 201.59 29.354C201.59 28.402 201.998 27.484 202.95 26.838C206.452 24.492 208.05 21.16 208.05 15.414Z" fill="#0D0D0D"/>
</svg>
