<svg width="272" height="119" viewBox="0 0 272 119" fill="none" xmlns="http://www.w3.org/2000/svg">
<path d="M82.278 30.5891C80.775 30.5891 79.5275 30.4638 78.5255 30.2133V39.036C78.5255 41.2905 77.1477 42.4127 74.272 42.4127C71.3963 42.4127 70.0185 41.2855 70.0185 39.036V7.37774C70.0135 5.12824 70.0736 2.81362 73.6407 1.81162C75.4544 1.31062 78.6457 1 81.271 1C91.3461 1 98.6006 5.50399 98.6006 15.5791C98.6006 25.6542 90.8401 30.5941 82.273 30.5941L82.278 30.5891ZM81.5265 23.3346C86.9072 23.3346 89.9082 20.6442 89.9082 15.8897C89.9082 10.5741 86.2159 8.37974 81.2109 8.37974C80.3341 8.37974 79.4574 8.43986 78.5205 8.63024V23.019C79.5826 23.2695 80.5846 23.3296 81.5215 23.3296L81.5265 23.3346Z" fill="#3B94FD" stroke="#3B94FD" stroke-width="2"/>
<path d="M129.156 37.4101C129.156 38.9131 128.154 39.6646 126.966 40.4111C124.777 41.7889 121.771 42.6005 118.018 42.6005C108.695 42.6005 103.439 37.2197 103.439 28.0865C103.439 18.9533 108.63 13.1968 117.016 13.1968C125.403 13.1968 129.902 18.8881 129.902 25.5214C129.902 29.9001 127.773 30.4011 125.148 30.4011H111.51C112.197 33.9031 114.326 35.7819 118.204 35.7819C120.208 35.7819 121.831 35.2207 123.334 34.4692C124.336 33.9682 125.022 33.6576 125.774 33.6576C127.778 33.6576 129.151 35.7218 129.151 37.4101H129.156ZM111.45 24.9603H121.961C121.961 21.9593 120.398 19.5795 116.891 19.5795C113.765 19.5795 111.946 21.4583 111.45 24.9603Z" fill="#3B94FD" stroke="#3B94FD" stroke-width="2"/>
<path d="M145.951 16.8241V17.5105C147.64 14.8803 150.455 13.4424 154.398 13.4424C157.965 13.4424 160.781 14.6298 162.469 17.3201C163.657 19.0736 164.223 21.5135 164.223 24.5145V39.0285C164.223 41.283 162.845 42.4052 160.029 42.4052C157.214 42.4052 155.836 41.278 155.836 39.0285V25.8922C155.836 24.4544 155.586 23.3271 155.024 22.5155C154.213 21.3281 152.96 20.762 151.207 20.762C149.143 20.762 147.58 21.5736 146.387 22.8912V39.0335C146.387 41.288 145.009 42.4102 142.194 42.4102C139.378 42.4102 138 41.283 138 39.0335V16.8241C138 14.5696 139.313 13.4474 142.069 13.4474C144.824 13.4474 146.011 14.8853 145.946 16.8241H145.951Z" fill="#3B94FD" stroke="#3B94FD" stroke-width="2"/>
<path d="M186.714 13.1372C195.597 13.1372 201.168 19.019 201.168 27.8416C201.168 36.6642 195.411 42.7313 186.463 42.7313C177.516 42.7313 172.075 36.9147 172.075 28.0269C172.075 19.1392 177.831 13.1372 186.714 13.1372ZM186.654 35.9728C190.281 35.9728 192.536 32.9067 192.536 28.0269C192.536 23.1472 190.156 19.9558 186.529 19.9558C182.901 19.9558 180.647 22.9568 180.647 27.8366C180.647 32.7163 183.027 35.9678 186.654 35.9678V35.9728Z" fill="#3B94FD" stroke="#3B94FD" stroke-width="2"/>
<path d="M20.7695 102.177C20.018 104.617 19.1412 106.18 15.013 106.18C11.2605 106.18 10.1332 104.867 9.44687 102.302L1.37575 69.8923C1.18537 69.1408 1 68.204 1 67.5126C1 66.1348 1.81163 64.8823 5.2535 64.8823C8.31962 64.8823 9.32162 65.9444 9.82262 68.3843L15.7044 95.7239L22.7133 70.5737C23.4648 67.7581 24.7174 66.3803 28.2193 66.3803C31.7213 66.3803 32.8486 67.6328 33.6001 70.5737L40.4187 95.7239L46.4858 68.3843C47.0469 65.9444 47.9888 64.8823 50.9297 64.8823C54.1812 64.8823 54.9978 66.1348 54.9978 67.5126C54.9978 68.1989 54.7473 69.1408 54.5619 69.8923L46.3055 102.302C45.6792 104.867 44.4918 106.18 40.7995 106.18C37.1071 106.18 35.7945 104.867 35.043 102.177L27.9738 77.0266L20.7795 102.177H20.7695Z" fill="#3B94FD" stroke="#3B94FD" stroke-width="2"/>
<path d="M71.6959 76.8955C80.5786 76.8955 86.1497 82.7773 86.1497 91.5999C86.1497 100.422 80.3932 106.49 71.4454 106.49C62.4975 106.49 57.0566 100.673 57.0566 91.7852C57.0566 82.8975 62.8131 76.8955 71.6959 76.8955ZM71.6307 99.7311C75.258 99.7311 77.5125 96.665 77.5125 91.7852C77.5125 86.9055 75.1327 83.7141 71.5055 83.7141C67.8782 83.7141 65.6237 86.7151 65.6237 91.5949C65.6237 96.4746 68.0035 99.7261 71.6307 99.7261V99.7311Z" fill="#3B94FD" stroke="#3B94FD" stroke-width="2"/>
<path d="M100.826 102.799C100.826 105.054 99.4487 106.176 96.6331 106.176C93.8174 106.176 92.4397 105.049 92.4397 102.799V80.5898C92.4397 78.3353 93.7523 77.2131 96.5078 77.2131C99.2633 77.2131 100.451 78.651 100.386 80.5898V81.8423C101.698 79.0918 104.263 77.1479 107.58 77.1479C109.96 77.1479 111.022 78.2752 111.022 80.9004C111.022 83.8413 109.709 84.6529 107.204 84.7782C103.762 84.9034 102.074 85.5898 100.821 87.5337V102.799H100.826Z" fill="#3B94FD" stroke="#3B94FD" stroke-width="2"/>
<path d="M143.199 104.053C143.199 105.431 141.886 106.183 138.945 106.183C135.819 106.183 134.501 105.496 133.189 103.618L124.742 92.5454V102.806C124.742 105.06 123.364 106.183 120.548 106.183C117.733 106.183 116.355 105.055 116.355 102.806V66.7639C116.355 64.5094 117.733 63.3872 120.548 63.3872C123.364 63.3872 124.742 64.5145 124.742 66.7639V89.7248L132.998 80.0254C134.812 77.836 135.814 77.2098 138.564 77.2098C141.505 77.2098 142.943 78.0865 142.943 79.3992C142.943 80.1507 142.382 81.1527 141.315 82.2148L132.993 90.9122L141.44 100.737C142.627 102.115 143.194 103.117 143.194 104.053H143.199Z" fill="#3B94FD" stroke="#3B94FD" stroke-width="2"/>
<path d="M148.57 85.7221C148.57 80.7171 152.513 77.0898 159.768 77.0898C163.46 77.0898 166.15 77.9015 168.34 79.154C169.778 79.9656 170.594 80.9075 170.594 82.155C170.594 83.7181 169.342 86.0327 167.278 86.0327C166.651 86.0327 166.09 85.7822 164.647 85.1559C162.583 84.2792 160.895 83.7782 159.332 83.7782C157.643 83.7782 156.581 84.4044 156.581 85.5317C156.581 89.4094 171.095 87.7862 171.095 97.6058C171.095 102.926 166.967 106.303 159.647 106.303C155.895 106.303 153.265 105.552 150.639 103.989C149.136 103.112 148.325 102.11 148.325 100.797C148.325 99.3593 149.452 96.9194 151.701 96.9194C152.513 96.9194 153.265 97.2952 154.206 97.7962C156.145 98.7982 157.774 99.6098 159.963 99.6098C161.842 99.6098 163.089 98.9836 163.089 97.7311C163.089 93.6629 148.575 95.3513 148.575 85.7171L148.57 85.7221Z" fill="#3B94FD" stroke="#3B94FD" stroke-width="2"/>
<path d="M202.933 102.801C202.933 105.055 201.556 106.178 198.74 106.178C195.924 106.178 194.547 105.05 194.547 102.801V89.6647C194.547 88.2268 194.296 87.0995 193.735 86.2879C192.923 85.1006 191.671 84.5344 189.917 84.5344C187.853 84.5344 186.29 85.346 185.098 86.6637V102.806C185.098 105.06 183.72 106.183 180.904 106.183C178.089 106.183 176.711 105.055 176.711 102.806V66.7639C176.711 64.5094 178.089 63.3872 180.904 63.3872C183.72 63.3872 185.098 64.5145 185.098 66.7639V80.7769C186.786 78.4623 189.476 77.2098 193.104 77.2098C196.731 77.2098 199.486 78.3972 201.175 81.0875C202.362 82.841 202.928 85.2809 202.928 88.2819V102.796L202.933 102.801Z" fill="#3B94FD" stroke="#3B94FD" stroke-width="2"/>
<path d="M223.018 76.8955C231.901 76.8955 237.472 82.7773 237.472 91.5999C237.472 100.422 231.716 106.49 222.768 106.49C213.82 106.49 208.379 100.673 208.379 91.7852C208.379 82.8975 214.136 76.8955 223.018 76.8955ZM222.953 99.7311C226.58 99.7311 228.835 96.665 228.835 91.7852C228.835 86.9055 226.455 83.7141 222.828 83.7141C219.201 83.7141 216.946 86.7151 216.946 91.5949C216.946 96.4746 219.326 99.7261 222.953 99.7261V99.7311Z" fill="#3B94FD" stroke="#3B94FD" stroke-width="2"/>
<path d="M251.545 114.624C251.545 116.878 250.167 118 247.352 118C244.536 118 243.158 116.873 243.158 114.624V80.5906C243.158 78.276 244.536 77.2139 247.287 77.2139C249.852 77.2139 250.979 78.2159 250.979 79.8441V80.2199C252.607 78.2159 255.047 77.2189 258.173 77.2189C265.057 77.2189 270.498 82.3491 270.498 91.3571C270.498 100.365 264.932 106.247 256.485 106.247C254.481 106.247 252.733 105.871 251.54 105.185V114.634L251.545 114.624ZM255.298 99.4232C259.426 99.4232 261.931 96.7328 261.931 91.788C261.931 86.8431 259.366 83.9072 255.488 83.9072C253.985 83.9072 252.672 84.3431 251.545 85.2199V98.4212C252.607 99.1076 253.925 99.4232 255.298 99.4232Z" fill="#3B94FD" stroke="#3B94FD" stroke-width="2"/>
</svg>
