<svg width="412" height="180" viewBox="0 0 412 180" fill="none" xmlns="http://www.w3.org/2000/svg">
<path d="M19.6512 46.0152C17.3646 46.0152 15.4668 45.8247 13.9424 45.4436V58.8658C13.9424 62.2957 11.8463 64.003 7.47134 64.003C3.09634 64.003 1.00031 62.2881 1.00031 58.8658V10.7027C0.992683 7.28049 1.08415 3.75915 6.51097 2.23476C9.27012 1.47256 14.1253 1 18.1192 1C33.4469 1 44.4835 7.85213 44.4835 23.1799C44.4835 38.5076 32.6771 46.0228 19.6436 46.0228L19.6512 46.0152ZM18.5079 34.9786C26.6939 34.9786 31.2594 30.8857 31.2594 23.6524C31.2594 15.5655 25.6421 12.2271 18.0277 12.2271C16.6939 12.2271 15.3601 12.3186 13.9348 12.6082V34.4985C15.5506 34.8796 17.075 34.971 18.5003 34.971L18.5079 34.9786Z" fill="#3B94FD" stroke="#3B94FD" stroke-width="2"/>
<path d="M90.9684 56.3963C90.9684 58.6829 89.444 59.8262 87.6376 60.9619C84.3068 63.0579 79.7337 64.2927 74.0248 64.2927C59.8404 64.2927 51.845 56.1067 51.845 42.2119C51.845 28.3171 59.7413 19.5594 72.5004 19.5594C85.2596 19.5594 92.1041 28.218 92.1041 38.3094C92.1041 44.971 88.8648 45.7332 84.8709 45.7332H64.1239C65.1681 51.061 68.4075 53.9192 74.3068 53.9192C77.3556 53.9192 79.8251 53.0655 82.1117 51.9222C83.6361 51.16 84.6803 50.6875 85.8236 50.6875C88.8724 50.6875 90.9608 53.8277 90.9608 56.3963H90.9684ZM64.0325 37.4558H80.0233C80.0233 32.8902 77.6453 29.2698 72.3099 29.2698C67.5538 29.2698 64.787 32.128 64.0325 37.4558Z" fill="#3B94FD" stroke="#3B94FD" stroke-width="2"/>
<path d="M116.52 25.0777V26.1219C119.088 22.1204 123.372 19.9329 129.37 19.9329C134.797 19.9329 139.081 21.7393 141.649 25.8323C143.456 28.5 144.317 32.2119 144.317 36.7774V58.8582C144.317 62.2881 142.221 63.9954 137.938 63.9954C133.654 63.9954 131.558 62.2805 131.558 58.8582V38.8735C131.558 36.686 131.177 34.971 130.323 33.7363C129.088 31.9299 127.183 31.0686 124.515 31.0686C121.375 31.0686 118.997 32.3033 117.183 34.3079V58.8658C117.183 62.2957 115.087 64.003 110.803 64.003C106.52 64.003 104.424 62.2881 104.424 58.8658V25.0777C104.424 21.6479 106.421 19.9405 110.613 19.9405C114.805 19.9405 116.611 22.128 116.512 25.0777H116.52Z" fill="#3B94FD" stroke="#3B94FD" stroke-width="2"/>
<path d="M178.535 19.4604C192.049 19.4604 200.524 28.4086 200.524 41.8308C200.524 55.2531 191.767 64.4832 178.154 64.4832C164.541 64.4832 156.264 55.6342 156.264 42.1128C156.264 28.5915 165.021 19.4604 178.535 19.4604ZM178.444 54.2012C183.962 54.2012 187.392 49.5366 187.392 42.1128C187.392 34.689 183.771 29.8339 178.253 29.8339C172.735 29.8339 169.305 34.3994 169.305 41.8232C169.305 49.247 172.925 54.1936 178.444 54.1936V54.2012Z" fill="#3B94FD" stroke="#3B94FD" stroke-width="2"/>
<path d="M31.0762 154.921C29.9329 158.632 28.5991 161.011 22.3186 161.011C16.6098 161.011 14.8948 159.014 13.8506 155.111L1.57165 105.805C1.28201 104.661 1 103.236 1 102.184C1 100.088 2.23477 98.1828 7.47105 98.1828C12.1357 98.1828 13.6601 99.7987 14.4223 103.511L23.3704 145.104L34.0335 106.841C35.1768 102.558 37.0823 100.462 42.4101 100.462C47.7378 100.462 49.4527 102.367 50.596 106.841L60.9695 145.104L70.1997 103.511C71.0533 99.7987 72.4863 98.1828 76.9603 98.1828C81.907 98.1828 83.1494 100.088 83.1494 102.184C83.1494 103.229 82.7683 104.661 82.4863 105.805L69.9253 155.111C68.9726 159.014 67.1661 161.011 61.5488 161.011C55.9314 161.011 53.9344 159.014 52.7911 154.921L42.0366 116.658L31.0915 154.921H31.0762Z" fill="#3B94FD" stroke="#3B94FD" stroke-width="2"/>
<path d="M108.553 116.468C122.067 116.468 130.542 125.416 130.542 138.838C130.542 152.261 121.785 161.491 108.172 161.491C94.5592 161.491 86.2817 152.642 86.2817 139.12C86.2817 125.599 95.0394 116.468 108.553 116.468ZM108.454 151.209C113.972 151.209 117.402 146.544 117.402 139.12C117.402 131.697 113.782 126.841 108.263 126.841C102.745 126.841 99.3153 131.407 99.3153 138.831C99.3153 146.254 102.936 151.201 108.454 151.201V151.209Z" fill="#3B94FD" stroke="#3B94FD" stroke-width="2"/>
<path d="M152.87 155.873C152.87 159.303 150.774 161.011 146.49 161.011C142.207 161.011 140.111 159.296 140.111 155.873V122.085C140.111 118.655 142.108 116.948 146.3 116.948C150.492 116.948 152.298 119.136 152.199 122.085V123.991C154.196 119.806 158.098 116.849 163.144 116.849C166.765 116.849 168.38 118.564 168.38 122.558C168.38 127.032 166.383 128.267 162.572 128.457C157.336 128.648 154.768 129.692 152.862 132.649V155.873H152.87Z" fill="#3B94FD" stroke="#3B94FD" stroke-width="2"/>
<path d="M217.334 157.779C217.334 159.875 215.337 161.018 210.863 161.018C206.107 161.018 204.102 159.974 202.105 157.116L189.255 140.271V155.881C189.255 159.311 187.158 161.018 182.875 161.018C178.591 161.018 176.495 159.303 176.495 155.881V101.049C176.495 97.6188 178.591 95.9115 182.875 95.9115C187.158 95.9115 189.255 97.6264 189.255 101.049V135.98L201.815 121.224C204.575 117.893 206.099 116.94 210.283 116.94C214.758 116.94 216.945 118.274 216.945 120.271C216.945 121.415 216.091 122.939 214.468 124.555L201.808 137.786L214.658 152.733C216.465 154.829 217.326 156.354 217.326 157.779H217.334Z" fill="#3B94FD" stroke="#3B94FD" stroke-width="2"/>
<path d="M225.505 129.89C225.505 122.276 231.503 116.758 242.54 116.758C248.157 116.758 252.25 117.992 255.581 119.898C257.768 121.133 259.011 122.565 259.011 124.463C259.011 126.841 257.105 130.363 253.965 130.363C253.012 130.363 252.159 129.982 249.963 129.029C246.823 127.695 244.255 126.933 241.877 126.933C239.308 126.933 237.692 127.886 237.692 129.6C237.692 135.5 259.773 133.03 259.773 147.969C259.773 156.064 253.492 161.201 242.357 161.201C236.648 161.201 232.646 160.058 228.652 157.68C226.366 156.346 225.131 154.822 225.131 152.825C225.131 150.637 226.846 146.925 230.268 146.925C231.503 146.925 232.646 147.497 234.079 148.259C237.029 149.783 239.506 151.018 242.837 151.018C245.695 151.018 247.593 150.065 247.593 148.16C247.593 141.971 225.512 144.54 225.512 129.883L225.505 129.89Z" fill="#3B94FD" stroke="#3B94FD" stroke-width="2"/>
<path d="M308.21 155.873C308.21 159.303 306.114 161.011 301.831 161.011C297.547 161.011 295.451 159.296 295.451 155.873V135.889C295.451 133.701 295.07 131.986 294.217 130.751C292.982 128.945 291.076 128.084 288.409 128.084C285.268 128.084 282.89 129.318 281.076 131.323V155.881C281.076 159.311 278.98 161.018 274.697 161.018C270.413 161.018 268.317 159.303 268.317 155.881V101.049C268.317 97.6188 270.413 95.9115 274.697 95.9115C278.98 95.9115 281.076 97.6264 281.076 101.049V122.367C283.645 118.846 287.738 116.94 293.256 116.94C298.774 116.94 302.967 118.747 305.535 122.84C307.342 125.508 308.203 129.219 308.203 133.785V155.866L308.21 155.873Z" fill="#3B94FD" stroke="#3B94FD" stroke-width="2"/>
<path d="M338.767 116.468C352.281 116.468 360.756 125.416 360.756 138.838C360.756 152.261 351.999 161.491 338.386 161.491C324.773 161.491 316.496 152.642 316.496 139.12C316.496 125.599 325.253 116.468 338.767 116.468ZM338.668 151.209C344.186 151.209 347.616 146.544 347.616 139.12C347.616 131.697 343.996 126.841 338.477 126.841C332.959 126.841 329.529 131.407 329.529 138.831C329.529 146.254 333.15 151.201 338.668 151.201V151.209Z" fill="#3B94FD" stroke="#3B94FD" stroke-width="2"/>
<path d="M382.166 173.861C382.166 177.291 380.07 178.998 375.787 178.998C371.503 178.998 369.407 177.283 369.407 173.861V122.085C369.407 118.564 371.503 116.948 375.687 116.948C379.59 116.948 381.305 118.472 381.305 120.95V121.521C383.782 118.472 387.494 116.956 392.25 116.956C402.722 116.956 411 124.761 411 138.465C411 152.169 402.532 161.117 389.681 161.117C386.633 161.117 383.973 160.546 382.158 159.501V173.876L382.166 173.861ZM387.875 150.736C394.155 150.736 397.966 146.643 397.966 139.12C397.966 131.597 394.064 127.131 388.165 127.131C385.878 127.131 383.881 127.794 382.166 129.128V149.212C383.782 150.256 385.787 150.736 387.875 150.736Z" fill="#3B94FD" stroke="#3B94FD" stroke-width="2"/>
</svg>
