<svg width="309" height="58" viewBox="0 0 309 58" fill="none" xmlns="http://www.w3.org/2000/svg">
<g clip-path="url(#clip0_1628_2965)">
<path d="M34.5 35.16C34.5746 34.4846 34.2939 34.6337 34.2939 34.6337C34.1711 34.6337 34.2676 33.5328 34.2939 33.0416C34.3202 32.5504 33.5351 28.9978 33.2895 28.0679C33.0439 27.1381 32.2588 25.9846 31.9123 25.3749C31.5658 24.7609 31.2062 24.1732 30.5702 23.7083C30.6886 23.4802 30.7237 23.0416 30.4474 22.8486C30.7544 22.7828 30.6799 22.3662 30.6185 21.989C30.5439 21.5285 29.8597 21.5986 29.7588 21.5986C29.6579 21.5986 29.636 21.5504 29.6097 21.353C30.0307 21.3092 30.2544 21.0504 30.307 20.9802C30.2588 21.0548 30.1974 21.4232 31.0044 20.9627C34.5088 18.9627 29.3641 14.0767 28.7237 13.5899C29.2369 13.4188 29.4079 12.9276 29.4825 12.1951C29.557 11.4583 29.443 11.1513 28.6009 11.1425C27.7588 11.1337 26.6097 12.2346 26.4956 12.1951C26.0307 12.0372 24.8553 11.7916 24.1667 11.7434C24.3246 11.5943 24.4869 11.1206 23.8246 11.0197C23.1623 10.9188 23.0877 11.5592 23.0877 11.5592C22.5746 11.5592 20.9211 11.682 20.7106 12.0986C20.5965 12.0855 18.9211 11.8048 16.079 12.7828C13.2369 13.7609 10.5921 16.603 10.5921 16.603C10.5921 16.603 9.83336 17.2872 9.04827 18.4407C8.26318 19.5942 9.22809 21.9583 9.97809 22.4583C10.7281 22.9583 11.3991 23.5592 11.7676 23.7302C12.136 23.9013 11.7193 23.7565 12.7983 23.7302C13.8772 23.7039 14.0483 23.4846 14.5395 23.1162C14.443 23.5328 14 23.7785 13.4123 24.1951C12.8246 24.6118 13.8553 24.932 13.8553 24.932C14.9342 24.9802 16.2807 25.5197 16.8465 25.7916C16.943 26.353 17.5088 26.4583 17.3728 26.7653C16.9562 27.3793 16.7062 29.4846 16.5921 29.6951C16.4781 29.9056 15.9737 30.1381 15.75 30.4276C15.5658 30.6688 14.8772 31.217 14.6623 31.2521C14.6228 31.2565 14.5877 31.2872 14.5702 31.3267C14.5702 31.3267 14.5439 31.5328 14.5746 31.7302C14.4342 31.8135 14.1184 31.967 13.4342 31.967C13.0658 31.6995 12.886 31.5811 12.5263 31.546L12.6097 30.4144C12.6097 30.4144 12.6053 30.3837 12.5921 30.3837H12.5395C12.5395 30.3837 12.5483 30.3355 12.5483 30.3223C12.5483 30.3092 12.5395 30.3092 12.5395 30.3092L12.3948 30.296C12.3948 30.296 12.3772 30.296 12.3772 30.3048C12.3772 30.3135 12.3684 30.3706 12.3684 30.3706C12.3684 30.3706 12.307 30.3618 12.2983 30.3706C12.2895 30.3793 12.2807 30.3706 12.2763 30.3881L12.0307 31.6206C12.0307 31.6206 11.4211 31.7258 11.1097 32.0899C10.7983 32.4539 11.2588 32.9714 11.2588 32.9714C11.2588 32.9714 11.193 33.2258 11.3158 33.3706C11.3816 33.4495 11.6623 33.6162 11.7588 33.5592L11.7237 33.8267L11.829 34.4056L4.23686 32.7214L2.693 26.3267C2.693 26.3267 2.25441 26.4539 2.36406 26.932C2.4737 27.41 3.70178 32.6118 3.70178 32.6118L3.62283 32.5942C3.55704 32.5767 3.49125 32.6118 3.46055 32.6688V32.9056C3.46055 33.0109 3.53072 33.103 3.6316 33.1337L3.76756 33.1732L3.04827 35.2697H2.82897V35.7127H0.118441C-0.00436647 35.7083 1.94931e-05 35.8179 1.94931e-05 35.8179V36.739C1.94931e-05 36.739 1.94957e-05 36.8179 0.105283 36.8223C0.210546 36.8267 0.97809 36.8223 0.97809 36.8223V38.0328C0.97809 38.1206 1.05265 38.1907 1.14037 38.1951H1.68862L1.71055 47.0021H3.1623L3.21055 38.2127H13.0088V44.5855C12.7237 44.4627 11.9123 44.3004 11.7544 44.5855C11.5965 44.8706 11.6491 45.2565 11.7544 45.5416C11.8597 45.8267 12.8027 46.4013 13.0088 46.4802V46.9977H14.557C14.557 46.9977 14.557 46.41 14.557 45.967C15.1711 45.7697 15.1272 44.9363 15.386 44.6513C15.6448 44.3662 18.7237 43.739 20.2851 42.739C21.6579 42.296 22.9781 42.5197 22.9781 42.5197V43.8486H23.7149V44.4583H24.3992L22.9825 46.9977H24.2325L25.4518 44.4539H26.5044V46.9977H27.7588V44.4539H28.6974L29.9869 47.0065H31.2413L29.8114 44.4539H30.6579L30.6492 43.8442H31.0702L31.3377 43.5986V42.4714C31.3377 42.4714 31.7544 42.0065 32.5395 41.2214C33.3246 40.4363 33.2763 38.0109 33.2763 38.0109C33.2763 38.0109 33.5483 38.046 33.7807 37.7784C34.0132 37.5109 34.4342 35.8311 34.5132 35.16H34.5ZM14.5132 39.6644L14.5044 38.2039H14.7413C14.8684 38.2083 14.9693 38.1074 14.9693 37.9802V36.8267H15.4693C15.5746 36.8267 15.6579 36.7434 15.6579 36.6381V35.8267C15.6579 35.7653 15.6053 35.7127 15.5439 35.7127H13.7193V35.3442L13.522 35.2214V34.7784L11.9649 34.4627L12.2851 34.0109C12.7325 34.0986 13.2851 34.182 13.6711 34.0592C14.3553 33.8399 15.9649 34.4846 15.9649 34.4846L16.0614 34.9758L16.6009 35.0986C16.6009 35.0986 15.9913 36.9495 16.9211 37.8442C16.1842 38.4144 15.4255 38.5504 14.5132 39.6688V39.6644Z" fill="#0D0D0D"/>
</g>
<path d="M70.3232 25.074C70.3232 29.902 66.9912 32.588 61.7552 32.588C60.7352 32.588 59.7152 32.52 58.7292 32.316V39.524C58.7292 39.966 58.5252 40.17 58.0832 40.17C57.6072 40.17 57.3692 39.966 57.3692 39.524V19.124C57.3692 18.478 57.3692 18.138 58.3552 17.934C59.1372 17.764 60.4972 17.662 61.5852 17.662C66.5832 17.662 70.3232 20.008 70.3232 25.074ZM58.7292 31.092C59.7832 31.296 60.8032 31.398 61.7212 31.398C66.1412 31.398 68.8612 29.222 68.8612 25.108C68.8612 20.62 65.6652 18.886 61.5512 18.886C60.7692 18.886 59.7832 18.954 58.7292 19.124V31.092ZM89.2271 31.5C89.2271 32.656 88.9551 32.758 88.1391 32.758H78.0411C78.1091 36.498 79.9451 39.082 83.6511 39.082C84.9091 39.082 86.2011 38.81 87.2891 37.96C87.8671 37.518 88.0711 37.212 88.3771 37.212C88.7171 37.212 88.9551 37.518 88.9551 37.824C88.9551 38.096 88.6151 38.47 88.1391 38.844C86.8811 39.796 85.3851 40.306 83.5831 40.306C79.2311 40.306 76.6471 37.348 76.6471 32.656C76.6471 27.998 79.1631 24.938 83.1071 24.938C86.8811 24.938 89.2271 27.726 89.2271 31.5ZM78.0751 31.67H87.8331C87.8331 28.372 86.0311 26.06 83.0731 26.06C80.1491 26.06 78.3471 28.304 78.0751 31.67ZM98.3218 25.108C98.7978 25.108 98.9678 25.346 98.9678 25.754V27.488C99.8178 26.128 101.586 24.972 104.102 24.972C106.006 24.972 107.502 25.584 108.386 26.842C109.066 27.794 109.406 29.12 109.406 30.922V39.524C109.406 39.966 109.202 40.17 108.76 40.17C108.284 40.17 108.046 39.966 108.046 39.524V31.092C108.046 29.902 107.876 28.61 107.196 27.658C106.482 26.672 105.36 26.196 103.83 26.196C101.45 26.196 99.7838 27.454 99.0018 28.814V39.524C99.0018 39.966 98.7978 40.17 98.3558 40.17C97.8798 40.17 97.6418 39.966 97.6418 39.524V25.754C97.6418 25.346 97.8458 25.108 98.3218 25.108ZM117.684 32.656C117.684 27.964 120.404 24.938 124.688 24.938C128.972 24.938 131.692 27.964 131.692 32.622C131.692 37.314 128.938 40.34 124.688 40.34C120.404 40.34 117.684 37.314 117.684 32.656ZM119.146 32.622C119.146 36.6 121.322 39.184 124.688 39.184C128.054 39.184 130.23 36.6 130.23 32.656C130.23 28.644 128.054 26.094 124.688 26.094C121.288 26.094 119.146 28.644 119.146 32.622ZM160.918 27.488L156.532 39.422C156.328 39.932 156.09 40.204 155.58 40.204C155.036 40.204 154.798 39.966 154.628 39.422L150.582 26.162C150.48 25.924 150.446 25.72 150.446 25.55C150.446 25.312 150.582 25.108 151.058 25.108C151.568 25.108 151.738 25.312 151.874 25.856L155.682 38.436L160.034 26.468C160.204 25.992 160.442 25.72 160.952 25.72C161.428 25.72 161.666 25.992 161.836 26.468L166.086 38.436L169.996 25.856C170.132 25.346 170.302 25.108 170.744 25.108C171.186 25.108 171.356 25.312 171.356 25.55C171.356 25.754 171.288 25.924 171.22 26.162L167.038 39.456C166.902 39.966 166.63 40.204 166.12 40.204C165.576 40.204 165.372 39.966 165.168 39.422L160.918 27.488ZM178.061 32.656C178.061 27.964 180.781 24.938 185.065 24.938C189.349 24.938 192.069 27.964 192.069 32.622C192.069 37.314 189.315 40.34 185.065 40.34C180.781 40.34 178.061 37.314 178.061 32.656ZM179.523 32.622C179.523 36.6 181.699 39.184 185.065 39.184C188.431 39.184 190.607 36.6 190.607 32.656C190.607 28.644 188.431 26.094 185.065 26.094C181.665 26.094 179.523 28.644 179.523 32.622ZM201.877 29.902V39.524C201.877 39.966 201.673 40.17 201.231 40.17C200.755 40.17 200.517 39.966 200.517 39.524V25.754C200.517 25.346 200.721 25.108 201.197 25.108C201.673 25.108 201.843 25.346 201.843 25.754V28.338C202.897 26.162 204.631 25.04 207.079 25.04C207.725 25.04 207.895 25.21 207.895 25.686C207.895 26.23 207.589 26.264 206.875 26.298C204.461 26.366 202.897 27.454 201.877 29.902ZM225.575 39.014C226.017 39.388 226.187 39.66 226.187 39.796C226.187 40.034 225.983 40.17 225.473 40.17C224.997 40.17 224.657 40 224.283 39.592L216.701 32.452V39.524C216.701 39.966 216.497 40.17 216.055 40.17C215.579 40.17 215.341 39.966 215.341 39.524V17.254C215.341 16.812 215.545 16.608 215.987 16.608C216.463 16.608 216.701 16.812 216.701 17.254V32.01L223.841 25.72C224.317 25.278 224.589 25.108 225.031 25.108C225.541 25.108 225.745 25.21 225.745 25.482C225.745 25.652 225.541 25.856 224.589 26.672L218.231 32.18L225.575 39.014ZM241.568 36.226C241.568 32.248 232.898 33.642 232.898 28.814C232.898 26.536 234.938 24.972 237.896 24.972C239.392 24.972 240.786 25.346 241.874 26.128C242.486 26.536 242.758 26.91 242.758 27.182C242.758 27.454 242.52 27.794 242.146 27.794C241.908 27.794 241.704 27.556 241.16 27.216C240.106 26.502 239.052 26.162 237.794 26.162C235.516 26.162 234.292 27.284 234.292 28.712C234.292 32.486 242.962 31.126 242.962 36.124C242.962 38.64 240.786 40.306 237.624 40.306C236.026 40.306 234.53 39.83 233.306 38.946C232.796 38.572 232.558 38.266 232.558 37.994C232.558 37.722 232.83 37.382 233.204 37.382C233.442 37.382 233.646 37.62 234.122 37.96C235.244 38.742 236.332 39.116 237.658 39.116C240.004 39.116 241.568 37.96 241.568 36.226ZM263.228 30.922V39.524C263.228 39.966 263.024 40.17 262.582 40.17C262.106 40.17 261.868 39.966 261.868 39.524V31.092C261.868 29.902 261.698 28.61 261.018 27.658C260.304 26.672 259.182 26.196 257.652 26.196C255.272 26.196 253.606 27.454 252.824 28.814V39.524C252.824 39.966 252.62 40.17 252.178 40.17C251.702 40.17 251.464 39.966 251.464 39.524V17.254C251.464 16.812 251.668 16.608 252.11 16.608C252.586 16.608 252.824 16.812 252.824 17.254V27.454C253.674 26.094 255.442 24.972 257.924 24.972C259.828 24.972 261.324 25.584 262.208 26.842C262.888 27.794 263.228 29.12 263.228 30.922ZM271.507 32.656C271.507 27.964 274.227 24.938 278.511 24.938C282.795 24.938 285.515 27.964 285.515 32.622C285.515 37.314 282.761 40.34 278.511 40.34C274.227 40.34 271.507 37.314 271.507 32.656ZM272.969 32.622C272.969 36.6 275.145 39.184 278.511 39.184C281.877 39.184 284.053 36.6 284.053 32.656C284.053 28.644 281.877 26.094 278.511 26.094C275.111 26.094 272.969 28.644 272.969 32.622ZM295.322 38.98V46.256C295.322 46.698 295.118 46.902 294.676 46.902C294.2 46.902 293.962 46.698 293.962 46.256V25.754C293.962 25.312 294.2 25.108 294.642 25.108C295.084 25.108 295.288 25.278 295.288 25.686V26.876C296.512 25.618 298.076 24.972 299.912 24.972C303.924 24.972 306.678 27.998 306.678 32.588C306.678 37.246 303.822 40.306 299.504 40.306C297.906 40.306 296.512 39.864 295.322 38.98ZM295.322 37.654C296.512 38.606 297.906 39.116 299.436 39.116C302.938 39.116 305.216 36.6 305.216 32.656C305.216 28.678 303.04 26.162 299.708 26.162C298.076 26.162 296.614 26.774 295.322 27.998V37.654Z" fill="#0D0D0D"/>
<path d="M58.7292 32.316L58.8305 31.8264C58.6832 31.7959 58.5301 31.8333 58.4135 31.9283C58.2969 32.0232 58.2292 32.1656 58.2292 32.316H58.7292ZM58.3552 17.934L58.4565 18.4237L58.4614 18.4226L58.3552 17.934ZM58.7292 31.092H58.2292C58.2292 31.3315 58.399 31.5374 58.6342 31.5829L58.7292 31.092ZM58.7292 19.124L58.6496 18.6304C58.4073 18.6695 58.2292 18.8786 58.2292 19.124H58.7292ZM69.8232 25.074C69.8232 27.3651 69.0376 29.0959 67.6773 30.2619C66.3064 31.4369 64.2932 32.088 61.7552 32.088V33.088C64.4531 33.088 66.724 32.3961 68.3281 31.0211C69.9428 29.6371 70.8232 27.6109 70.8232 25.074H69.8232ZM61.7552 32.088C60.756 32.088 59.7723 32.0212 58.8305 31.8264L58.6279 32.8056C59.6581 33.0188 60.7144 33.088 61.7552 33.088V32.088ZM58.2292 32.316V39.524H59.2292V32.316H58.2292ZM58.2292 39.524C58.2292 39.678 58.1929 39.6847 58.2184 39.6592C58.2439 39.6337 58.2372 39.67 58.0832 39.67V40.67C58.3712 40.67 58.6875 40.6043 58.9255 40.3663C59.1635 40.1283 59.2292 39.812 59.2292 39.524H58.2292ZM58.0832 39.67C57.9045 39.67 57.8697 39.63 57.8807 39.6398C57.8872 39.6456 57.8871 39.6497 57.8833 39.6395C57.8784 39.6261 57.8692 39.5912 57.8692 39.524H56.8692C56.8692 39.8323 56.9543 40.1532 57.2147 40.3857C57.4636 40.608 57.7859 40.67 58.0832 40.67V39.67ZM57.8692 39.524V19.124H56.8692V39.524H57.8692ZM57.8692 19.124C57.8692 18.9538 57.8699 18.8445 57.8809 18.7549C57.8909 18.6727 57.9061 18.6443 57.9127 18.6341C57.9204 18.6221 57.9889 18.5204 58.4565 18.4236L58.2539 17.4444C57.7354 17.5516 57.3109 17.7219 57.0721 18.0924C56.9555 18.2734 56.909 18.4639 56.8883 18.6335C56.8684 18.7958 56.8692 18.9712 56.8692 19.124H57.8692ZM58.4614 18.4226C59.1937 18.2634 60.5136 18.162 61.5852 18.162V17.162C60.4808 17.162 59.0807 17.2646 58.249 17.4454L58.4614 18.4226ZM61.5852 18.162C64.0146 18.162 66.0768 18.7332 67.5204 19.8621C68.9461 20.977 69.8232 22.6777 69.8232 25.074H70.8232C70.8232 22.4043 69.8302 20.399 68.1364 19.0744C66.4606 17.7638 64.1538 17.162 61.5852 17.162V18.162ZM58.6342 31.5829C59.7156 31.7922 60.7676 31.898 61.7212 31.898V30.898C60.8388 30.898 59.8508 30.7998 58.8242 30.6011L58.6342 31.5829ZM61.7212 31.898C64.0065 31.898 65.9225 31.3358 67.2744 30.1751C68.6378 29.0044 69.3612 27.2818 69.3612 25.108H68.3612C68.3612 27.0482 67.7245 28.4706 66.623 29.4164C65.5098 30.3722 63.8559 30.898 61.7212 30.898V31.898ZM69.3612 25.108C69.3612 22.7316 68.5069 21.0181 67.0508 19.9154C65.6177 18.8302 63.667 18.386 61.5512 18.386V19.386C63.5493 19.386 65.2536 19.8088 66.4471 20.7126C67.6175 21.5989 68.3612 22.9964 68.3612 25.108H69.3612ZM61.5512 18.386C60.7424 18.386 59.7297 18.4562 58.6496 18.6304L58.8088 19.6176C59.8366 19.4518 60.796 19.386 61.5512 19.386V18.386ZM58.2292 19.124V31.092H59.2292V19.124H58.2292ZM78.0411 32.758V32.258C77.907 32.258 77.7784 32.3119 77.6844 32.4077C77.5904 32.5034 77.5388 32.6329 77.5412 32.7671L78.0411 32.758ZM87.2891 37.96L86.9854 37.5628L86.9813 37.566L87.2891 37.96ZM88.1391 38.844L88.4409 39.2428L88.448 39.2372L88.1391 38.844ZM78.0751 31.67L77.5768 31.6297C77.5655 31.7689 77.613 31.9064 77.7076 32.009C77.8023 32.1116 77.9355 32.17 78.0751 32.17V31.67ZM87.8331 31.67V32.17C88.1093 32.17 88.3331 31.9461 88.3331 31.67H87.8331ZM88.7271 31.5C88.7271 31.7753 88.7104 31.9562 88.6838 32.0758C88.6579 32.1922 88.6308 32.2138 88.6356 32.2089C88.6431 32.2014 88.6362 32.2178 88.5568 32.2334C88.4686 32.2508 88.3414 32.258 88.1391 32.258V33.258C88.3449 33.258 88.5577 33.2525 88.75 33.2146C88.9511 33.175 89.1652 33.0936 89.3427 32.9161C89.5175 32.7412 89.6093 32.5206 89.66 32.2927C89.7099 32.0681 89.7271 31.8027 89.7271 31.5H88.7271ZM88.1391 32.258H78.0411V33.258H88.1391V32.258ZM77.5412 32.7671C77.5765 34.7094 78.0714 36.4147 79.0983 37.6432C80.1371 38.886 81.6717 39.582 83.6511 39.582V38.582C81.9246 38.582 80.6882 37.986 79.8655 37.0018C79.0309 36.0033 78.5737 34.5466 78.5411 32.7489L77.5412 32.7671ZM83.6511 39.582C84.978 39.582 86.3925 39.295 87.597 38.354L86.9813 37.566C86.0098 38.325 84.8403 38.582 83.6511 38.582V39.582ZM87.5929 38.3572C87.8769 38.14 88.1397 37.8986 88.2512 37.8077C88.4013 37.6853 88.4104 37.712 88.3771 37.712V36.712C88.0378 36.712 87.792 36.8917 87.6191 37.0328C87.4075 37.2054 87.2793 37.338 86.9854 37.5628L87.5929 38.3572ZM88.3771 37.712C88.3856 37.712 88.3908 37.7136 88.3955 37.7158C88.4012 37.7185 88.41 37.7243 88.4199 37.7354C88.4426 37.761 88.4551 37.7965 88.4551 37.824H89.4551C89.4551 37.2988 89.047 36.712 88.3771 36.712V37.712ZM88.4551 37.824C88.4551 37.7752 88.4709 37.8196 88.3408 37.9766C88.2277 38.113 88.0538 38.2752 87.8302 38.4508L88.448 39.2372C88.7005 39.0388 88.9346 38.827 89.1105 38.6149C89.2693 38.4234 89.4551 38.1448 89.4551 37.824H88.4551ZM87.8374 38.4453C86.6712 39.3278 85.2826 39.806 83.5831 39.806V40.806C85.4877 40.806 87.0911 40.2642 88.4409 39.2427L87.8374 38.4453ZM83.5831 39.806C81.5263 39.806 79.9362 39.111 78.8553 37.9065C77.7682 36.6953 77.1471 34.9135 77.1471 32.656H76.1471C76.1471 35.0905 76.8181 37.1337 78.111 38.5745C79.4101 40.022 81.288 40.806 83.5831 40.806V39.806ZM77.1471 32.656C77.1471 30.413 77.7528 28.6064 78.7823 27.3702C79.8041 26.1433 81.2752 25.438 83.1071 25.438V24.438C80.995 24.438 79.2361 25.2627 78.0139 26.7303C76.7995 28.1886 76.1471 30.241 76.1471 32.656H77.1471ZM83.1071 25.438C84.8634 25.438 86.2551 26.0828 87.2117 27.1393C88.1732 28.2012 88.7271 29.7153 88.7271 31.5H89.7271C89.7271 29.5107 89.1081 27.7438 87.953 26.4682C86.7932 25.1872 85.1249 24.438 83.1071 24.438V25.438ZM78.0751 32.17H87.8331V31.17H78.0751V32.17ZM88.3331 31.67C88.3331 29.9342 87.8589 28.4097 86.9474 27.3093C86.0278 26.1991 84.694 25.56 83.0731 25.56V26.56C84.4103 26.56 85.4565 27.0769 86.1773 27.9472C86.9063 28.8273 87.3331 30.1078 87.3331 31.67H88.3331ZM83.0731 25.56C81.4703 25.56 80.1493 26.1809 79.2016 27.2755C78.2636 28.3589 77.7188 29.8726 77.5768 31.6297L78.5735 31.7103C78.7035 30.1014 79.1957 28.8101 79.9576 27.93C80.7099 27.0611 81.752 26.56 83.0731 26.56V25.56ZM98.9678 27.488H98.4678C98.4678 27.7111 98.6156 27.9071 98.83 27.9686C99.0444 28.0301 99.2736 27.9421 99.3918 27.753L98.9678 27.488ZM108.386 26.842L107.977 27.1295L107.979 27.1326L108.386 26.842ZM107.196 27.658L107.603 27.3674L107.601 27.3647L107.196 27.658ZM99.0018 28.814L98.5684 28.5648C98.5248 28.6406 98.5018 28.7265 98.5018 28.814H99.0018ZM98.3218 25.608C98.4011 25.608 98.443 25.6181 98.46 25.6241C98.4735 25.6287 98.4667 25.6288 98.4559 25.6171C98.435 25.5945 98.4678 25.6062 98.4678 25.754H99.4678C99.4678 25.4938 99.4156 25.1825 99.1907 24.9389C98.9585 24.6872 98.6364 24.608 98.3218 24.608V25.608ZM98.4678 25.754V27.488H99.4678V25.754H98.4678ZM99.3918 27.753C100.144 26.5501 101.745 25.472 104.102 25.472V24.472C101.427 24.472 99.492 25.7059 98.5438 27.223L99.3918 27.753ZM104.102 25.472C105.902 25.472 107.216 26.0467 107.977 27.1295L108.795 26.5545C107.788 25.1213 106.11 24.472 104.102 24.472V25.472ZM107.979 27.1326C108.575 27.9672 108.906 29.1752 108.906 30.922H109.906C109.906 29.0648 109.557 27.6208 108.793 26.5514L107.979 27.1326ZM108.906 30.922V39.524H109.906V30.922H108.906ZM108.906 39.524C108.906 39.678 108.87 39.6847 108.895 39.6592C108.921 39.6337 108.914 39.67 108.76 39.67V40.67C109.048 40.67 109.364 40.6043 109.602 40.3663C109.84 40.1283 109.906 39.812 109.906 39.524H108.906ZM108.76 39.67C108.581 39.67 108.546 39.63 108.557 39.6398C108.564 39.6456 108.564 39.6497 108.56 39.6395C108.555 39.6261 108.546 39.5912 108.546 39.524H107.546C107.546 39.8323 107.631 40.1532 107.891 40.3857C108.14 40.608 108.463 40.67 108.76 40.67V39.67ZM108.546 39.524V31.092H107.546V39.524H108.546ZM108.546 31.092C108.546 29.8764 108.377 28.4512 107.603 27.3674L106.789 27.9486C107.375 28.7688 107.546 29.9276 107.546 31.092H108.546ZM107.601 27.3647C106.766 26.2123 105.469 25.696 103.83 25.696V26.696C105.251 26.696 106.197 27.1317 106.791 27.9513L107.601 27.3647ZM103.83 25.696C101.261 25.696 99.4343 27.0588 98.5684 28.5648L99.4353 29.0632C100.133 27.8492 101.639 26.696 103.83 26.696V25.696ZM98.5018 28.814V39.524H99.5018V28.814H98.5018ZM98.5018 39.524C98.5018 39.678 98.4655 39.6847 98.491 39.6592C98.5165 39.6337 98.5098 39.67 98.3558 39.67V40.67C98.6438 40.67 98.9601 40.6043 99.1981 40.3663C99.4361 40.1283 99.5018 39.812 99.5018 39.524H98.5018ZM98.3558 39.67C98.1771 39.67 98.1424 39.63 98.1533 39.6398C98.1599 39.6456 98.1597 39.6497 98.156 39.6395C98.1511 39.6261 98.1418 39.5912 98.1418 39.524H97.1418C97.1418 39.8323 97.2269 40.1532 97.4873 40.3857C97.7363 40.608 98.0585 40.67 98.3558 40.67V39.67ZM98.1418 39.524V25.754H97.1418V39.524H98.1418ZM98.1418 25.754C98.1418 25.6271 98.1732 25.6152 98.1569 25.6316C98.1405 25.6479 98.1609 25.608 98.3218 25.608V24.608C98.0068 24.608 97.6871 24.6871 97.4498 24.9244C97.2124 25.1618 97.1418 25.4729 97.1418 25.754H98.1418ZM118.184 32.656C118.184 30.4048 118.836 28.6045 119.95 27.373C121.06 26.1469 122.67 25.438 124.688 25.438V24.438C122.422 24.438 120.53 25.2421 119.209 26.702C117.893 28.1565 117.184 30.2152 117.184 32.656H118.184ZM124.688 25.438C126.706 25.438 128.317 26.147 129.427 27.3694C130.541 28.5969 131.192 30.3886 131.192 32.622H132.192C132.192 30.1974 131.483 28.1471 130.167 26.6971C128.846 25.242 126.954 24.438 124.688 24.438V25.438ZM131.192 32.622C131.192 34.8717 130.533 36.6721 129.414 37.9043C128.299 39.1317 126.688 39.84 124.688 39.84V40.84C126.938 40.84 128.829 40.0353 130.154 38.5767C131.475 37.1229 132.192 35.0643 132.192 32.622H131.192ZM124.688 39.84C122.67 39.84 121.06 39.131 119.95 37.9086C118.835 36.6811 118.184 34.8894 118.184 32.656H117.184C117.184 35.0806 117.893 37.1309 119.21 38.5809C120.531 40.036 122.422 40.84 124.688 40.84V39.84ZM118.646 32.622C118.646 34.6986 119.214 36.4629 120.273 37.7172C121.339 38.98 122.867 39.684 124.688 39.684V38.684C123.143 38.684 121.901 38.096 121.037 37.0723C120.166 36.0401 119.646 34.5234 119.646 32.622H118.646ZM124.688 39.684C126.509 39.684 128.038 38.9801 129.103 37.7222C130.162 36.4724 130.73 34.7165 130.73 32.656H129.73C129.73 34.5395 129.211 36.0476 128.34 37.0758C127.476 38.0959 126.233 38.684 124.688 38.684V39.684ZM130.73 32.656C130.73 30.5633 130.163 28.7982 129.103 27.5473C128.036 26.2879 126.507 25.594 124.688 25.594V26.594C126.235 26.594 127.477 27.1751 128.34 28.1937C129.21 29.2208 129.73 30.7367 129.73 32.656H130.73ZM124.688 25.594C122.854 25.594 121.324 26.2871 120.261 27.5432C119.205 28.7903 118.646 30.5473 118.646 32.622H119.646C119.646 30.7187 120.158 29.2117 121.024 28.1893C121.882 27.1759 123.123 26.594 124.688 26.594V25.594ZM160.918 27.488L161.389 27.3203C161.318 27.1219 161.131 26.9891 160.92 26.988C160.71 26.9869 160.521 27.1179 160.449 27.3155L160.918 27.488ZM156.532 39.422L156.996 39.6077C156.998 39.6033 156.999 39.5989 157.001 39.5945L156.532 39.422ZM154.628 39.422L154.15 39.5679L154.151 39.5711L154.628 39.422ZM150.582 26.162L151.06 26.0161C151.055 25.9987 151.049 25.9817 151.041 25.965L150.582 26.162ZM151.874 25.856L151.389 25.9773C151.391 25.9852 151.393 25.9931 151.395 26.0009L151.874 25.856ZM155.682 38.436L155.203 38.5809C155.266 38.7869 155.453 38.9299 155.668 38.9358C155.883 38.9417 156.078 38.8092 156.152 38.6069L155.682 38.436ZM160.034 26.468L160.504 26.6389L160.505 26.6362L160.034 26.468ZM161.836 26.468L162.307 26.3007L162.307 26.2998L161.836 26.468ZM166.086 38.436L165.615 38.6033C165.687 38.8062 165.881 38.9402 166.096 38.9359C166.311 38.9316 166.499 38.79 166.563 38.5844L166.086 38.436ZM169.996 25.856L170.473 26.0044C170.475 25.9979 170.477 25.9914 170.479 25.9848L169.996 25.856ZM171.22 26.162L171.697 26.3121L171.701 26.2994L171.22 26.162ZM167.038 39.456L166.561 39.306C166.559 39.313 166.557 39.3201 166.555 39.3272L167.038 39.456ZM165.168 39.422L164.697 39.5898L164.7 39.5976L165.168 39.422ZM160.449 27.3155L156.062 39.2495L157.001 39.5945L161.387 27.6605L160.449 27.3155ZM156.068 39.2363C155.975 39.4684 155.9 39.5763 155.839 39.63C155.798 39.6667 155.736 39.704 155.58 39.704V40.704C155.934 40.704 156.246 40.6053 156.502 40.3785C156.739 40.1687 156.885 39.8856 156.996 39.6077L156.068 39.2363ZM155.58 39.704C155.382 39.704 155.318 39.6619 155.289 39.6374C155.246 39.6009 155.18 39.5129 155.105 39.2729L154.151 39.5711C154.246 39.8751 154.383 40.1781 154.638 40.3966C154.907 40.6271 155.234 40.704 155.58 40.704V39.704ZM155.106 39.2761L151.06 26.0161L150.104 26.3079L154.15 39.5679L155.106 39.2761ZM151.041 25.965C150.965 25.7874 150.946 25.6503 150.946 25.55H149.946C149.946 25.7897 149.994 26.0606 150.122 26.359L151.041 25.965ZM150.946 25.55C150.946 25.5369 150.948 25.5427 150.941 25.5597C150.934 25.5798 150.919 25.6018 150.9 25.6182C150.883 25.6331 150.876 25.6308 150.899 25.6242C150.923 25.6173 150.973 25.608 151.058 25.608V24.608C150.76 24.608 150.468 24.6701 150.246 24.8613C150.011 25.065 149.946 25.3348 149.946 25.55H150.946ZM151.058 25.608C151.155 25.608 151.208 25.618 151.234 25.6263C151.255 25.6327 151.258 25.6372 151.259 25.6377C151.273 25.6517 151.323 25.7162 151.389 25.9773L152.359 25.7347C152.288 25.4518 152.185 25.1423 151.953 24.9183C151.697 24.6712 151.375 24.608 151.058 24.608V25.608ZM151.395 26.0009L155.203 38.5809L156.16 38.2911L152.352 25.7111L151.395 26.0009ZM156.152 38.6069L160.504 26.6389L159.564 26.2971L155.212 38.2651L156.152 38.6069ZM160.505 26.6362C160.578 26.4302 160.644 26.336 160.696 26.2904C160.732 26.2585 160.794 26.22 160.952 26.22V25.22C160.6 25.22 160.287 25.3175 160.035 25.5406C159.797 25.75 159.659 26.0298 159.563 26.2998L160.505 26.6362ZM160.952 26.22C161.084 26.22 161.137 26.2532 161.172 26.2855C161.224 26.3326 161.291 26.4303 161.365 26.6362L162.307 26.2998C162.21 26.0297 162.074 25.7533 161.845 25.5455C161.6 25.3228 161.296 25.22 160.952 25.22V26.22ZM161.365 26.6353L165.615 38.6033L166.557 38.2687L162.307 26.3007L161.365 26.6353ZM166.563 38.5844L170.473 26.0044L169.518 25.7076L165.608 38.2876L166.563 38.5844ZM170.479 25.9848C170.543 25.7427 170.595 25.6592 170.621 25.6315C170.627 25.6248 170.63 25.6233 170.636 25.6209C170.646 25.6171 170.677 25.608 170.744 25.608V24.608C170.422 24.608 170.122 24.7003 169.889 24.95C169.685 25.1688 169.584 25.4593 169.513 25.7272L170.479 25.9848ZM170.744 25.608C170.895 25.608 170.919 25.6435 170.897 25.6252C170.885 25.6153 170.872 25.5993 170.864 25.5797C170.86 25.5709 170.858 25.5634 170.857 25.5581C170.856 25.5554 170.856 25.5534 170.856 25.5521C170.856 25.5514 170.856 25.5509 170.856 25.5505C170.856 25.5502 170.856 25.55 170.856 25.55H171.856C171.856 25.305 171.763 25.0438 171.534 24.8543C171.316 24.6745 171.034 24.608 170.744 24.608V25.608ZM170.856 25.55C170.856 25.6619 170.825 25.7253 170.739 26.0246L171.701 26.2994C171.751 26.1227 171.856 25.8461 171.856 25.55H170.856ZM170.743 26.012L166.561 39.306L167.515 39.606L171.697 26.312L170.743 26.012ZM166.555 39.3272C166.502 39.526 166.44 39.6034 166.4 39.6362C166.366 39.6641 166.296 39.704 166.12 39.704V40.704C166.453 40.704 166.774 40.6249 167.038 40.4063C167.296 40.1926 167.438 39.896 167.521 39.5848L166.555 39.3272ZM166.12 39.704C165.924 39.704 165.871 39.6633 165.847 39.6421C165.8 39.6009 165.733 39.5059 165.636 39.2464L164.7 39.5976C164.806 39.8821 164.943 40.1781 165.186 40.3919C165.451 40.6257 165.771 40.704 166.12 40.704V39.704ZM165.639 39.2543L161.389 27.3203L160.447 27.6557L164.697 39.5897L165.639 39.2543ZM178.561 32.656C178.561 30.4048 179.213 28.6045 180.327 27.373C181.437 26.1469 183.047 25.438 185.065 25.438V24.438C182.799 24.438 180.907 25.2421 179.586 26.702C178.27 28.1565 177.561 30.2152 177.561 32.656H178.561ZM185.065 25.438C187.083 25.438 188.694 26.147 189.804 27.3694C190.918 28.5969 191.569 30.3886 191.569 32.622H192.569C192.569 30.1974 191.86 28.1471 190.544 26.6971C189.223 25.242 187.331 24.438 185.065 24.438V25.438ZM191.569 32.622C191.569 34.8717 190.91 36.6721 189.791 37.9043C188.676 39.1317 187.065 39.84 185.065 39.84V40.84C187.315 40.84 189.206 40.0353 190.531 38.5767C191.851 37.1229 192.569 35.0643 192.569 32.622H191.569ZM185.065 39.84C183.047 39.84 181.437 39.131 180.327 37.9086C179.212 36.6811 178.561 34.8894 178.561 32.656H177.561C177.561 35.0806 178.27 37.1309 179.587 38.5809C180.908 40.036 182.799 40.84 185.065 40.84V39.84ZM179.023 32.622C179.023 34.6986 179.591 36.4629 180.65 37.7172C181.715 38.98 183.244 39.684 185.065 39.684V38.684C183.52 38.684 182.278 38.096 181.414 37.0723C180.543 36.0401 180.023 34.5234 180.023 32.622H179.023ZM185.065 39.684C186.886 39.684 188.414 38.9801 189.48 37.7222C190.539 36.4724 191.107 34.7165 191.107 32.656H190.107C190.107 34.5395 189.588 36.0476 188.717 37.0758C187.853 38.0959 186.61 38.684 185.065 38.684V39.684ZM191.107 32.656C191.107 30.5633 190.539 28.7982 189.48 27.5473C188.413 26.2879 186.884 25.594 185.065 25.594V26.594C186.612 26.594 187.854 27.1751 188.717 28.1937C189.587 29.2208 190.107 30.7367 190.107 32.656H191.107ZM185.065 25.594C183.231 25.594 181.701 26.2871 180.638 27.5432C179.582 28.7903 179.023 30.5473 179.023 32.622H180.023C180.023 30.7187 180.535 29.2117 181.401 28.1893C182.259 27.1759 183.5 26.594 185.065 26.594V25.594ZM201.877 29.902L201.415 29.7097C201.39 29.7706 201.377 29.836 201.377 29.902H201.877ZM201.843 28.338H201.343C201.343 28.5711 201.504 28.7732 201.731 28.8253C201.958 28.8775 202.191 28.7657 202.293 28.556L201.843 28.338ZM206.875 26.298L206.889 26.7979L206.899 26.7974L206.875 26.298ZM201.377 29.902V39.524H202.377V29.902H201.377ZM201.377 39.524C201.377 39.678 201.341 39.6847 201.366 39.6592C201.391 39.6337 201.385 39.67 201.231 39.67V40.67C201.519 40.67 201.835 40.6043 202.073 40.3663C202.311 40.1283 202.377 39.812 202.377 39.524H201.377ZM201.231 39.67C201.052 39.67 201.017 39.63 201.028 39.6398C201.035 39.6456 201.035 39.6497 201.031 39.6395C201.026 39.6261 201.017 39.5912 201.017 39.524H200.017C200.017 39.8323 200.102 40.1532 200.362 40.3857C200.611 40.608 200.934 40.67 201.231 40.67V39.67ZM201.017 39.524V25.754H200.017V39.524H201.017ZM201.017 25.754C201.017 25.6271 201.048 25.6152 201.032 25.6316C201.016 25.6479 201.036 25.608 201.197 25.608V24.608C200.882 24.608 200.562 24.6871 200.325 24.9244C200.087 25.1618 200.017 25.4729 200.017 25.754H201.017ZM201.197 25.608C201.276 25.608 201.318 25.6181 201.335 25.6241C201.349 25.6287 201.342 25.6288 201.331 25.6171C201.31 25.5945 201.343 25.6062 201.343 25.754H202.343C202.343 25.4938 202.291 25.1825 202.066 24.9389C201.833 24.6872 201.511 24.608 201.197 24.608V25.608ZM201.343 25.754V28.338H202.343V25.754H201.343ZM202.293 28.556C202.787 27.5357 203.427 26.7892 204.206 26.2953C204.984 25.8016 205.933 25.54 207.079 25.54V24.54C205.776 24.54 204.634 24.8394 203.67 25.4507C202.707 26.0618 201.953 26.9643 201.393 28.12L202.293 28.556ZM207.079 25.54C207.222 25.54 207.314 25.5498 207.372 25.5624C207.428 25.5747 207.428 25.5847 207.41 25.5697C207.387 25.5501 207.379 25.5287 207.381 25.5341C207.386 25.5485 207.395 25.5915 207.395 25.686H208.395C208.395 25.4128 208.351 25.0506 208.048 24.7993C207.777 24.5751 207.41 24.54 207.079 24.54V25.54ZM207.395 25.686C207.395 25.7815 207.38 25.7995 207.388 25.7839C207.393 25.7738 207.402 25.7606 207.415 25.7484C207.427 25.7368 207.435 25.7329 207.434 25.7338C207.423 25.7388 207.381 25.7546 207.272 25.7685C207.166 25.7821 207.032 25.7899 206.851 25.7986L206.899 26.7974C207.075 26.789 207.247 26.7799 207.399 26.7605C207.548 26.7415 207.716 26.7085 207.872 26.6327C208.042 26.5499 208.189 26.4192 208.284 26.2288C208.371 26.0527 208.395 25.8625 208.395 25.686H207.395ZM206.861 25.7982C205.58 25.8343 204.482 26.1432 203.562 26.8008C202.645 27.4565 201.95 28.4271 201.415 29.7097L202.338 30.0943C202.824 28.9289 203.42 28.1315 204.144 27.6142C204.865 27.0988 205.756 26.8297 206.889 26.7978L206.861 25.7982ZM225.575 39.014L225.234 39.38C225.24 39.3854 225.246 39.3906 225.252 39.3957L225.575 39.014ZM224.283 39.592L224.652 39.2541C224.643 39.2451 224.635 39.2364 224.626 39.228L224.283 39.592ZM216.701 32.452L217.044 32.088C216.899 31.9512 216.686 31.9139 216.503 31.993C216.32 32.0721 216.201 32.2525 216.201 32.452H216.701ZM216.701 32.01H216.201C216.201 32.2065 216.316 32.3848 216.495 32.4657C216.674 32.5466 216.884 32.5151 217.032 32.3852L216.701 32.01ZM223.841 25.72L224.172 26.0953L224.181 26.0864L223.841 25.72ZM224.589 26.672L224.264 26.2924L224.262 26.2941L224.589 26.672ZM218.231 32.18L217.904 31.8021C217.796 31.895 217.734 32.0292 217.731 32.1711C217.729 32.313 217.787 32.4493 217.89 32.546L218.231 32.18ZM225.252 39.3957C225.454 39.5666 225.577 39.7005 225.645 39.7922C225.679 39.838 225.694 39.8655 225.698 39.8752C225.705 39.8895 225.687 39.859 225.687 39.796H226.687C226.687 39.5584 226.559 39.3451 226.448 39.1963C226.321 39.0245 226.138 38.8354 225.898 38.6323L225.252 39.3957ZM225.687 39.796C225.687 39.7823 225.691 39.745 225.716 39.702C225.741 39.6589 225.771 39.6393 225.778 39.6352C225.782 39.633 225.765 39.6431 225.711 39.653C225.657 39.6628 225.58 39.67 225.473 39.67V40.67C225.755 40.67 226.037 40.6356 226.264 40.5093C226.386 40.4414 226.499 40.3432 226.579 40.2077C226.658 40.0723 226.687 39.9287 226.687 39.796H225.687ZM225.473 39.67C225.299 39.67 225.172 39.6399 225.059 39.5848C224.942 39.5274 224.812 39.4291 224.652 39.2541L223.914 39.9299C224.128 40.1629 224.355 40.3536 224.62 40.4832C224.89 40.6151 225.171 40.67 225.473 40.67V39.67ZM224.626 39.228L217.044 32.088L216.358 32.816L223.94 39.956L224.626 39.228ZM216.201 32.452V39.524H217.201V32.452H216.201ZM216.201 39.524C216.201 39.678 216.165 39.6847 216.19 39.6592C216.216 39.6337 216.209 39.67 216.055 39.67V40.67C216.343 40.67 216.659 40.6043 216.897 40.3663C217.135 40.1283 217.201 39.812 217.201 39.524H216.201ZM216.055 39.67C215.876 39.67 215.842 39.63 215.853 39.6398C215.859 39.6456 215.859 39.6497 215.855 39.6395C215.85 39.6261 215.841 39.5912 215.841 39.524H214.841C214.841 39.8323 214.926 40.1532 215.187 40.3857C215.436 40.608 215.758 40.67 216.055 40.67V39.67ZM215.841 39.524V17.254H214.841V39.524H215.841ZM215.841 17.254C215.841 17.1 215.877 17.0933 215.852 17.1188C215.826 17.1443 215.833 17.108 215.987 17.108V16.108C215.699 16.108 215.383 16.1737 215.145 16.4117C214.907 16.6497 214.841 16.966 214.841 17.254H215.841ZM215.987 17.108C216.166 17.108 216.201 17.148 216.19 17.1382C216.183 17.1324 216.183 17.1283 216.187 17.1384C216.192 17.1519 216.201 17.1868 216.201 17.254H217.201C217.201 16.9457 217.116 16.6248 216.856 16.3923C216.607 16.17 216.284 16.108 215.987 16.108V17.108ZM216.201 17.254V32.01H217.201V17.254H216.201ZM217.032 32.3852L224.172 26.0952L223.511 25.3448L216.371 31.6348L217.032 32.3852ZM224.181 26.0864C224.415 25.8696 224.562 25.7546 224.685 25.6891C224.789 25.6333 224.885 25.608 225.031 25.608V24.608C224.735 24.608 224.474 24.6677 224.213 24.8074C223.97 24.9374 223.743 25.1284 223.501 25.3536L224.181 26.0864ZM225.031 25.608C225.144 25.608 225.225 25.6138 225.283 25.6225C225.342 25.6315 225.357 25.6409 225.349 25.6369C225.335 25.6296 225.298 25.6049 225.27 25.5553C225.244 25.5091 225.245 25.4758 225.245 25.482H226.245C226.245 25.3522 226.221 25.2041 226.14 25.0623C226.058 24.917 225.938 24.8159 225.809 24.7491C225.58 24.6299 225.295 24.608 225.031 24.608V25.608ZM225.245 25.482C225.245 25.3441 225.341 25.3059 225.166 25.4856C225.015 25.6407 224.744 25.8804 224.264 26.2924L224.914 27.0516C225.386 26.6476 225.693 26.3773 225.882 26.1839C226.047 26.0151 226.245 25.7899 226.245 25.482H225.245ZM224.262 26.2941L217.904 31.8021L218.558 32.5579L224.916 27.0499L224.262 26.2941ZM217.89 32.546L225.234 39.38L225.916 38.648L218.572 31.814L217.89 32.546ZM241.874 26.128L241.582 26.534C241.587 26.5374 241.592 26.5408 241.597 26.544L241.874 26.128ZM241.16 27.216L240.88 27.63C240.885 27.6334 240.89 27.6367 240.895 27.64L241.16 27.216ZM233.306 38.946L233.01 39.3492L233.013 39.3513L233.306 38.946ZM234.122 37.96L233.831 38.3669L233.836 38.3702L234.122 37.96ZM242.068 36.226C242.068 34.9988 241.378 34.2023 240.477 33.6437C239.605 33.1027 238.453 32.7329 237.397 32.3664C236.304 31.9871 235.294 31.6062 234.553 31.0497C233.842 30.5157 233.398 29.8359 233.398 28.814H232.398C232.398 30.2061 233.038 31.1626 233.952 31.8493C234.837 32.5137 235.995 32.9382 237.069 33.3111C238.18 33.6968 239.196 34.0262 239.95 34.4935C240.675 34.9432 241.068 35.4642 241.068 36.226H242.068ZM233.398 28.814C233.398 27.8396 233.828 27.0221 234.592 26.4353C235.366 25.8412 236.501 25.472 237.896 25.472V24.472C236.334 24.472 234.969 24.8848 233.983 25.6422C232.988 26.4069 232.398 27.5104 232.398 28.814H233.398ZM237.896 25.472C239.312 25.472 240.598 25.8263 241.582 26.534L242.166 25.722C240.974 24.8657 239.472 24.472 237.896 24.472V25.472ZM241.597 26.544C241.876 26.7302 242.054 26.8934 242.157 27.0206C242.266 27.1551 242.258 27.2075 242.258 27.182H243.258C243.258 26.8845 243.114 26.6139 242.934 26.3914C242.748 26.1616 242.484 25.9338 242.151 25.712L241.597 26.544ZM242.258 27.182C242.258 27.1788 242.258 27.1879 242.251 27.2061C242.244 27.2235 242.233 27.2416 242.219 27.257C242.206 27.272 242.193 27.2811 242.182 27.2863C242.173 27.2908 242.162 27.294 242.146 27.294V28.294C242.848 28.294 243.258 27.6754 243.258 27.182H242.258ZM242.146 27.294C242.197 27.294 242.202 27.3237 242.051 27.2201C241.931 27.138 241.707 26.968 241.425 26.792L240.895 27.64C241.157 27.804 241.307 27.923 241.485 28.0449C241.631 28.1453 241.857 28.294 242.146 28.294V27.294ZM241.44 26.802C240.308 26.0351 239.157 25.662 237.794 25.662V26.662C238.947 26.662 239.904 26.9689 240.88 27.63L241.44 26.802ZM237.794 25.662C236.578 25.662 235.584 25.9612 234.882 26.5067C234.17 27.0597 233.792 27.8425 233.792 28.712H234.792C234.792 28.1535 235.026 27.6613 235.496 27.2963C235.975 26.9237 236.732 26.662 237.794 26.662V25.662ZM233.792 28.712C233.792 29.9017 234.498 30.6606 235.392 31.1897C236.26 31.7037 237.41 32.0639 238.462 32.4311C239.551 32.8112 240.56 33.2051 241.3 33.7822C242.011 34.337 242.462 35.0516 242.462 36.124H243.462C243.462 34.6974 242.83 33.7078 241.915 32.9939C241.029 32.3024 239.87 31.8633 238.792 31.4869C237.676 31.0976 236.659 30.7778 235.901 30.3292C235.169 29.8957 234.792 29.4093 234.792 28.712H233.792ZM242.462 36.124C242.462 37.223 241.993 38.1247 241.172 38.7639C240.34 39.4111 239.122 39.806 237.624 39.806V40.806C239.288 40.806 240.739 40.3679 241.786 39.5531C242.843 38.7303 243.462 37.541 243.462 36.124H242.462ZM237.624 39.806C236.126 39.806 234.734 39.3603 233.599 38.5407L233.013 39.3513C234.326 40.2997 235.926 40.806 237.624 40.806V39.806ZM233.602 38.5428C233.365 38.3689 233.218 38.23 233.134 38.1233C233.051 38.0167 233.058 37.9785 233.058 37.994H232.058C232.058 38.2815 232.184 38.5323 232.347 38.7402C232.51 38.948 232.737 39.1491 233.01 39.3492L233.602 38.5428ZM233.058 37.994C233.058 38.0075 233.055 38.0046 233.063 37.9877C233.07 37.9717 233.083 37.9518 233.101 37.9331C233.138 37.8948 233.175 37.882 233.204 37.882V36.882C232.859 36.882 232.573 37.0392 232.381 37.2389C232.195 37.4313 232.058 37.7033 232.058 37.994H233.058ZM233.204 37.882C233.15 37.882 233.147 37.8513 233.28 37.9479C233.341 37.9923 233.408 38.0457 233.503 38.1203C233.595 38.1919 233.704 38.2757 233.831 38.3669L234.413 37.5531C234.302 37.4743 234.207 37.4008 234.119 37.3322C234.035 37.2665 233.947 37.1967 233.868 37.1391C233.72 37.0317 233.496 36.882 233.204 36.882V37.882ZM233.836 38.3702C235.033 39.2044 236.219 39.616 237.658 39.616V38.616C236.445 38.616 235.455 38.2796 234.408 37.5498L233.836 38.3702ZM237.658 39.616C238.907 39.616 239.998 39.3088 240.79 38.7233C241.594 38.129 242.068 37.2609 242.068 36.226H241.068C241.068 36.9251 240.76 37.502 240.196 37.9192C239.619 38.3452 238.755 38.616 237.658 38.616V39.616ZM261.018 27.658L261.425 27.3674L261.423 27.3647L261.018 27.658ZM252.824 28.814L252.391 28.5648C252.347 28.6406 252.324 28.7265 252.324 28.814H252.824ZM252.824 27.454H252.324C252.324 27.6771 252.472 27.8731 252.686 27.9346C252.901 27.9961 253.13 27.9081 253.248 27.719L252.824 27.454ZM262.208 26.842L261.799 27.1295L261.801 27.1326L262.208 26.842ZM262.728 30.922V39.524H263.728V30.922H262.728ZM262.728 39.524C262.728 39.678 262.692 39.6847 262.717 39.6592C262.743 39.6337 262.736 39.67 262.582 39.67V40.67C262.87 40.67 263.186 40.6043 263.424 40.3663C263.662 40.1283 263.728 39.812 263.728 39.524H262.728ZM262.582 39.67C262.403 39.67 262.369 39.63 262.38 39.6398C262.386 39.6456 262.386 39.6497 262.382 39.6395C262.377 39.6261 262.368 39.5912 262.368 39.524H261.368C261.368 39.8323 261.453 40.1532 261.714 40.3857C261.963 40.608 262.285 40.67 262.582 40.67V39.67ZM262.368 39.524V31.092H261.368V39.524H262.368ZM262.368 31.092C262.368 29.8764 262.199 28.4512 261.425 27.3674L260.611 27.9486C261.197 28.7688 261.368 29.9276 261.368 31.092H262.368ZM261.423 27.3647C260.589 26.2123 259.291 25.696 257.652 25.696V26.696C259.073 26.696 260.02 27.1317 260.613 27.9513L261.423 27.3647ZM257.652 25.696C255.083 25.696 253.257 27.0588 252.391 28.5648L253.258 29.0632C253.956 27.8492 255.461 26.696 257.652 26.696V25.696ZM252.324 28.814V39.524H253.324V28.814H252.324ZM252.324 39.524C252.324 39.678 252.288 39.6847 252.313 39.6592C252.339 39.6337 252.332 39.67 252.178 39.67V40.67C252.466 40.67 252.782 40.6043 253.02 40.3663C253.258 40.1283 253.324 39.812 253.324 39.524H252.324ZM252.178 39.67C251.999 39.67 251.965 39.63 251.976 39.6398C251.982 39.6456 251.982 39.6497 251.978 39.6395C251.973 39.6261 251.964 39.5912 251.964 39.524H250.964C250.964 39.8323 251.049 40.1532 251.31 40.3857C251.559 40.608 251.881 40.67 252.178 40.67V39.67ZM251.964 39.524V17.254H250.964V39.524H251.964ZM251.964 17.254C251.964 17.1 252 17.0933 251.975 17.1188C251.949 17.1443 251.956 17.108 252.11 17.108V16.108C251.822 16.108 251.506 16.1737 251.268 16.4117C251.03 16.6497 250.964 16.966 250.964 17.254H251.964ZM252.11 17.108C252.289 17.108 252.324 17.148 252.313 17.1382C252.306 17.1324 252.306 17.1283 252.31 17.1384C252.315 17.1519 252.324 17.1868 252.324 17.254H253.324C253.324 16.9457 253.239 16.6248 252.979 16.3923C252.73 16.17 252.407 16.108 252.11 16.108V17.108ZM252.324 17.254V27.454H253.324V17.254H252.324ZM253.248 27.719C253.998 26.5197 255.597 25.472 257.924 25.472V24.472C255.287 24.472 253.35 25.6683 252.4 27.189L253.248 27.719ZM257.924 25.472C259.724 25.472 261.038 26.0467 261.799 27.1295L262.617 26.5545C261.61 25.1213 259.932 24.472 257.924 24.472V25.472ZM261.801 27.1326C262.397 27.9672 262.728 29.1752 262.728 30.922H263.728C263.728 29.0648 263.379 27.6208 262.615 26.5514L261.801 27.1326ZM272.007 32.656C272.007 30.4048 272.658 28.6045 273.773 27.373C274.882 26.1469 276.493 25.438 278.511 25.438V24.438C276.245 24.438 274.353 25.2421 273.031 26.702C271.715 28.1565 271.007 30.2152 271.007 32.656H272.007ZM278.511 25.438C280.529 25.438 282.139 26.147 283.249 27.3694C284.363 28.5969 285.015 30.3886 285.015 32.622H286.015C286.015 30.1974 285.306 28.1471 283.989 26.6971C282.668 25.242 280.776 24.438 278.511 24.438V25.438ZM285.015 32.622C285.015 34.8717 284.355 36.6721 283.236 37.9043C282.121 39.1317 280.511 39.84 278.511 39.84V40.84C280.76 40.84 282.652 40.0353 283.976 38.5767C285.297 37.1229 286.015 35.0643 286.015 32.622H285.015ZM278.511 39.84C276.492 39.84 274.882 39.131 273.772 37.9086C272.658 36.6811 272.007 34.8894 272.007 32.656H271.007C271.007 35.0806 271.715 37.1309 273.032 38.5809C274.353 40.036 276.245 40.84 278.511 40.84V39.84ZM272.469 32.622C272.469 34.6986 273.037 36.4629 274.095 37.7172C275.161 38.98 276.69 39.684 278.511 39.684V38.684C276.965 38.684 275.723 38.096 274.859 37.0723C273.988 36.0401 273.469 34.5234 273.469 32.622H272.469ZM278.511 39.684C280.331 39.684 281.86 38.9801 282.925 37.7222C283.984 36.4724 284.553 34.7165 284.553 32.656H283.553C283.553 34.5395 283.033 36.0476 282.162 37.0758C281.298 38.0959 280.056 38.684 278.511 38.684V39.684ZM284.553 32.656C284.553 30.5633 283.985 28.7982 282.925 27.5473C281.859 26.2879 280.329 25.594 278.511 25.594V26.594C280.058 26.594 281.299 27.1751 282.162 28.1937C283.032 29.2208 283.553 30.7367 283.553 32.656H284.553ZM278.511 25.594C276.676 25.594 275.146 26.2871 274.083 27.5432C273.027 28.7903 272.469 30.5473 272.469 32.622H273.469C273.469 30.7187 273.981 29.2117 274.846 28.1893C275.704 27.1759 276.945 26.594 278.511 26.594V25.594ZM295.322 38.98L295.62 38.5786C295.469 38.4659 295.266 38.4484 295.098 38.5333C294.929 38.6182 294.822 38.791 294.822 38.98H295.322ZM295.288 26.876H294.788C294.788 27.0795 294.911 27.2627 295.1 27.3392C295.288 27.4158 295.505 27.3705 295.646 27.2247L295.288 26.876ZM295.322 37.654H294.822C294.822 37.8059 294.891 37.9495 295.01 38.0444L295.322 37.654ZM295.322 27.998L294.978 27.635C294.879 27.7294 294.822 27.8607 294.822 27.998H295.322ZM294.822 38.98V46.256H295.822V38.98H294.822ZM294.822 46.256C294.822 46.41 294.786 46.4167 294.811 46.3912C294.837 46.3657 294.83 46.402 294.676 46.402V47.402C294.964 47.402 295.28 47.3363 295.518 47.0983C295.756 46.8603 295.822 46.544 295.822 46.256H294.822ZM294.676 46.402C294.497 46.402 294.463 46.362 294.474 46.3718C294.48 46.3776 294.48 46.3817 294.476 46.3715C294.471 46.3581 294.462 46.3232 294.462 46.256H293.462C293.462 46.5643 293.547 46.8852 293.808 47.1177C294.057 47.34 294.379 47.402 294.676 47.402V46.402ZM294.462 46.256V25.754H293.462V46.256H294.462ZM294.462 25.754C294.462 25.62 294.496 25.6133 294.476 25.6321C294.463 25.6442 294.489 25.608 294.642 25.608V24.608C294.354 24.608 294.039 24.6738 293.797 24.8984C293.547 25.1297 293.462 25.446 293.462 25.754H294.462ZM294.642 25.608C294.723 25.608 294.771 25.616 294.797 25.6231C294.821 25.6296 294.815 25.6324 294.801 25.6194C294.784 25.6046 294.778 25.5899 294.778 25.5909C294.78 25.5961 294.788 25.6235 294.788 25.686H295.788C295.788 25.4049 295.717 25.0936 295.461 24.8686C295.22 24.6565 294.91 24.608 294.642 24.608V25.608ZM294.788 25.686V26.876H295.788V25.686H294.788ZM295.646 27.2247C296.772 26.0679 298.205 25.472 299.912 25.472V24.472C297.947 24.472 296.252 25.1681 294.93 26.5273L295.646 27.2247ZM299.912 25.472C301.785 25.472 303.338 26.1746 304.427 27.3921C305.52 28.6142 306.178 30.3919 306.178 32.588H307.178C307.178 30.1941 306.459 28.1638 305.172 26.7254C303.881 25.2824 302.051 24.472 299.912 24.472V25.472ZM306.178 32.588C306.178 34.8151 305.497 36.6149 304.344 37.8531C303.195 39.088 301.54 39.806 299.504 39.806V40.806C301.787 40.806 303.718 39.994 305.076 38.5344C306.432 37.0781 307.178 35.0189 307.178 32.588H306.178ZM299.504 39.806C298.005 39.806 296.717 39.3935 295.62 38.5786L295.024 39.3814C296.307 40.3345 297.808 40.806 299.504 40.806V39.806ZM295.01 38.0444C296.285 39.0645 297.788 39.616 299.436 39.616V38.616C298.024 38.616 296.739 38.1475 295.634 37.2636L295.01 38.0444ZM299.436 39.616C301.314 39.616 302.899 38.9377 304.011 37.699C305.119 36.4658 305.716 34.7224 305.716 32.656H304.716C304.716 34.5336 304.175 36.0202 303.267 37.031C302.365 38.0363 301.061 38.616 299.436 38.616V39.616ZM305.716 32.656C305.716 30.5793 305.148 28.8307 304.092 27.5928C303.029 26.3468 301.509 25.662 299.708 25.662V26.662C301.239 26.662 302.473 27.2352 303.331 28.2417C304.196 29.2563 304.716 30.7547 304.716 32.656H305.716ZM299.708 25.662C297.936 25.662 296.354 26.3317 294.978 27.635L295.666 28.361C296.874 27.2163 298.216 26.662 299.708 26.662V25.662ZM294.822 27.998V37.654H295.822V27.998H294.822Z" fill="black"/>
<defs>
<clipPath id="clip0_1628_2965">
<rect width="34.5132" height="36" fill="white" transform="translate(0 11)"/>
</clipPath>
</defs>
</svg>
